<svg width="691" height="138" viewBox="0 0 691 138" fill="none" xmlns="http://www.w3.org/2000/svg">
<path d="M158.264 27.0385L164.085 20.2754L170.748 26.1844L164.927 32.9475L158.264 27.0385Z" fill="#FF54CC"/>
<rect width="8.92339" height="8.90549" transform="matrix(0.652357 -0.757912 0.748158 0.66352 123 43.2334)" fill="#BB65FF"/>
<rect width="14.2774" height="14.2488" transform="matrix(0.652357 -0.757912 0.748158 0.66352 132.789 22.8203)" fill="#66DEFF"/>
<rect width="14.2774" height="14.2488" transform="matrix(0.652357 -0.757912 0.748158 0.66352 178 10.8208)" fill="#BB65FF"/>
<rect width="14.2774" height="14.2488" transform="matrix(0.652357 -0.757912 0.748158 0.66352 173.899 40.4395)" fill="#78FFC6"/>
<g filter="url(#filter0_d_13725_9447)">
<mask id="path-6-inside-1_13725_9447" fill="white">
<path d="M279 49.9995C287.837 49.9995 295 57.163 295 65.9995V114C295 122.836 287.837 130 279 130C273.067 130 267.888 126.77 265.125 121.973C265.038 121.848 264.954 121.72 264.874 121.588L247 92.3735V114C247 122.836 239.837 130 231 130C222.163 130 215 122.836 215 114V65.9995C215 57.163 222.163 49.9995 231 49.9995C237.497 49.9995 243.089 53.8718 245.595 59.4341L263 87.8804V65.9995C263 57.163 270.163 49.9995 279 49.9995Z"/>
</mask>
<path d="M279 49.9995C287.837 49.9995 295 57.163 295 65.9995V114C295 122.836 287.837 130 279 130C273.067 130 267.888 126.77 265.125 121.973C265.038 121.848 264.954 121.72 264.874 121.588L247 92.3735V114C247 122.836 239.837 130 231 130C222.163 130 215 122.836 215 114V65.9995C215 57.163 222.163 49.9995 231 49.9995C237.497 49.9995 243.089 53.8718 245.595 59.4341L263 87.8804V65.9995C263 57.163 270.163 49.9995 279 49.9995Z" fill="#78FFC6"/>
<path d="M295 65.9995H296H295ZM265.125 121.973L265.992 121.474L265.971 121.438L265.947 121.404L265.125 121.973ZM264.874 121.588L264.021 122.11L264.021 122.11L264.874 121.588ZM247 92.3735L247.853 91.8517L246 88.8229V92.3735H247ZM231 130V131V131V130ZM231 49.9995V48.9995V48.9995V49.9995ZM245.595 59.4341L244.683 59.8449L244.709 59.9023L244.742 59.956L245.595 59.4341ZM263 87.8804L262.147 88.4023L264 91.4307V87.8804H263ZM279 49.9995V50.9995C287.284 50.9995 294 57.7152 294 65.9995H295H296C296 56.6107 288.389 48.9995 279 48.9995V49.9995ZM295 65.9995H294V114H295H296V65.9995H295ZM295 114H294C294 122.284 287.284 129 279 129V130V131C288.389 131 296 123.388 296 114H295ZM279 130V129C273.439 129 268.583 125.974 265.992 121.474L265.125 121.973L264.258 122.472C267.192 127.566 272.695 131 279 131V130ZM265.125 121.973L265.947 121.404C265.87 121.293 265.797 121.181 265.727 121.066L264.874 121.588L264.021 122.11C264.112 122.259 264.206 122.403 264.303 122.542L265.125 121.973ZM264.874 121.588L265.727 121.066L247.853 91.8517L247 92.3735L246.147 92.8954L264.021 122.11L264.874 121.588ZM247 92.3735H246V114H247H248V92.3735H247ZM247 114H246C246 122.284 239.284 129 231 129V130V131C240.389 131 248 123.388 248 114H247ZM231 130V129C222.716 129 216 122.284 216 114H215H214C214 123.388 221.611 131 231 131V130ZM215 114H216V65.9995H215H214V114H215ZM215 65.9995H216C216 57.7152 222.716 50.9995 231 50.9995V49.9995V48.9995C221.611 48.9995 214 56.6107 214 65.9995H215ZM231 49.9995V50.9995C237.089 50.9995 242.333 54.628 244.683 59.8449L245.595 59.4341L246.506 59.0233C243.845 53.1156 237.904 48.9995 231 48.9995V49.9995ZM245.595 59.4341L244.742 59.956L262.147 88.4023L263 87.8804L263.853 87.3585L246.448 58.9122L245.595 59.4341ZM263 87.8804H264V65.9995H263H262V87.8804H263ZM263 65.9995H264C264 57.7152 270.716 50.9995 279 50.9995V49.9995V48.9995C269.611 48.9995 262 56.6107 262 65.9995H263Z" fill="black" mask="url(#path-6-inside-1_13725_9447)"/>
<path d="M163 50.5C184.815 50.5 202.5 68.1848 202.5 90C202.5 111.815 184.815 129.5 163 129.5C141.185 129.5 123.5 111.815 123.5 90C123.5 68.1848 141.185 50.5 163 50.5ZM163 62.5C154.009 62.5 146.5 68.2124 146.5 75.5C146.5 82.7876 154.009 88.5 163 88.5C171.991 88.5 179.5 82.7876 179.5 75.5C179.5 68.2124 171.991 62.5 163 62.5Z" fill="#78FFC6" stroke="black"/>
<rect x="659.5" y="50.5" width="31" height="79" rx="15.5" fill="#78FFC6" stroke="black"/>
<mask id="path-10-inside-2_13725_9447" fill="white">
<path d="M547 50C555.837 50 563 57.1634 563 66C563 74.8366 555.837 82 547 82H539V114C539 122.837 531.837 130 523 130C514.163 130 507 122.837 507 114V82H499C490.163 82 483 74.8366 483 66C483 57.1634 490.163 50 499 50H547Z"/>
</mask>
<path d="M547 50C555.837 50 563 57.1634 563 66C563 74.8366 555.837 82 547 82H539V114C539 122.837 531.837 130 523 130C514.163 130 507 122.837 507 114V82H499C490.163 82 483 74.8366 483 66C483 57.1634 490.163 50 499 50H547Z" fill="#78FFC6"/>
<path d="M547 82V83V82ZM539 82V81H538V82H539ZM507 114H506H507ZM507 82H508V81H507V82ZM499 50V49V50ZM547 50V51C555.284 51 562 57.7157 562 66H563H564C564 56.6112 556.389 49 547 49V50ZM563 66H562C562 74.2843 555.284 81 547 81V82V83C556.389 83 564 75.3888 564 66H563ZM547 82V81H539V82V83H547V82ZM539 82H538V114H539H540V82H539ZM539 114H538C538 122.284 531.284 129 523 129V130V131C532.389 131 540 123.389 540 114H539ZM523 130V129C514.716 129 508 122.284 508 114H507H506C506 123.389 513.611 131 523 131V130ZM507 114H508V82H507H506V114H507ZM507 82V81H499V82V83H507V82ZM499 82V81C490.716 81 484 74.2843 484 66H483H482C482 75.3888 489.611 83 499 83V82ZM483 66H484C484 57.7157 490.716 51 499 51V50V49C489.611 49 482 56.6112 482 66H483ZM499 50V51H547V50V49H499V50Z" fill="black" mask="url(#path-10-inside-2_13725_9447)"/>
<mask id="path-12-inside-3_13725_9447" fill="white">
<path d="M635 50C643.837 50 651 57.1634 651 66C651 74.8366 643.837 82 635 82H627V114C627 122.837 619.837 130 611 130C602.163 130 595 122.837 595 114V82H587C578.163 82 571 74.8366 571 66C571 57.1634 578.163 50 587 50H635Z"/>
</mask>
<path d="M635 50C643.837 50 651 57.1634 651 66C651 74.8366 643.837 82 635 82H627V114C627 122.837 619.837 130 611 130C602.163 130 595 122.837 595 114V82H587C578.163 82 571 74.8366 571 66C571 57.1634 578.163 50 587 50H635Z" fill="#78FFC6"/>
<path d="M635 82V83V82ZM627 82V81H626V82H627ZM595 114H594H595ZM595 82H596V81H595V82ZM587 50V49V50ZM635 50V51C643.284 51 650 57.7157 650 66H651H652C652 56.6112 644.389 49 635 49V50ZM651 66H650C650 74.2843 643.284 81 635 81V82V83C644.389 83 652 75.3888 652 66H651ZM635 82V81H627V82V83H635V82ZM627 82H626V114H627H628V82H627ZM627 114H626C626 122.284 619.284 129 611 129V130V131C620.389 131 628 123.389 628 114H627ZM611 130V129C602.716 129 596 122.284 596 114H595H594C594 123.389 601.611 131 611 131V130ZM595 114H596V82H595H594V114H595ZM595 82V81H587V82V83H595V82ZM587 82V81C578.716 81 572 74.2843 572 66H571H570C570 75.3888 577.611 83 587 83V82ZM571 66H572C572 57.7157 578.716 51 587 51V50V49C577.611 49 570 56.6112 570 66H571ZM587 50V51H635V50V49H587V50Z" fill="black" mask="url(#path-12-inside-3_13725_9447)"/>
<mask id="path-14-inside-4_13725_9447" fill="white">
<path d="M371 50C379.837 50 387 57.1634 387 66C387 74.8366 379.837 82 371 82H339V88.3008C339.558 88.3176 340.117 88.3072 340.674 88.2656L359.495 86.8594C365.706 86.3955 371 91.3094 371 97.5371C371 103.919 365.453 108.883 359.11 108.179L339.5 106L339 105.981V114C339 122.837 331.837 130 323 130C314.163 130 307 122.837 307 114V66C307 57.1634 314.163 50 323 50H371Z"/>
</mask>
<path d="M371 50C379.837 50 387 57.1634 387 66C387 74.8366 379.837 82 371 82H339V88.3008C339.558 88.3176 340.117 88.3072 340.674 88.2656L359.495 86.8594C365.706 86.3955 371 91.3094 371 97.5371C371 103.919 365.453 108.883 359.11 108.179L339.5 106L339 105.981V114C339 122.837 331.837 130 323 130C314.163 130 307 122.837 307 114V66C307 57.1634 314.163 50 323 50H371Z" fill="#78FFC6"/>
<path d="M371 82V83V82ZM339 82V81H338V82H339ZM339 88.3008H338V89.2711L338.97 89.3003L339 88.3008ZM340.674 88.2656L340.748 89.2628L340.748 89.2628L340.674 88.2656ZM359.495 86.8594L359.421 85.8622L359.421 85.8622L359.495 86.8594ZM371 97.5371L372 97.5371V97.5371H371ZM359.11 108.179L359 109.173V109.173L359.11 108.179ZM339.5 106L339.61 105.006L339.574 105.002L339.537 105.001L339.5 106ZM339 105.981L339.037 104.982L338 104.944V105.981H339ZM307 114H306H307ZM371 50V51C379.284 51 386 57.7157 386 66H387H388C388 56.6112 380.389 49 371 49V50ZM387 66H386C386 74.2843 379.284 81 371 81V82V83C380.389 83 388 75.3888 388 66H387ZM371 82V81H339V82V83H371V82ZM339 82H338V88.3008H339H340V82H339ZM339 88.3008L338.97 89.3003C339.56 89.3181 340.154 89.3072 340.748 89.2628L340.674 88.2656L340.599 87.2684C340.08 87.3072 339.556 87.3171 339.03 87.3012L339 88.3008ZM340.674 88.2656L340.748 89.2628L359.57 87.8566L359.495 86.8594L359.421 85.8622L340.599 87.2684L340.674 88.2656ZM359.495 86.8594L359.57 87.8566C365.2 87.4361 370 91.891 370 97.5371H371H372C372 90.7278 366.211 85.355 359.421 85.8622L359.495 86.8594ZM371 97.5371L370 97.5371C370 103.323 364.971 107.824 359.221 107.185L359.11 108.179L359 109.173C365.935 109.943 372 104.515 372 97.5371L371 97.5371ZM359.11 108.179L359.221 107.185L339.61 105.006L339.5 106L339.39 106.994L359 109.173L359.11 108.179ZM339.5 106L339.537 105.001L339.037 104.982L339 105.981L338.963 106.981L339.463 106.999L339.5 106ZM339 105.981H338V114H339H340V105.981H339ZM339 114H338C338 122.284 331.284 129 323 129V130V131C332.389 131 340 123.389 340 114H339ZM323 130V129C314.716 129 308 122.284 308 114H307H306C306 123.389 313.611 131 323 131V130ZM307 114H308V66H307H306V114H307ZM307 66H308C308 57.7157 314.716 51 323 51V50V49C313.611 49 306 56.6112 306 66H307ZM323 50V51H371V50V49H323V50Z" fill="black" mask="url(#path-14-inside-4_13725_9447)"/>
<mask id="path-16-inside-5_13725_9447" fill="white">
<path d="M459 50C467.837 50 475 57.1634 475 66C475 74.8366 467.837 82 459 82H427V88.3008C427.558 88.3176 428.117 88.3072 428.674 88.2656L447.649 86.8477C453.776 86.3901 459 91.2379 459 97.3818C459 103.612 453.636 108.489 447.435 107.898L427.5 106L427 105.981V112.448C427.417 112.481 427.836 112.5 428.255 112.5H455.115C459.47 112.5 463 116.03 463 120.385C463 125.695 458.695 130 453.385 130H411.658C411.582 130 411.507 129.996 411.432 129.994C411.288 129.998 411.144 130 411 130C402.163 130 395 122.837 395 114V66C395 57.1634 402.163 50 411 50H459Z"/>
</mask>
<path d="M459 50C467.837 50 475 57.1634 475 66C475 74.8366 467.837 82 459 82H427V88.3008C427.558 88.3176 428.117 88.3072 428.674 88.2656L447.649 86.8477C453.776 86.3901 459 91.2379 459 97.3818C459 103.612 453.636 108.489 447.435 107.898L427.5 106L427 105.981V112.448C427.417 112.481 427.836 112.5 428.255 112.5H455.115C459.47 112.5 463 116.03 463 120.385C463 125.695 458.695 130 453.385 130H411.658C411.582 130 411.507 129.996 411.432 129.994C411.288 129.998 411.144 130 411 130C402.163 130 395 122.837 395 114V66C395 57.1634 402.163 50 411 50H459Z" fill="#78FFC6"/>
<path d="M459 82V83V82ZM427 82V81H426V82H427ZM427 88.3008H426V89.2711L426.97 89.3003L427 88.3008ZM428.674 88.2656L428.748 89.2628L428.748 89.2628L428.674 88.2656ZM447.649 86.8477L447.575 85.8504L447.575 85.8504L447.649 86.8477ZM459 97.3818H460V97.3818L459 97.3818ZM447.435 107.898L447.529 106.903H447.529L447.435 107.898ZM427.5 106L427.595 105.005L427.566 105.002L427.537 105.001L427.5 106ZM427 105.981L427.037 104.982L426 104.944V105.981H427ZM427 112.448H426V113.373L426.922 113.445L427 112.448ZM428.255 112.5L428.255 113.5H428.255V112.5ZM463 120.385L464 120.385V120.385H463ZM453.385 130V131H453.385L453.385 130ZM411.432 129.994L411.452 128.994L411.429 128.994L411.405 128.994L411.432 129.994ZM395 114H394H395ZM459 50V51C467.284 51 474 57.7157 474 66H475H476C476 56.6112 468.389 49 459 49V50ZM475 66H474C474 74.2843 467.284 81 459 81V82V83C468.389 83 476 75.3888 476 66H475ZM459 82V81H427V82V83H459V82ZM427 82H426V88.3008H427H428V82H427ZM427 88.3008L426.97 89.3003C427.56 89.3181 428.154 89.3072 428.748 89.2628L428.674 88.2656L428.599 87.2684C428.08 87.3072 427.556 87.3171 427.03 87.3012L427 88.3008ZM428.674 88.2656L428.748 89.2628L447.724 87.8449L447.649 86.8477L447.575 85.8504L428.599 87.2684L428.674 88.2656ZM447.649 86.8477L447.724 87.8449C453.271 87.4306 458 91.8195 458 97.3819L459 97.3818L460 97.3818C460 90.6562 454.282 85.3495 447.575 85.8504L447.649 86.8477ZM459 97.3818H458C458 103.022 453.144 107.438 447.529 106.903L447.435 107.898L447.34 108.894C454.129 109.541 460 104.201 460 97.3818H459ZM447.435 107.898L447.529 106.903L427.595 105.005L427.5 106L427.405 106.995L447.34 108.894L447.435 107.898ZM427.5 106L427.537 105.001L427.037 104.982L427 105.981L426.963 106.981L427.463 106.999L427.5 106ZM427 105.981H426V112.448H427H428V105.981H427ZM427 112.448L426.922 113.445C427.361 113.48 427.806 113.5 428.255 113.5L428.255 112.5L428.255 111.5C427.866 111.5 427.474 111.482 427.078 111.451L427 112.448ZM428.255 112.5V113.5H455.115V112.5V111.5H428.255V112.5ZM455.115 112.5V113.5C458.918 113.5 462 116.582 462 120.385H463H464C464 115.478 460.022 111.5 455.115 111.5V112.5ZM463 120.385L462 120.385C462 125.143 458.143 129 453.385 129L453.385 130L453.385 131C459.247 131 464 126.247 464 120.385L463 120.385ZM453.385 130V129H411.658V130V131H453.385V130ZM411.658 130V129C411.586 129 411.586 128.997 411.452 128.994L411.432 129.994L411.411 130.994C411.428 130.994 411.579 131 411.658 131V130ZM411.432 129.994L411.405 128.994C411.27 128.998 411.135 129 411 129V130V131C411.154 131 411.307 130.998 411.458 130.994L411.432 129.994ZM411 130V129C402.716 129 396 122.284 396 114H395H394C394 123.389 401.611 131 411 131V130ZM395 114H396V66H395H394V114H395ZM395 66H396C396 57.7157 402.716 51 411 51V50V49C401.611 49 394 56.6112 394 66H395ZM411 50V51H459V50V49H411V50Z" fill="black" mask="url(#path-16-inside-5_13725_9447)"/>
<path d="M62.2598 26.5C84.028 26.5 102.759 38.8941 111.215 56.7002H94.8154C82.573 56.7004 72.6123 66.2167 72.6123 78L72.6191 78.542C72.9142 89.8907 82.4514 99.0066 94.2432 99.293H94.249L94.8086 99.2998H111.215C102.759 117.106 84.028 129.5 62.2598 129.5C32.5488 129.5 8.5 106.423 8.5 78C8.5 49.5772 32.5488 26.5 62.2598 26.5Z" fill="#78FFC6" stroke="black"/>
</g>
<defs>
<filter id="filter0_d_13725_9447" x="0" y="26" width="691" height="112" filterUnits="userSpaceOnUse" color-interpolation-filters="sRGB">
<feFlood flood-opacity="0" result="BackgroundImageFix"/>
<feColorMatrix in="SourceAlpha" type="matrix" values="0 0 0 0 0 0 0 0 0 0 0 0 0 0 0 0 0 0 127 0" result="hardAlpha"/>
<feOffset dx="-8" dy="8"/>
<feComposite in2="hardAlpha" operator="out"/>
<feColorMatrix type="matrix" values="0 0 0 0 0.733333 0 0 0 0 0.396078 0 0 0 0 1 0 0 0 1 0"/>
<feBlend mode="normal" in2="BackgroundImageFix" result="effect1_dropShadow_13725_9447"/>
<feBlend mode="normal" in="SourceGraphic" in2="effect1_dropShadow_13725_9447" result="shape"/>
</filter>
</defs>
</svg>
