<svg width="41" height="43" viewBox="0 0 41 43" fill="none" xmlns="http://www.w3.org/2000/svg">
<rect x="0.05" y="34.05" width="3.9" height="4.9" fill="#BB65FF" stroke="black" stroke-width="0.1"/>
<rect x="13.05" y="34.05" width="4.9" height="4.9" fill="#BB65FF" stroke="black" stroke-width="0.1"/>
<rect x="4.05" y="30.05" width="4.9" height="3.9" fill="#BB65FF" stroke="black" stroke-width="0.1"/>
<rect x="9.05" y="25.05" width="3.9" height="4.9" fill="#BB65FF" stroke="black" stroke-width="0.1"/>
<rect x="13.05" y="21.05" width="4.9" height="3.9" fill="#BB65FF" stroke="black" stroke-width="0.1"/>
<rect x="9.05" y="16.05" width="3.9" height="4.9" fill="#BB65FF" stroke="black" stroke-width="0.1"/>
<rect x="18.05" y="30.05" width="3.9" height="3.9" fill="#BB65FF" stroke="black" stroke-width="0.1"/>
<rect x="13.05" y="30.05" width="4.9" height="3.9" fill="#E5E5E5" stroke="black" stroke-width="0.1"/>
<rect x="9.05" y="21.05" width="3.9" height="3.9" fill="#E5E5E5" stroke="black" stroke-width="0.1"/>
<rect x="18.05" y="25.05" width="3.9" height="4.9" fill="#E5E5E5" stroke="black" stroke-width="0.1"/>
<rect x="23.05" y="17.05" width="4.9" height="3.9" fill="#BB65FF" stroke="black" stroke-width="0.1"/>
<rect x="32.05" y="13.05" width="2.9" height="2.9" fill="#FFB8E0" stroke="black" stroke-width="0.1"/>
<rect x="12.05" y="0.05" width="3.9" height="3.9" fill="#FF78A9" stroke="black" stroke-width="0.1"/>
<rect x="18.05" y="9.05" width="2.9" height="2.9" fill="#78FFC6" stroke="black" stroke-width="0.1"/>
<rect x="26.05" y="4.05" width="3.9" height="4.9" fill="#BB65FF" stroke="black" stroke-width="0.1"/>
<rect x="38.05" y="2.05" width="2.9" height="2.9" fill="#FF78A9" stroke="black" stroke-width="0.1"/>
<rect x="35.05" y="22.05" width="4.9" height="3.9" fill="#78FFC6" stroke="black" stroke-width="0.1"/>
<rect x="9.05" y="34.05" width="3.9" height="4.9" fill="#E5E5E5" stroke="black" stroke-width="0.1"/>
<rect x="4.05" y="39.05" width="4.9" height="3.9" fill="#E5E5E5" stroke="black" stroke-width="0.1"/>
<rect x="4.05" y="34.05" width="4.9" height="4.9" fill="#FFB8E0" stroke="black" stroke-width="0.1"/>
<rect x="9.05" y="30.05" width="3.9" height="3.9" fill="#FFB8E0" stroke="black" stroke-width="0.1"/>
<rect x="4.05" y="25.05" width="4.9" height="4.9" fill="#FFB8E0" stroke="black" stroke-width="0.1"/>
<rect x="13.05" y="25.05" width="4.9" height="4.9" fill="#FFB8E0" stroke="black" stroke-width="0.1"/>
<rect x="22.05" y="30.05" width="4.9" height="3.9" fill="#FFB8E0" stroke="black" stroke-width="0.1"/>
<rect x="0.05" y="39.05" width="3.9" height="3.9" fill="#FFB8E0" stroke="black" stroke-width="0.1"/>
</svg>
