<svg width="216" height="46" viewBox="0 0 216 46" fill="none" xmlns="http://www.w3.org/2000/svg">
<g filter="url(#filter0_d_13622_7623)">
<path d="M50.0181 8.52245L51.8529 6.39075L53.953 8.25323L52.1181 10.3849L50.0181 8.52245Z" fill="#FF54CC"/>
<rect width="2.8126" height="2.80695" transform="matrix(0.652357 -0.757912 0.748158 0.66352 38.9038 13.627)" fill="#BB65FF"/>
<rect width="4.50015" height="4.49113" transform="matrix(0.652357 -0.757912 0.748158 0.66352 41.9888 7.19287)" fill="#66DEFF"/>
<rect width="4.50015" height="4.49113" transform="matrix(0.652357 -0.757912 0.748158 0.66352 56.2393 3.41064)" fill="#BB65FF"/>
<rect width="4.50015" height="4.49113" transform="matrix(0.652357 -0.757912 0.748158 0.66352 54.9468 12.7466)" fill="#78FFC6"/>
<g filter="url(#filter1_d_13622_7623)">
<mask id="path-6-inside-1_13622_7623" fill="white">
<path d="M86.1704 15.6587C88.9555 15.6589 91.2134 17.9166 91.2134 20.7017V35.8306C91.2134 38.6157 88.9555 40.8743 86.1704 40.8745C84.2914 40.8745 82.6533 39.8457 81.7856 38.3218C81.7634 38.289 81.7392 38.2573 81.7183 38.2231L76.0835 29.0132V35.8315C76.0833 38.6166 73.8256 40.8745 71.0405 40.8745C68.2555 40.8744 65.9978 38.6165 65.9976 35.8315V20.7017C65.9976 17.9165 68.2554 15.6588 71.0405 15.6587C73.083 15.6587 74.8405 16.8736 75.6333 18.6196L81.1274 27.5991V20.7017C81.1275 17.9164 83.3852 15.6587 86.1704 15.6587Z"/>
</mask>
<path d="M86.1704 15.6587C88.9555 15.6589 91.2134 17.9166 91.2134 20.7017V35.8306C91.2134 38.6157 88.9555 40.8743 86.1704 40.8745C84.2914 40.8745 82.6533 39.8457 81.7856 38.3218C81.7634 38.289 81.7392 38.2573 81.7183 38.2231L76.0835 29.0132V35.8315C76.0833 38.6166 73.8256 40.8745 71.0405 40.8745C68.2555 40.8744 65.9978 38.6165 65.9976 35.8315V20.7017C65.9976 17.9165 68.2554 15.6588 71.0405 15.6587C73.083 15.6587 74.8405 16.8736 75.6333 18.6196L81.1274 27.5991V20.7017C81.1275 17.9164 83.3852 15.6587 86.1704 15.6587Z" fill="#78FFC6"/>
<path d="M86.1704 15.6587L86.1705 14.6587H86.1704V15.6587ZM91.2134 20.7017H92.2134V20.7017L91.2134 20.7017ZM86.1704 40.8745V41.8745H86.1705L86.1704 40.8745ZM81.7856 38.3218L82.6547 37.827L82.6353 37.793L82.6133 37.7606L81.7856 38.3218ZM81.7183 38.2231L80.8652 38.745L80.8653 38.7451L81.7183 38.2231ZM76.0835 29.0132L76.9365 28.4913L75.0835 25.4626V29.0132H76.0835ZM76.0835 35.8315L77.0835 35.8316V35.8315H76.0835ZM71.0405 40.8745L71.0405 41.8745H71.0405V40.8745ZM65.9976 35.8315H64.9976V35.8316L65.9976 35.8315ZM65.9976 20.7017L64.9976 20.7016V20.7017H65.9976ZM71.0405 15.6587V14.6587H71.0405L71.0405 15.6587ZM75.6333 18.6196L74.7228 19.0331L74.7482 19.0891L74.7803 19.1415L75.6333 18.6196ZM81.1274 27.5991L80.2744 28.121L82.1274 31.1495V27.5991H81.1274ZM81.1274 20.7017L80.1274 20.7017V20.7017H81.1274ZM86.1704 15.6587L86.1703 16.6587C88.4032 16.6588 90.2134 18.4689 90.2134 20.7017L91.2134 20.7017L92.2134 20.7017C92.2134 17.3642 89.5077 14.6589 86.1705 14.6587L86.1704 15.6587ZM91.2134 20.7017H90.2134V35.8306H91.2134H92.2134V20.7017H91.2134ZM91.2134 35.8306H90.2134C90.2134 38.0636 88.403 39.8744 86.1703 39.8745L86.1704 40.8745L86.1705 41.8745C89.508 41.8743 92.2134 39.1678 92.2134 35.8306H91.2134ZM86.1704 40.8745V39.8745C84.6659 39.8745 83.3521 39.0519 82.6547 37.827L81.7856 38.3218L80.9166 38.8165C81.9545 40.6395 83.9169 41.8745 86.1704 41.8745V40.8745ZM81.7856 38.3218L82.6133 37.7606C82.6026 37.7448 82.5928 37.7309 82.5858 37.7208C82.5823 37.7158 82.5787 37.7108 82.5762 37.7072C82.5733 37.7033 82.5713 37.7004 82.5695 37.6978C82.5613 37.6862 82.5647 37.6905 82.5712 37.7012L81.7183 38.2231L80.8653 38.7451C80.8927 38.7899 80.9187 38.8271 80.9334 38.8482C80.9541 38.8775 80.9531 38.8758 80.9579 38.8829L81.7856 38.3218ZM81.7183 38.2231L82.5713 37.7013L76.9365 28.4913L76.0835 29.0132L75.2305 29.5351L80.8652 38.745L81.7183 38.2231ZM76.0835 29.0132H75.0835V35.8315H76.0835H77.0835V29.0132H76.0835ZM76.0835 35.8315L75.0835 35.8315C75.0833 38.0643 73.2732 39.8745 71.0405 39.8745V40.8745V41.8745C74.378 41.8745 77.0832 39.1688 77.0835 35.8316L76.0835 35.8315ZM71.0405 40.8745L71.0406 39.8745C68.8079 39.8745 66.9978 38.0643 66.9976 35.8315L65.9976 35.8315L64.9976 35.8316C64.9979 39.1688 67.7032 41.8744 71.0405 41.8745L71.0405 40.8745ZM65.9976 35.8315H66.9976V20.7017H65.9976H64.9976V35.8315H65.9976ZM65.9976 20.7017L66.9976 20.7017C66.9976 18.4688 68.8077 16.6587 71.0406 16.6587L71.0405 15.6587L71.0405 14.6587C67.7031 14.6588 64.9976 17.3642 64.9976 20.7016L65.9976 20.7017ZM71.0405 15.6587V16.6587C72.6759 16.6587 74.0859 17.6306 74.7228 19.0331L75.6333 18.6196L76.5438 18.2062C75.595 16.1167 73.4901 14.6587 71.0405 14.6587V15.6587ZM75.6333 18.6196L74.7803 19.1415L80.2744 28.121L81.1274 27.5991L81.9804 27.0772L76.4863 18.0977L75.6333 18.6196ZM81.1274 27.5991H82.1274V20.7017H81.1274H80.1274V27.5991H81.1274ZM81.1274 20.7017L82.1274 20.7017C82.1275 18.4687 83.9375 16.6587 86.1704 16.6587V15.6587V14.6587C82.8329 14.6587 80.1275 17.3642 80.1274 20.7017L81.1274 20.7017Z" fill="black" mask="url(#path-6-inside-1_13622_7623)"/>
<path d="M49.6074 16.1592C56.2942 16.1592 61.7156 21.5798 61.7158 28.2666C61.7158 34.9535 56.2943 40.375 49.6074 40.375C42.9206 40.3748 37.5 34.9534 37.5 28.2666C37.5002 21.5799 42.9208 16.1594 49.6074 16.1592ZM49.6074 19.2568C46.6683 19.257 44.0647 21.1366 44.0645 23.6963C44.0645 26.2562 46.6681 28.1366 49.6074 28.1367C52.5468 28.1367 55.1504 26.2563 55.1504 23.6963C55.1502 21.1365 52.5467 19.2568 49.6074 19.2568Z" fill="#78FFC6" stroke="black"/>
<rect x="205.5" y="15.6567" width="10" height="25" rx="5" fill="#78FFC6" stroke="black"/>
<mask id="path-10-inside-2_13622_7623" fill="white">
<path d="M170.643 15.6592C173.428 15.6594 175.686 17.9171 175.686 20.7021C175.685 23.4872 173.428 25.7449 170.643 25.7451H168.121V35.8311C168.121 38.6163 165.862 40.875 163.077 40.875C160.292 40.8748 158.034 38.6161 158.034 35.8311V25.7451H155.513C152.728 25.745 150.47 23.4873 150.47 20.7021C150.47 17.917 152.728 15.6593 155.513 15.6592H170.643Z"/>
</mask>
<path d="M170.643 15.6592C173.428 15.6594 175.686 17.9171 175.686 20.7021C175.685 23.4872 173.428 25.7449 170.643 25.7451H168.121V35.8311C168.121 38.6163 165.862 40.875 163.077 40.875C160.292 40.8748 158.034 38.6161 158.034 35.8311V25.7451H155.513C152.728 25.745 150.47 23.4873 150.47 20.7021C150.47 17.917 152.728 15.6593 155.513 15.6592H170.643Z" fill="#78FFC6"/>
<path d="M170.643 15.6592L170.643 14.6592H170.643V15.6592ZM175.686 20.7021L176.686 20.7022V20.7021H175.686ZM170.643 25.7451V26.7451H170.643L170.643 25.7451ZM168.121 25.7451V24.7451H167.121V25.7451H168.121ZM163.077 40.875L163.077 41.875H163.077V40.875ZM158.034 25.7451H159.034V24.7451H158.034V25.7451ZM155.513 25.7451L155.513 26.7451H155.513V25.7451ZM150.47 20.7021H149.47V20.7022L150.47 20.7021ZM155.513 15.6592V14.6592H155.513L155.513 15.6592ZM170.643 15.6592L170.642 16.6592C172.875 16.6594 174.686 18.4694 174.686 20.7021H175.686H176.686C176.686 17.3647 173.98 14.6595 170.643 14.6592L170.643 15.6592ZM175.686 20.7021L174.686 20.7021C174.686 22.9348 172.875 24.7449 170.642 24.7451L170.643 25.7451L170.643 26.7451C173.98 26.7448 176.685 24.0395 176.686 20.7022L175.686 20.7021ZM170.643 25.7451V24.7451H168.121V25.7451V26.7451H170.643V25.7451ZM168.121 25.7451H167.121V35.8311H168.121H169.121V25.7451H168.121ZM168.121 35.8311H167.121C167.121 38.064 165.31 39.875 163.077 39.875V40.875V41.875C166.415 41.875 169.121 39.1686 169.121 35.8311H168.121ZM163.077 40.875L163.077 39.875C160.845 39.8748 159.034 38.064 159.034 35.8311H158.034H157.034C157.034 39.1683 159.74 41.8747 163.077 41.875L163.077 40.875ZM158.034 35.8311H159.034V25.7451H158.034H157.034V35.8311H158.034ZM158.034 25.7451V24.7451H155.513V25.7451V26.7451H158.034V25.7451ZM155.513 25.7451L155.513 24.7451C153.28 24.7451 151.47 22.935 151.47 20.7021L150.47 20.7021L149.47 20.7022C149.47 24.0396 152.175 26.745 155.513 26.7451L155.513 25.7451ZM150.47 20.7021H151.47C151.47 18.4693 153.28 16.6592 155.513 16.6592L155.513 15.6592L155.513 14.6592C152.175 14.6593 149.47 17.3647 149.47 20.7021H150.47ZM155.513 15.6592V16.6592H170.643V15.6592V14.6592H155.513V15.6592Z" fill="black" mask="url(#path-10-inside-2_13622_7623)"/>
<mask id="path-12-inside-3_13622_7623" fill="white">
<path d="M198.379 15.6592C201.164 15.6594 203.422 17.917 203.422 20.7021C203.422 23.4872 201.164 25.7449 198.379 25.7451H195.858V35.8311C195.858 38.6161 193.6 40.8748 190.815 40.875C188.03 40.875 185.771 38.6163 185.771 35.8311V25.7451H183.25C180.464 25.745 178.207 23.4873 178.207 20.7021C178.207 17.917 180.464 15.6593 183.25 15.6592H198.379Z"/>
</mask>
<path d="M198.379 15.6592C201.164 15.6594 203.422 17.917 203.422 20.7021C203.422 23.4872 201.164 25.7449 198.379 25.7451H195.858V35.8311C195.858 38.6161 193.6 40.8748 190.815 40.875C188.03 40.875 185.771 38.6163 185.771 35.8311V25.7451H183.25C180.464 25.745 178.207 23.4873 178.207 20.7021C178.207 17.917 180.464 15.6593 183.25 15.6592H198.379Z" fill="#78FFC6"/>
<path d="M198.379 15.6592L198.379 14.6592H198.379V15.6592ZM203.422 20.7021L204.422 20.7022V20.7021H203.422ZM198.379 25.7451V26.7451H198.379L198.379 25.7451ZM195.858 25.7451V24.7451H194.858V25.7451H195.858ZM190.815 40.875V41.875H190.815L190.815 40.875ZM185.771 25.7451H186.771V24.7451H185.771V25.7451ZM183.25 25.7451L183.249 26.7451H183.25V25.7451ZM178.207 20.7021H177.207V20.7022L178.207 20.7021ZM183.25 15.6592V14.6592H183.249L183.25 15.6592ZM198.379 15.6592L198.379 16.6592C200.612 16.6593 202.422 18.4694 202.422 20.7021H203.422H204.422C204.422 17.3647 201.717 14.6594 198.379 14.6592L198.379 15.6592ZM203.422 20.7021L202.422 20.7021C202.422 22.9349 200.612 24.745 198.379 24.7451L198.379 25.7451L198.379 26.7451C201.717 26.7449 204.422 24.0396 204.422 20.7022L203.422 20.7021ZM198.379 25.7451V24.7451H195.858V25.7451V26.7451H198.379V25.7451ZM195.858 25.7451H194.858V35.8311H195.858H196.858V25.7451H195.858ZM195.858 35.8311H194.858C194.858 38.064 193.047 39.8748 190.815 39.875L190.815 40.875L190.815 41.875C194.152 41.8747 196.858 39.1683 196.858 35.8311H195.858ZM190.815 40.875V39.875C188.582 39.875 186.771 38.064 186.771 35.8311H185.771H184.771C184.771 39.1686 187.477 41.875 190.815 41.875V40.875ZM185.771 35.8311H186.771V25.7451H185.771H184.771V35.8311H185.771ZM185.771 25.7451V24.7451H183.25V25.7451V26.7451H185.771V25.7451ZM183.25 25.7451L183.25 24.7451C181.017 24.745 179.207 22.9349 179.207 20.7021L178.207 20.7021L177.207 20.7022C177.207 24.0396 179.912 26.745 183.249 26.7451L183.25 25.7451ZM178.207 20.7021H179.207C179.207 18.4693 181.017 16.6593 183.25 16.6592L183.25 15.6592L183.249 14.6592C179.912 14.6593 177.207 17.3647 177.207 20.7021H178.207ZM183.25 15.6592V16.6592H198.379V15.6592V14.6592H183.25V15.6592Z" fill="black" mask="url(#path-12-inside-3_13622_7623)"/>
<mask id="path-14-inside-4_13622_7623" fill="white">
<path d="M115.167 15.6592C117.953 15.6592 120.21 17.9169 120.21 20.7021C120.21 23.4873 117.953 25.7451 115.167 25.7451H105.082V27.7217C105.346 27.7262 105.61 27.7199 105.874 27.7002L111.542 27.2764C113.499 27.1301 115.167 28.6796 115.167 30.6426C115.167 32.6539 113.419 34.2181 111.42 33.9961L105.239 33.3096L105.082 33.3037V35.832C105.081 38.6171 102.824 40.875 100.039 40.875C97.2536 40.8749 94.9958 38.617 94.9956 35.832V20.7021C94.9956 20.615 94.9981 20.5284 95.0024 20.4424C95.0112 20.2704 95.0277 20.1006 95.0532 19.9336C95.0787 19.7667 95.1124 19.6025 95.1538 19.4414C95.2367 19.1192 95.3511 18.8095 95.4927 18.5156C95.9884 17.4869 96.8233 16.652 97.8521 16.1562C98.146 16.0146 98.4556 15.9003 98.7778 15.8174C98.9392 15.7759 99.1038 15.7423 99.271 15.7168C99.5213 15.6786 99.7776 15.6592 100.039 15.6592H115.167Z"/>
</mask>
<path d="M115.167 15.6592C117.953 15.6592 120.21 17.9169 120.21 20.7021C120.21 23.4873 117.953 25.7451 115.167 25.7451H105.082V27.7217C105.346 27.7262 105.61 27.7199 105.874 27.7002L111.542 27.2764C113.499 27.1301 115.167 28.6796 115.167 30.6426C115.167 32.6539 113.419 34.2181 111.42 33.9961L105.239 33.3096L105.082 33.3037V35.832C105.081 38.6171 102.824 40.875 100.039 40.875C97.2536 40.8749 94.9958 38.617 94.9956 35.832V20.7021C94.9956 20.615 94.9981 20.5284 95.0024 20.4424C95.0112 20.2704 95.0277 20.1006 95.0532 19.9336C95.0787 19.7667 95.1124 19.6025 95.1538 19.4414C95.2367 19.1192 95.3511 18.8095 95.4927 18.5156C95.9884 17.4869 96.8233 16.652 97.8521 16.1562C98.146 16.0146 98.4556 15.9003 98.7778 15.8174C98.9392 15.7759 99.1038 15.7423 99.271 15.7168C99.5213 15.6786 99.7776 15.6592 100.039 15.6592H115.167Z" fill="#78FFC6"/>
<path d="M120.21 20.7021L121.21 20.7022V20.7021H120.21ZM105.082 25.7451V24.7451H104.082V25.7451H105.082ZM105.082 27.7217H104.082V28.7047L105.064 28.7215L105.082 27.7217ZM105.874 27.7002L105.948 28.6974L105.948 28.6974L105.874 27.7002ZM111.542 27.2764L111.467 26.2791L111.467 26.2792L111.542 27.2764ZM115.167 30.6426L116.167 30.6427V30.6426H115.167ZM111.42 33.9961L111.531 33.0022L111.531 33.0022L111.42 33.9961ZM105.239 33.3096L105.349 32.3157L105.313 32.3116L105.276 32.3103L105.239 33.3096ZM105.082 33.3037L105.119 32.3044L104.082 32.2657V33.3037H105.082ZM105.082 35.832L106.082 35.8321V35.832H105.082ZM100.039 40.875L100.039 41.875H100.039V40.875ZM94.9956 35.832H93.9956V35.8321L94.9956 35.832ZM94.9956 20.7021L93.9956 20.7021V20.7021H94.9956ZM95.0024 20.4424L96.0012 20.4931L96.0012 20.493L95.0024 20.4424ZM95.0532 19.9336L94.0647 19.7824L94.0647 19.7825L95.0532 19.9336ZM95.1538 19.4414L96.1222 19.6906L96.1223 19.6906L95.1538 19.4414ZM95.4927 18.5156L94.5918 18.0815L94.5918 18.0815L95.4927 18.5156ZM97.8521 16.1562L97.418 15.2554L97.4179 15.2554L97.8521 16.1562ZM98.7778 15.8174L99.0271 16.7858L99.0271 16.7858L98.7778 15.8174ZM99.271 15.7168L99.1201 14.7283L99.12 14.7283L99.271 15.7168ZM115.167 15.6592V16.6592C117.4 16.6592 119.21 18.4692 119.21 20.7021H120.21H121.21C121.21 17.3646 118.505 14.6592 115.167 14.6592V15.6592ZM120.21 20.7021L119.21 20.7021C119.21 22.9351 117.4 24.7451 115.167 24.7451V25.7451V26.7451C118.505 26.7451 121.21 24.0396 121.21 20.7022L120.21 20.7021ZM115.167 25.7451V24.7451H105.082V25.7451V26.7451H115.167V25.7451ZM105.082 25.7451H104.082V27.7217H105.082H106.082V25.7451H105.082ZM105.082 27.7217L105.064 28.7215C105.356 28.7265 105.651 28.7196 105.948 28.6974L105.874 27.7002L105.799 26.703C105.569 26.7201 105.336 26.7259 105.099 26.7218L105.082 27.7217ZM105.874 27.7002L105.948 28.6974L111.616 28.2736L111.542 27.2764L111.467 26.2792L105.799 26.703L105.874 27.7002ZM111.542 27.2764L111.616 28.2736C112.993 28.1707 114.167 29.2609 114.167 30.6426H115.167H116.167C116.167 28.0984 114.005 26.0896 111.467 26.2791L111.542 27.2764ZM115.167 30.6426L114.167 30.6425C114.167 32.0578 112.938 33.1585 111.531 33.0022L111.42 33.9961L111.31 34.99C113.901 35.2778 116.167 33.25 116.167 30.6427L115.167 30.6426ZM111.42 33.9961L111.531 33.0022L105.349 32.3157L105.239 33.3096L105.128 34.3035L111.31 34.99L111.42 33.9961ZM105.239 33.3096L105.276 32.3103L105.119 32.3044L105.082 33.3037L105.044 34.303L105.202 34.3089L105.239 33.3096ZM105.082 33.3037H104.082V35.832H105.082H106.082V33.3037H105.082ZM105.082 35.832L104.082 35.8319C104.081 38.0648 102.271 39.875 100.039 39.875V40.875V41.875C103.376 41.875 106.081 39.1693 106.082 35.8321L105.082 35.832ZM100.039 40.875L100.039 39.875C97.8059 39.8749 95.9958 38.0648 95.9956 35.8319L94.9956 35.832L93.9956 35.8321C93.9959 39.1692 96.7012 41.8749 100.039 41.875L100.039 40.875ZM94.9956 35.832H95.9956V20.7021H94.9956H93.9956V35.832H94.9956ZM94.9956 20.7021L95.9956 20.7022C95.9956 20.6339 95.9975 20.5643 96.0012 20.4931L95.0024 20.4424L94.0037 20.3917C93.9986 20.4926 93.9956 20.5962 93.9956 20.7021L94.9956 20.7021ZM95.0024 20.4424L96.0012 20.493C96.0083 20.3515 96.0218 20.2154 96.0417 20.0847L95.0532 19.9336L94.0647 19.7825C94.0336 19.9858 94.014 20.1893 94.0037 20.3917L95.0024 20.4424ZM95.0532 19.9336L96.0417 20.0848C96.0622 19.9507 96.0892 19.8192 96.1222 19.6906L95.1538 19.4414L94.1854 19.1922C94.1355 19.3858 94.0952 19.5828 94.0647 19.7824L95.0532 19.9336ZM95.1538 19.4414L96.1223 19.6906C96.1884 19.4336 96.2798 19.1858 96.3935 18.9497L95.4927 18.5156L94.5918 18.0815C94.4223 18.4333 94.285 18.8048 94.1854 19.1922L95.1538 19.4414ZM95.4927 18.5156L96.3935 18.9497C96.791 18.1249 97.4613 17.4546 98.2862 17.0571L97.8521 16.1562L97.4179 15.2554C96.1852 15.8494 95.1858 16.8488 94.5918 18.0815L95.4927 18.5156ZM97.8521 16.1562L98.2861 17.0571C98.5222 16.9434 98.77 16.852 99.0271 16.7858L98.7778 15.8174L98.5286 14.8489C98.1412 14.9486 97.7697 15.0859 97.418 15.2554L97.8521 16.1562ZM98.7778 15.8174L99.0271 16.7858C99.1553 16.7528 99.287 16.7259 99.422 16.7053L99.271 15.7168L99.12 14.7283C98.9206 14.7587 98.7231 14.7989 98.5286 14.8489L98.7778 15.8174ZM99.271 15.7168L99.4219 16.7053C99.6213 16.6749 99.8273 16.6592 100.039 16.6592V15.6592V14.6592C99.728 14.6592 99.4212 14.6823 99.1201 14.7283L99.271 15.7168ZM100.039 15.6592V16.6592H115.167V15.6592V14.6592H100.039V15.6592Z" fill="black" mask="url(#path-14-inside-4_13622_7623)"/>
<mask id="path-16-inside-5_13622_7623" fill="white">
<path d="M142.904 15.6592C145.69 15.6592 147.948 17.9169 147.948 20.7021C147.948 23.4873 145.689 25.7451 142.904 25.7451H132.818V27.7217C133.082 27.7262 133.347 27.7199 133.61 27.7002L139.327 27.2734C141.258 27.1292 142.904 28.6571 142.904 30.5938C142.904 32.5572 141.214 34.0942 139.26 33.9082L132.977 33.3096L132.818 33.3037V35.3369C132.972 35.3499 133.126 35.3584 133.28 35.3584H141.681C143.053 35.3584 144.166 36.4712 144.166 37.8438C144.166 39.5175 142.809 40.874 141.135 40.874H127.983C127.952 40.874 127.921 40.8719 127.891 40.8711C127.852 40.872 127.814 40.875 127.775 40.875C124.99 40.8749 122.733 38.617 122.732 35.832V20.7021C122.732 20.0928 122.84 19.5085 123.038 18.9678C123.095 18.8134 123.159 18.6625 123.229 18.5156C123.725 17.4869 124.56 16.652 125.589 16.1562C125.883 16.0146 126.192 15.9003 126.515 15.8174C126.918 15.7137 127.34 15.6592 127.775 15.6592H142.904Z"/>
</mask>
<path d="M142.904 15.6592C145.69 15.6592 147.948 17.9169 147.948 20.7021C147.948 23.4873 145.689 25.7451 142.904 25.7451H132.818V27.7217C133.082 27.7262 133.347 27.7199 133.61 27.7002L139.327 27.2734C141.258 27.1292 142.904 28.6571 142.904 30.5938C142.904 32.5572 141.214 34.0942 139.26 33.9082L132.977 33.3096L132.818 33.3037V35.3369C132.972 35.3499 133.126 35.3584 133.28 35.3584H141.681C143.053 35.3584 144.166 36.4712 144.166 37.8438C144.166 39.5175 142.809 40.874 141.135 40.874H127.983C127.952 40.874 127.921 40.8719 127.891 40.8711C127.852 40.872 127.814 40.875 127.775 40.875C124.99 40.8749 122.733 38.617 122.732 35.832V20.7021C122.732 20.0928 122.84 19.5085 123.038 18.9678C123.095 18.8134 123.159 18.6625 123.229 18.5156C123.725 17.4869 124.56 16.652 125.589 16.1562C125.883 16.0146 126.192 15.9003 126.515 15.8174C126.918 15.7137 127.34 15.6592 127.775 15.6592H142.904Z" fill="#78FFC6"/>
<path d="M147.948 20.7021L148.948 20.7022V20.7021H147.948ZM132.818 25.7451V24.7451H131.818V25.7451H132.818ZM132.818 27.7217H131.818V28.7047L132.801 28.7215L132.818 27.7217ZM133.61 27.7002L133.536 26.703L133.536 26.703L133.61 27.7002ZM139.327 27.2734L139.402 28.2707L139.402 28.2707L139.327 27.2734ZM142.904 30.5938L143.904 30.5938V30.5938H142.904ZM139.26 33.9082L139.165 34.9037L139.165 34.9037L139.26 33.9082ZM132.977 33.3096L133.071 32.3141L133.043 32.3113L133.014 32.3103L132.977 33.3096ZM132.818 33.3037L132.855 32.3044L131.818 32.266V33.3037H132.818ZM132.818 35.3369H131.818V36.256L132.734 36.3334L132.818 35.3369ZM133.28 35.3584L133.28 36.3584H133.28V35.3584ZM144.166 37.8438L145.166 37.8438V37.8438H144.166ZM127.891 40.8711L127.918 39.8715L127.893 39.8708L127.868 39.8713L127.891 40.8711ZM127.775 40.875L127.775 41.875H127.775V40.875ZM122.732 35.832H121.732V35.8321L122.732 35.832ZM122.732 20.7021L121.732 20.7021V20.7021H122.732ZM123.038 18.9678L123.977 19.3117L123.977 19.3116L123.038 18.9678ZM123.229 18.5156L122.329 18.0815L122.329 18.0815L123.229 18.5156ZM125.589 16.1562L126.023 17.0571L126.023 17.0571L125.589 16.1562ZM126.515 15.8174L126.764 16.7858L126.764 16.7858L126.515 15.8174ZM127.775 15.6592V14.6592H127.775L127.775 15.6592ZM142.904 15.6592V16.6592C145.137 16.6592 146.948 18.4695 146.948 20.7021H147.948H148.948C148.948 17.3644 146.242 14.6592 142.904 14.6592V15.6592ZM147.948 20.7021L146.948 20.7021C146.948 22.9348 145.137 24.7451 142.904 24.7451V25.7451V26.7451C146.242 26.7451 148.948 24.0399 148.948 20.7022L147.948 20.7021ZM142.904 25.7451V24.7451H132.818V25.7451V26.7451H142.904V25.7451ZM132.818 25.7451H131.818V27.7217H132.818H133.818V25.7451H132.818ZM132.818 27.7217L132.801 28.7215C133.093 28.7265 133.388 28.7196 133.685 28.6974L133.61 27.7002L133.536 26.703C133.306 26.7201 133.072 26.7259 132.835 26.7218L132.818 27.7217ZM133.61 27.7002L133.685 28.6974L139.402 28.2707L139.327 27.2734L139.253 26.2762L133.536 26.703L133.61 27.7002ZM139.327 27.2734L139.402 28.2707C140.753 28.1698 141.904 29.2386 141.904 30.5938H142.904H143.904C143.904 28.0757 141.764 26.0887 139.253 26.2762L139.327 27.2734ZM142.904 30.5938L141.904 30.5937C141.904 31.9676 140.722 33.0428 139.354 32.9127L139.26 33.9082L139.165 34.9037C141.707 35.1455 143.904 33.1468 143.904 30.5938L142.904 30.5938ZM139.26 33.9082L139.355 32.9127L133.071 32.3141L132.977 33.3096L132.882 34.3051L139.165 34.9037L139.26 33.9082ZM132.977 33.3096L133.014 32.3103L132.855 32.3044L132.818 33.3037L132.781 34.303L132.94 34.3089L132.977 33.3096ZM132.818 33.3037H131.818V35.3369H132.818H133.818V33.3037H132.818ZM132.818 35.3369L132.734 36.3334C132.906 36.3479 133.09 36.3584 133.28 36.3584L133.28 35.3584L133.28 34.3584C133.162 34.3584 133.037 34.3519 132.903 34.3405L132.818 35.3369ZM133.28 35.3584V36.3584H141.681V35.3584V34.3584H133.28V35.3584ZM141.681 35.3584V36.3584C142.501 36.3584 143.166 37.0235 143.166 37.8438H144.166H145.166C145.166 35.9189 143.605 34.3584 141.681 34.3584V35.3584ZM144.166 37.8438L143.166 37.8437C143.166 38.9648 142.257 39.874 141.135 39.874V40.874V41.874C143.36 41.874 145.166 40.0702 145.166 37.8438L144.166 37.8438ZM141.135 40.874V39.874H127.983V40.874V41.874H141.135V40.874ZM127.983 40.874V39.874C127.989 39.874 127.99 39.8742 127.978 39.8737C127.975 39.8736 127.972 39.8735 127.968 39.8733C127.964 39.8731 127.959 39.8729 127.954 39.8727C127.945 39.8723 127.932 39.8718 127.918 39.8715L127.891 40.8711L127.864 41.8707C127.87 41.8709 127.872 41.871 127.896 41.872C127.915 41.8728 127.947 41.874 127.983 41.874V40.874ZM127.891 40.8711L127.868 39.8713C127.849 39.8718 127.833 39.8724 127.82 39.873C127.808 39.8734 127.794 39.8741 127.788 39.8744C127.77 39.8752 127.77 39.875 127.775 39.875V40.875V41.875C127.819 41.875 127.857 41.8733 127.878 41.8723C127.906 41.8711 127.909 41.8709 127.913 41.8708L127.891 40.8711ZM127.775 40.875L127.775 39.875C125.543 39.8749 123.733 38.0648 123.732 35.8319L122.732 35.832L121.732 35.8321C121.733 39.1692 124.438 41.8749 127.775 41.875L127.775 40.875ZM122.732 35.832H123.732V20.7021H122.732H121.732V35.832H122.732ZM122.732 20.7021L123.732 20.7022C123.732 20.2113 123.819 19.7433 123.977 19.3117L123.038 18.9678L122.099 18.6239C121.861 19.2737 121.732 19.9743 121.732 20.7021L122.732 20.7021ZM123.038 18.9678L123.977 19.3116C124.022 19.1888 124.073 19.0681 124.13 18.9497L123.229 18.5156L122.329 18.0815C122.244 18.257 122.167 18.4379 122.099 18.6239L123.038 18.9678ZM123.229 18.5156L124.13 18.9497C124.528 18.1249 125.198 17.4546 126.023 17.0571L125.589 16.1562L125.155 15.2554C123.922 15.8494 122.923 16.8488 122.329 18.0815L123.229 18.5156ZM125.589 16.1562L126.023 17.0571C126.259 16.9434 126.507 16.852 126.764 16.7858L126.515 15.8174L126.265 14.8489C125.878 14.9486 125.507 15.0859 125.155 15.2554L125.589 16.1562ZM126.515 15.8174L126.764 16.7858C127.085 16.7032 127.424 16.6592 127.775 16.6592L127.775 15.6592L127.775 14.6592C127.256 14.6592 126.75 14.7242 126.265 14.8489L126.515 15.8174ZM127.775 15.6592V16.6592H142.904V15.6592V14.6592H127.775V15.6592Z" fill="black" mask="url(#path-16-inside-5_13622_7623)"/>
<path d="M18.5576 9.5C24.8636 9.50009 30.3113 13.0338 32.9385 18.165H28.4922C24.5714 18.1651 21.3693 21.261 21.3691 25.1084C21.3691 28.8958 24.4718 31.9552 28.3086 32.0498H28.3145L28.4854 32.0518H32.9385C30.3114 37.1832 24.8637 40.7167 18.5576 40.7168C9.67633 40.7168 2.5 33.716 2.5 25.1084C2.50013 16.501 9.67641 9.5 18.5576 9.5Z" fill="#78FFC6" stroke="black"/>
</g>
</g>
<defs>
<filter id="filter0_d_13622_7623" x="0" y="0" width="216" height="45.2173" filterUnits="userSpaceOnUse" color-interpolation-filters="sRGB">
<feFlood flood-opacity="0" result="BackgroundImageFix"/>
<feColorMatrix in="SourceAlpha" type="matrix" values="0 0 0 0 0 0 0 0 0 0 0 0 0 0 0 0 0 0 127 0" result="hardAlpha"/>
<feOffset dx="-2" dy="4"/>
<feComposite in2="hardAlpha" operator="out"/>
<feColorMatrix type="matrix" values="0 0 0 0 0 0 0 0 0 0 0 0 0 0 0 0 0 0 0.25 0"/>
<feBlend mode="normal" in2="BackgroundImageFix" result="effect1_dropShadow_13622_7623"/>
<feBlend mode="normal" in="SourceGraphic" in2="effect1_dropShadow_13622_7623" result="shape"/>
</filter>
<filter id="filter1_d_13622_7623" x="0" y="9" width="216" height="34.2173" filterUnits="userSpaceOnUse" color-interpolation-filters="sRGB">
<feFlood flood-opacity="0" result="BackgroundImageFix"/>
<feColorMatrix in="SourceAlpha" type="matrix" values="0 0 0 0 0 0 0 0 0 0 0 0 0 0 0 0 0 0 127 0" result="hardAlpha"/>
<feOffset dx="-2" dy="2"/>
<feComposite in2="hardAlpha" operator="out"/>
<feColorMatrix type="matrix" values="0 0 0 0 0.733333 0 0 0 0 0.396078 0 0 0 0 1 0 0 0 1 0"/>
<feBlend mode="normal" in2="BackgroundImageFix" result="effect1_dropShadow_13622_7623"/>
<feBlend mode="normal" in="SourceGraphic" in2="effect1_dropShadow_13622_7623" result="shape"/>
</filter>
</defs>
</svg>
