<svg width="393" height="10" viewBox="0 0 393 10" fill="none" xmlns="http://www.w3.org/2000/svg">
<path d="M0 5C9.825 -0.333333 18.0125 -0.333333 24.5625 5C31.1125 10.3333 39.3 10.3333 49.125 5C58.95 -0.333333 67.1375 -0.333333 73.6875 5C80.2375 10.3333 88.425 10.3333 98.25 5C108.075 -0.333333 116.262 -0.333333 122.812 5C129.363 10.3333 137.55 10.3333 147.375 5C157.2 -0.333333 165.387 -0.333333 171.938 5C178.488 10.3333 186.675 10.3333 196.5 5C206.325 -0.333333 214.512 -0.333333 221.062 5C227.613 10.3333 235.8 10.3333 245.625 5C255.45 -0.333333 263.637 -0.333333 270.188 5C276.738 10.3333 284.925 10.3333 294.75 5C304.575 -0.333333 312.762 -0.333333 319.312 5C325.863 10.3333 334.05 10.3333 343.875 5C353.7 -0.333333 361.887 -0.333333 368.438 5C374.988 10.3333 383.175 10.3333 393 5" stroke="#9D9D9D" stroke-width="2"/>
</svg>
