<svg xmlns="http://www.w3.org/2000/svg" version="1.1" xmlns:xlink="http://www.w3.org/1999/xlink" width="512" height="512" x="0" y="0" viewBox="0 0 512 512" style="enable-background:new 0 0 512 512" xml:space="preserve" class=""><g><path d="M229.231 282.769a24 24 0 0 1 0 33.94L81.941 464h116a24 24 0 0 1 0 48H24a24 24 0 0 1-24-24V314.056a24 24 0 0 1 48 0v116l147.29-147.29a24 24 0 0 1 33.941.003zm275.74-275.74A24 24 0 0 0 488 0H314.055a24 24 0 0 0 0 48h116L282.769 195.29a24 24 0 0 0 33.94 33.941L464 81.941v116a24 24 0 0 0 48 0V24a24 24 0 0 0-7.029-16.971z" fill="#e5e5e5" opacity="1" data-original="#000000" class=""></path></g></svg>