<svg xmlns="http://www.w3.org/2000/svg" version="1.1" xmlns:xlink="http://www.w3.org/1999/xlink" width="512" height="512" x="0" y="0" viewBox="0 0 512 512" style="enable-background:new 0 0 512 512" xml:space="preserve" class=""><g><path d="M505.752 6.248c-8.331-8.331-21.839-8.331-30.17 0L320 161.83V64c0-11.782-9.551-21.333-21.333-21.333-11.782 0-21.333 9.551-21.333 21.333v149.333l.001.022c.001.695.037 1.39.105 2.083.031.318.091.627.136.94.054.375.098.75.171 1.122.071.359.17.708.259 1.061.081.322.151.645.248.964.105.346.234.68.356 1.018.114.318.219.639.349.953.131.316.284.618.43.926.152.323.296.649.465.966.158.295.338.575.509.861.186.311.361.626.564.929.211.316.447.613.674.917.19.253.365.513.568.759a21.422 21.422 0 0 0 2.977 2.977c.246.202.506.378.759.568.304.228.601.463.917.674.303.203.618.379.929.564.286.171.566.351.861.509.317.169.643.313.966.465.308.145.611.299.926.43.314.13.635.235.953.349.338.122.672.251 1.018.356.318.096.642.167.964.248.353.089.701.188 1.061.259.372.074.748.118 1.122.171.314.045.622.104.94.136.693.068 1.388.105 2.083.105l.022.001H448c11.782 0 21.333-9.551 21.333-21.333 0-11.782-9.551-21.333-21.333-21.333h-97.83L505.752 36.418c8.331-8.331 8.331-21.838 0-30.17zM234.56 296.562c-.031-.318-.091-.627-.136-.94-.054-.375-.098-.75-.171-1.122-.071-.359-.17-.708-.259-1.061-.081-.322-.151-.645-.248-.964-.105-.346-.234-.68-.356-1.018-.114-.318-.219-.639-.349-.953-.131-.316-.284-.618-.43-.926-.152-.323-.296-.649-.465-.966-.158-.295-.338-.575-.509-.861-.186-.311-.361-.626-.564-.929-.211-.316-.447-.613-.674-.917-.19-.253-.365-.513-.568-.759a21.422 21.422 0 0 0-2.977-2.977c-.246-.202-.506-.378-.759-.568-.304-.228-.601-.463-.917-.674-.303-.203-.618-.379-.929-.564-.286-.171-.566-.351-.861-.509-.317-.169-.643-.313-.966-.465-.308-.145-.611-.299-.926-.43-.314-.13-.635-.235-.953-.349-.338-.122-.672-.251-1.018-.356-.318-.096-.642-.167-.964-.248-.353-.089-.701-.188-1.061-.259-.372-.074-.748-.118-1.122-.171-.314-.045-.622-.104-.94-.136-.7-.069-1.402-.106-2.105-.106H64c-11.782 0-21.333 9.551-21.333 21.333C42.667 310.449 52.218 320 64 320h97.83L6.248 475.582c-8.331 8.331-8.331 21.839 0 30.17 8.331 8.331 21.839 8.331 30.17 0L192 350.17V448c0 11.782 9.551 21.333 21.333 21.333 11.782 0 21.333-9.551 21.333-21.333V298.667a21.148 21.148 0 0 0-.106-2.105z" fill="#e5e5e5" opacity="1" data-original="#000000"></path></g></svg>