<svg xmlns="http://www.w3.org/2000/svg" version="1.1" xmlns:xlink="http://www.w3.org/1999/xlink" width="512" height="512" x="0" y="0" viewBox="0 0 343.089 343.089" style="enable-background:new 0 0 512 512" xml:space="preserve" class=""><g><path d="M276.034 99.628 176.769 2.452a6.793 6.793 0 0 0-10.449 0L67.055 99.628a7.837 7.837 0 0 0 5.225 13.584h47.02v125.91a12.018 12.018 0 0 0 10.449 9.927h83.592c4.18 0 5.224-5.224 5.224-9.927v-125.91h52.245a7.836 7.836 0 0 0 5.224-13.584zM213.34 264.722h-83.592a7.837 7.837 0 0 0 0 15.674h83.592a7.837 7.837 0 0 0 0-15.674zM213.34 296.069h-83.592a7.837 7.837 0 0 0 0 15.674h83.592a7.837 7.837 0 0 0 0-15.674zM213.34 327.415h-83.592a7.837 7.837 0 0 0 0 15.674h83.592a7.837 7.837 0 0 0 0-15.674z" fill="#78ffc6" opacity="1" data-original="#000000" class=""></path></g></svg>