<svg width="16" height="16" viewBox="0 0 16 16" fill="none" xmlns="http://www.w3.org/2000/svg">
<path fill-rule="evenodd" clip-rule="evenodd" d="M8.76421 0.897574C8.36486 0.427371 7.63918 0.427371 7.23983 0.897574L1.60692 7.52982C1.05523 8.17939 1.51689 9.17717 2.36911 9.17717H5V15V16H6H10H11V15V9.17717H13.6349C14.4872 9.17717 14.9488 8.17939 14.3971 7.52982L8.76421 0.897574ZM6 9.17717H10V15H6V9.17717Z" fill="url(#paint0_linear_9049_5115)"/>
<rect x="6" y="8" width="4" height="7" fill="black"/>
<rect x="6" y="8" width="4" height="7" stroke="black"/>
<path d="M8 0.943359L14.0622 8.0026H1.93782L8 0.943359Z" fill="black"/>
<defs>
<linearGradient id="paint0_linear_9049_5115" x1="1.28146" y1="8" x2="14.3089" y2="8.01726" gradientUnits="userSpaceOnUse">
<stop stop-color="#78FFC6"/>
</linearGradient>
</defs>
</svg>
