<svg width="33" height="42" viewBox="0 0 33 42" fill="none" xmlns="http://www.w3.org/2000/svg">
<path d="M25.059 35.7308L22.898 39.7781L17.3833 31.2862L24.9313 26.3845L30.446 34.8764L25.8697 35.2043L25.319 35.2438L25.059 35.7308Z" fill="#BB65FF" stroke="#BB65FF" stroke-width="2"/>
<path d="M6.3479 35.2032L1.77152 34.8752L7.28622 26.3833L14.8343 31.2851L9.31955 39.777L7.15854 35.7296L6.89853 35.2427L6.3479 35.2032Z" fill="#BB65FF" stroke="#BB65FF" stroke-width="2"/>
<circle cx="16" cy="16" r="16" fill="#FFE25B"/>
<circle cx="16" cy="16" r="16" fill="#FFE25B"/>
<circle cx="16" cy="16" r="16" fill="#BB65FF"/>
<circle cx="16.4297" cy="16" r="14" fill="#FFE25B"/>
<circle cx="16.4297" cy="16" r="14" fill="#FFE25B"/>
<circle cx="16.4297" cy="16" r="14" fill="black"/>
<path d="M19.5144 19.52V21H13.1144V19.52H15.4584V12.776C15.4584 12.5093 15.4664 12.2347 15.4824 11.952L13.8184 13.344C13.7224 13.4187 13.6264 13.4667 13.5304 13.488C13.4397 13.504 13.3517 13.504 13.2664 13.488C13.1864 13.472 13.1144 13.4453 13.0504 13.408C12.9864 13.3653 12.9384 13.32 12.9064 13.272L12.2824 12.416L15.8104 9.416H17.4344V19.52H19.5144Z" fill="#BB65FF"/>
</svg>
