<svg width="40" height="42" viewBox="0 0 40 42" fill="none" xmlns="http://www.w3.org/2000/svg">
<path d="M20 30.2676L25.032 26.9997L32.0141 37.7513L27.8445 36.8388L26.9821 41.0191L20 30.2676Z" fill="url(#paint0_linear_9038_6819)"/>
<path d="M14.9844 27L20.0164 30.2678L13.0343 41.0194L12.1719 36.839L8.00225 37.7515L14.9844 27Z" fill="url(#paint1_linear_9038_6819)"/>
<circle cx="20" cy="16" r="16" fill="url(#paint2_linear_9038_6819)"/>
<circle cx="20" cy="16" r="15" fill="black"/>
<path d="M23.6394 20.52V22H17.2394V20.52H19.5834V13.776C19.5834 13.5093 19.5914 13.2347 19.6074 12.952L17.9434 14.344C17.8474 14.4187 17.7514 14.4667 17.6554 14.488C17.5647 14.504 17.4767 14.504 17.3914 14.488C17.3114 14.472 17.2394 14.4453 17.1754 14.408C17.1114 14.3653 17.0634 14.32 17.0314 14.272L16.4074 13.416L19.9354 10.416H21.5594V20.52H23.6394Z" fill="#E5E5E5"/>
<defs>
<linearGradient id="paint0_linear_9038_6819" x1="22.516" y1="28.6337" x2="29.4981" y2="39.3852" gradientUnits="userSpaceOnUse">
<stop stop-color="#FF78A9"/>
<stop offset="0.33" stop-color="#BB65FF"/>
<stop offset="0.67" stop-color="#78FFC6"/>
<stop offset="1" stop-color="#FFE25B"/>
</linearGradient>
<linearGradient id="paint1_linear_9038_6819" x1="17.5004" y1="28.6339" x2="10.5183" y2="39.3854" gradientUnits="userSpaceOnUse">
<stop stop-color="#FF78A9"/>
<stop offset="0.33" stop-color="#BB65FF"/>
<stop offset="0.67" stop-color="#78FFC6"/>
<stop offset="1" stop-color="#FFE25B"/>
</linearGradient>
<linearGradient id="paint2_linear_9038_6819" x1="20" y1="0" x2="20" y2="32" gradientUnits="userSpaceOnUse">
<stop stop-color="#FFE25B"/>
<stop offset="0.15" stop-color="#78FFC6"/>
<stop offset="0.505" stop-color="#0ABEFF"/>
<stop offset="0.85" stop-color="#8347B3"/>
<stop offset="1" stop-color="#FF78A9"/>
</linearGradient>
</defs>
</svg>
