<svg width="33" height="42" viewBox="0 0 33 42" fill="none" xmlns="http://www.w3.org/2000/svg">
<path d="M25.059 35.7308L22.898 39.7781L17.3833 31.2862L24.9313 26.3845L30.446 34.8764L25.8697 35.2043L25.319 35.2438L25.059 35.7308Z" fill="#6A6A6A" stroke="#6A6A6A" stroke-width="2"/>
<path d="M6.3479 35.2032L1.77152 34.8752L7.28622 26.3833L14.8343 31.2851L9.31955 39.777L7.15854 35.7296L6.89853 35.2427L6.3479 35.2032Z" fill="#6A6A6A" stroke="#6A6A6A" stroke-width="2"/>
<circle cx="16" cy="16" r="16" fill="#FFE25B"/>
<circle cx="16" cy="16" r="16" fill="#FFE25B"/>
<circle cx="16" cy="16" r="16" fill="#6A6A6A"/>
<circle cx="16.4297" cy="16" r="14" fill="#FFE25B"/>
<circle cx="16.4297" cy="16" r="14" fill="#FFE25B"/>
<circle cx="16.4297" cy="16" r="14" fill="black"/>
<path d="M19.0824 19.16C19.2957 19.16 19.4637 19.2213 19.5864 19.344C19.7144 19.4613 19.7784 19.6187 19.7784 19.816V21H11.8424V20.344C11.8424 20.2107 11.869 20.072 11.9224 19.928C11.981 19.7787 12.0717 19.6453 12.1944 19.528L15.7064 16.008C15.9997 15.7093 16.261 15.424 16.4904 15.152C16.725 14.88 16.9197 14.6107 17.0744 14.344C17.229 14.0773 17.3464 13.808 17.4264 13.536C17.5117 13.2587 17.5544 12.968 17.5544 12.664C17.5544 12.3867 17.5144 12.144 17.4344 11.936C17.3544 11.7227 17.2397 11.544 17.0904 11.4C16.9464 11.256 16.7704 11.1493 16.5624 11.08C16.3597 11.0053 16.1304 10.968 15.8744 10.968C15.6397 10.968 15.421 11.0027 15.2184 11.072C15.021 11.136 14.845 11.2293 14.6904 11.352C14.5357 11.4693 14.405 11.608 14.2984 11.768C14.1917 11.928 14.1117 12.104 14.0584 12.296C13.9677 12.5413 13.8504 12.704 13.7064 12.784C13.5624 12.864 13.3544 12.8827 13.0824 12.84L12.0424 12.656C12.1224 12.1013 12.277 11.616 12.5064 11.2C12.7357 10.7787 13.021 10.4293 13.3624 10.152C13.709 9.86933 14.1037 9.65867 14.5464 9.52C14.9944 9.376 15.4744 9.304 15.9864 9.304C16.5197 9.304 17.0077 9.384 17.4504 9.544C17.893 9.69867 18.2717 9.92 18.5864 10.208C18.901 10.496 19.1464 10.8427 19.3224 11.248C19.4984 11.6533 19.5864 12.104 19.5864 12.6C19.5864 13.0267 19.5224 13.4213 19.3944 13.784C19.2717 14.1467 19.1037 14.4933 18.8904 14.824C18.6824 15.1547 18.437 15.4747 18.1544 15.784C17.8717 16.0933 17.5757 16.408 17.2664 16.728L14.6584 19.392C14.909 19.3173 15.157 19.2613 15.4024 19.224C15.653 19.1813 15.8904 19.16 16.1144 19.16H19.0824Z" fill="#E5E5E5"/>
</svg>
