<svg width="33" height="42" viewBox="0 0 33 42" fill="none" xmlns="http://www.w3.org/2000/svg">
<path d="M25.059 35.7308L22.898 39.7781L17.3833 31.2862L24.9313 26.3845L30.446 34.8764L25.8697 35.2043L25.319 35.2438L25.059 35.7308Z" fill="black" stroke="#6A6A6A" stroke-width="2"/>
<path d="M6.3479 35.2032L1.77152 34.8752L7.28622 26.3833L14.8343 31.2851L9.31955 39.777L7.15854 35.7296L6.89853 35.2427L6.3479 35.2032Z" fill="black" stroke="#6A6A6A" stroke-width="2"/>
<circle cx="16" cy="16" r="16" fill="#FFE25B"/>
<circle cx="16" cy="16" r="16" fill="#FFE25B"/>
<circle cx="16" cy="16" r="16" fill="#6A6A6A"/>
<circle cx="16.4297" cy="16" r="14" fill="#FFE25B"/>
<circle cx="16.4297" cy="16" r="14" fill="#FFE25B"/>
<circle cx="16.4297" cy="16" r="14" fill="black"/>
<path d="M12.0984 12.656C12.1784 12.1013 12.333 11.616 12.5624 11.2C12.7917 10.7787 13.077 10.4293 13.4184 10.152C13.765 9.86933 14.1597 9.65867 14.6024 9.52C15.0504 9.376 15.5304 9.304 16.0424 9.304C16.5757 9.304 17.0557 9.38133 17.4824 9.536C17.9144 9.68533 18.2824 9.896 18.5864 10.168C18.8904 10.4347 19.1224 10.7493 19.2824 11.112C19.4477 11.4747 19.5304 11.8667 19.5304 12.288C19.5304 12.656 19.4877 12.9813 19.4024 13.264C19.3224 13.5413 19.205 13.784 19.0504 13.992C18.8957 14.2 18.7037 14.376 18.4744 14.52C18.245 14.664 17.9864 14.784 17.6984 14.88C18.3917 15.0987 18.909 15.432 19.2504 15.88C19.5917 16.328 19.7624 16.8907 19.7624 17.568C19.7624 18.144 19.6557 18.6533 19.4424 19.096C19.229 19.5387 18.941 19.912 18.5784 20.216C18.2157 20.5147 17.7944 20.7413 17.3144 20.896C16.8397 21.0507 16.3357 21.128 15.8024 21.128C15.221 21.128 14.7144 21.0613 14.2824 20.928C13.8504 20.7947 13.4744 20.5973 13.1544 20.336C12.8344 20.0747 12.5624 19.7547 12.3384 19.376C12.1144 18.9973 11.9224 18.56 11.7624 18.064L12.6344 17.704C12.8637 17.608 13.077 17.584 13.2744 17.632C13.477 17.6747 13.6237 17.7813 13.7144 17.952C13.8104 18.1387 13.9144 18.3227 14.0264 18.504C14.1437 18.6853 14.2824 18.848 14.4424 18.992C14.6024 19.1307 14.789 19.2453 15.0024 19.336C15.221 19.4213 15.4797 19.464 15.7784 19.464C16.1144 19.464 16.4077 19.4107 16.6584 19.304C16.909 19.192 17.117 19.048 17.2824 18.872C17.453 18.696 17.5784 18.5013 17.6584 18.288C17.7437 18.0693 17.7864 17.8507 17.7864 17.632C17.7864 17.3547 17.757 17.104 17.6984 16.88C17.6397 16.6507 17.517 16.456 17.3304 16.296C17.1437 16.136 16.8744 16.0107 16.5224 15.92C16.1757 15.8293 15.709 15.784 15.1224 15.784V14.376C15.6077 14.3707 16.0104 14.3253 16.3304 14.24C16.6504 14.1547 16.9037 14.0373 17.0904 13.888C17.2824 13.7333 17.4157 13.5493 17.4904 13.336C17.565 13.1227 17.6024 12.888 17.6024 12.632C17.6024 12.088 17.4504 11.6747 17.1464 11.392C16.8424 11.1093 16.437 10.968 15.9304 10.968C15.6957 10.968 15.4797 11.0027 15.2824 11.072C15.085 11.136 14.9064 11.2293 14.7464 11.352C14.5917 11.4693 14.461 11.608 14.3544 11.768C14.2477 11.928 14.1677 12.104 14.1144 12.296C14.0237 12.5413 13.9037 12.704 13.7544 12.784C13.6104 12.864 13.405 12.8827 13.1384 12.84L12.0984 12.656Z" fill="#E5E5E5"/>
</svg>
