<svg xmlns="http://www.w3.org/2000/svg" id="back" x="0" y="0" version="1.1" viewBox="0 0 29 29" xml:space="preserve">
    <path fill="white" d="M14.5 27.065a12.465 12.465 0 0 1-8.839-3.655c-4.874-4.874-4.874-12.804 0-17.678 2.361-2.361 5.5-3.662 8.839-3.662s6.478 1.3 8.839 3.662c4.874 4.874 4.874 12.804 0 17.678a12.465 12.465 0 0 1-8.839 3.655zm-7.425-5.069c4.094 4.094 10.756 4.094 14.85 0C23.908 20.012 25 17.375 25 14.571s-1.092-5.441-3.075-7.425S17.305 4.07 14.5 4.07 9.059 5.163 7.075 7.146 4 11.766 4 14.571s1.092 5.441 3.075 7.425z"></path>
    <path fill="white" d="M16.798 20.167a.997.997 0 0 1-.707-.293l-4.596-4.596a.999.999 0 0 1 0-1.414l4.596-4.596a.999.999 0 1 1 1.414 1.414l-3.889 3.889 3.889 3.889a.999.999 0 0 1-.707 1.707z"></path>
</svg>
