<svg width="624" height="586" viewBox="0 0 624 586" fill="none" xmlns="http://www.w3.org/2000/svg">
<path d="M275.93 7.85832L276.365 8.10229L276.821 7.90255L289.477 2.3634L300.584 10.1712L300.993 10.4588L301.469 10.304L314.692 5.99923L324.835 14.8153L325.215 15.1459L325.707 15.0369L339.35 12.0144L348.417 21.7392L348.765 22.1118L349.27 22.0498L363.18 20.3424L371.073 30.8664L371.383 31.2798L371.9 31.266L385.921 30.8917L392.555 42.0966L392.823 42.5488L393.347 42.5848L407.324 43.5458L412.629 55.3067L412.849 55.7946L413.377 55.8821L427.154 58.1655L431.074 70.352L431.242 70.8715L431.769 71.012L445.194 74.59L447.691 87.0679L447.8 87.6136L448.321 87.8085L461.247 92.6386L462.296 105.272L462.343 105.837L462.852 106.087L475.138 112.113L474.731 124.765L474.712 125.342L475.202 125.647L486.716 132.801L484.859 145.335L484.773 145.915L485.237 146.273L495.853 154.474L492.569 166.757L492.415 167.33L492.845 167.739L502.452 176.896L497.776 188.796L497.557 189.353L497.944 189.809L506.44 199.821L500.423 211.212L500.142 211.743L500.479 212.24L507.774 223L500.479 233.76L500.142 234.257L500.423 234.788L506.44 246.179L497.944 256.191L497.557 256.647L497.776 257.204L502.452 269.104L492.845 278.261L492.415 278.671L492.569 279.243L495.853 291.526L485.237 299.727L484.773 300.085L484.859 300.665L486.716 313.199L475.202 320.353L474.712 320.658L474.731 321.235L475.138 333.887L462.852 339.913L462.343 340.163L462.296 340.728L461.247 353.361L448.321 358.192L447.8 358.386L447.691 358.932L445.194 371.41L431.769 374.988L431.242 375.129L431.074 375.648L427.154 387.835L413.377 390.118L412.849 390.205L412.629 390.693L407.324 402.454L393.347 403.415L392.823 403.451L392.555 403.903L385.921 415.108L371.9 414.734L371.383 414.72L371.073 415.134L363.18 425.658L349.27 423.95L348.765 423.888L348.417 424.261L339.35 433.986L325.707 430.963L325.215 430.854L324.835 431.185L314.692 440.001L301.469 435.696L300.993 435.541L300.584 435.829L289.477 443.637L276.821 438.097L276.365 437.898L275.93 438.142L263.982 444.853L252.035 438.142L251.6 437.898L251.144 438.097L238.488 443.637L227.381 435.829L226.972 435.541L226.496 435.696L213.273 440.001L203.13 431.185L202.75 430.854L202.258 430.963L188.615 433.986L179.548 424.261L179.2 423.888L178.694 423.95L164.785 425.658L156.892 415.134L156.581 414.72L156.065 414.734L142.043 415.108L135.409 403.903L135.142 403.451L134.618 403.415L120.641 402.454L115.336 390.693L115.116 390.205L114.588 390.118L100.811 387.835L96.8904 375.648L96.7233 375.129L96.196 374.988L82.7705 371.41L80.2743 358.932L80.1651 358.386L79.6437 358.192L66.7174 353.361L65.6689 340.728L65.622 340.163L65.1127 339.913L52.8265 333.887L53.2342 321.235L53.2528 320.658L52.7625 320.353L41.2492 313.199L43.1062 300.665L43.1921 300.085L42.7283 299.727L32.1115 291.526L35.3962 279.243L35.5494 278.671L35.1201 278.261L25.5129 269.104L30.189 257.204L30.4078 256.647L30.0208 256.191L21.5248 246.179L27.5423 234.788L27.8229 234.257L27.4858 233.76L20.1906 223L27.4858 212.24L27.8229 211.743L27.5423 211.212L21.5248 199.821L30.0208 189.809L30.4078 189.353L30.189 188.796L25.5129 176.896L35.1201 167.739L35.5494 167.33L35.3962 166.757L32.1116 154.474L42.7283 146.273L43.1921 145.915L43.1062 145.335L41.2492 132.801L52.7625 125.647L53.2528 125.342L53.2342 124.765L52.8265 112.113L65.1127 106.087L65.622 105.837L65.6689 105.272L66.7174 92.6386L79.6437 87.8085L80.1651 87.6136L80.2743 87.0679L82.7705 74.59L96.196 71.012L96.7233 70.8715L96.8904 70.352L100.811 58.1655L114.588 55.8821L115.116 55.7946L115.336 55.3067L120.641 43.5458L134.618 42.5848L135.142 42.5488L135.409 42.0966L142.043 30.8917L156.065 31.266L156.581 31.2798L156.892 30.8664L164.785 20.3424L178.694 22.0498L179.2 22.1118L179.548 21.7392L188.615 12.0144L202.258 15.0369L202.75 15.1459L203.13 14.8153L213.273 5.99923L226.496 10.304L226.972 10.4588L227.381 10.1712L238.488 2.3634L251.144 7.90255L251.6 8.10229L252.035 7.85832L263.982 1.14698L275.93 7.85832Z" stroke="#FFE25B" stroke-width="2"/>
<path d="M303.483 416.501L361.483 397.271L413.221 386.666L441.483 350.501L468.286 312.501L484.483 263.102L492.753 223.001L484.483 153.001L454 106.001L419 78.5L433.196 45L523.088 142.581L529.983 258.001L508.983 312.501L473.916 386.666L413.221 434.001L368.483 449.93L287.001 456.001L215.892 449.93L141.483 416.501L86.9831 397.271L20.9994 346.501L70.5001 327.501L79.9831 336.138L152.713 371.675L209.783 397.271L257.568 424.158L303.483 416.501Z" fill="black"/>
<path d="M433.198 373.626L413.221 386.666M413.221 386.666L361.483 397.271L303.483 416.501L257.568 424.158L209.783 397.271L152.713 371.675L79.9831 336.138L70.5001 327.501L20.9994 346.501L86.9831 397.271L141.483 416.501L215.892 449.93L287.001 456.001L368.483 449.93L413.221 434.001L473.916 386.666L508.983 312.501L529.983 258.001L523.088 142.581L433.196 45L419 78.5L454 106.001L484.483 153.001L492.753 223.001L484.483 263.102L468.286 312.501L441.483 350.501L413.221 386.666Z" stroke="black"/>
</svg>
