<svg width="598" height="537" viewBox="0 0 598 537" fill="none" xmlns="http://www.w3.org/2000/svg">
<path d="M364.948 98.8583L365.382 99.1023L365.839 98.9025L378.495 93.3634L389.602 101.171L390.011 101.459L390.486 101.304L403.71 96.9992L413.852 105.815L414.233 106.146L414.725 106.037L428.367 103.014L437.435 112.739L437.782 113.112L438.288 113.05L452.198 111.342L460.091 121.866L460.401 122.28L460.918 122.266L474.939 121.892L481.573 133.097L481.841 133.549L482.365 133.585L496.342 134.546L501.646 146.307L501.866 146.795L502.394 146.882L516.172 149.166L520.092 161.352L520.259 161.871L520.786 162.012L534.212 165.59L536.708 178.068L536.817 178.614L537.339 178.808L550.265 183.639L551.313 196.272L551.36 196.837L551.87 197.087L564.156 203.113L563.748 215.765L563.73 216.342L564.22 216.647L575.733 223.801L573.876 236.335L573.79 236.915L574.254 237.273L584.871 245.474L581.586 257.757L581.433 258.329L581.862 258.739L591.47 267.896L586.793 279.796L586.575 280.353L586.962 280.809L595.458 290.821L589.44 302.212L589.16 302.743L589.497 303.24L596.792 314L589.497 324.76L589.16 325.257L589.44 325.788L595.458 337.179L586.962 347.191L586.575 347.647L586.793 348.204L591.47 360.104L581.862 369.261L581.433 369.671L581.586 370.243L584.871 382.526L574.254 390.727L573.79 391.085L573.876 391.665L575.733 404.199L564.22 411.353L563.73 411.658L563.748 412.235L564.156 424.887L551.87 430.913L551.36 431.163L551.313 431.728L550.265 444.361L537.339 449.192L536.817 449.386L536.708 449.932L534.212 462.41L520.786 465.988L520.259 466.129L520.092 466.648L516.172 478.835L502.394 481.118L501.866 481.205L501.646 481.693L496.342 493.454L482.365 494.415L481.841 494.451L481.573 494.903L474.939 506.108L460.918 505.734L460.401 505.72L460.091 506.134L452.198 516.658L438.288 514.95L437.782 514.888L437.435 515.261L428.367 524.986L414.725 521.963L414.233 521.854L413.852 522.185L403.71 531.001L390.486 526.696L390.011 526.541L389.602 526.829L378.495 534.637L365.839 529.097L365.382 528.898L364.948 529.142L353 535.853L341.052 529.142L340.618 528.898L340.161 529.097L327.505 534.637L316.398 526.829L315.989 526.541L315.514 526.696L302.29 531.001L292.148 522.185L291.767 521.854L291.275 521.963L277.633 524.986L268.565 515.261L268.218 514.888L267.712 514.95L253.802 516.658L245.909 506.134L245.599 505.72L245.082 505.734L231.061 506.108L224.427 494.903L224.159 494.451L223.635 494.415L209.658 493.454L204.354 481.693L204.134 481.205L203.606 481.118L189.828 478.835L185.908 466.648L185.741 466.129L185.214 465.988L171.788 462.41L169.292 449.932L169.183 449.386L168.661 449.192L155.735 444.361L154.687 431.728L154.64 431.163L154.13 430.913L141.844 424.887L142.252 412.235L142.27 411.658L141.78 411.353L130.267 404.199L132.124 391.665L132.21 391.085L131.746 390.727L121.129 382.526L124.414 370.243L124.567 369.671L124.138 369.261L114.53 360.104L119.207 348.204L119.425 347.647L119.038 347.191L110.542 337.179L116.56 325.788L116.84 325.257L116.503 324.76L109.208 314L116.503 303.24L116.84 302.743L116.56 302.212L110.542 290.821L119.038 280.809L119.425 280.353L119.207 279.796L114.53 267.896L124.138 258.739L124.567 258.329L124.414 257.757L121.129 245.474L131.746 237.273L132.21 236.915L132.124 236.335L130.267 223.801L141.78 216.647L142.27 216.342L142.252 215.765L141.844 203.113L154.13 197.087L154.64 196.837L154.687 196.272L155.735 183.639L168.661 178.808L169.183 178.614L169.292 178.068L171.788 165.59L185.214 162.012L185.741 161.871L185.908 161.352L189.828 149.166L203.606 146.882L204.134 146.795L204.354 146.307L209.658 134.546L223.635 133.585L224.159 133.549L224.427 133.097L231.061 121.892L245.082 122.266L245.599 122.28L245.909 121.866L253.802 111.342L267.712 113.05L268.218 113.112L268.565 112.739L277.632 103.014L291.275 106.037L291.767 106.146L292.148 105.815L302.29 96.9992L315.514 101.304L315.989 101.459L316.398 101.171L327.505 93.3634L340.161 98.9025L340.618 99.1023L341.052 98.8583L353 92.147L364.948 98.8583Z" stroke="#78FFC6" stroke-width="2"/>
<path d="M341 62L360.499 121.498L300 127.499L208.819 159.681L163.957 239.693L163.957 377.999L237.998 460.999L250 470.999L237.997 531.999L155.497 476.999L85.9968 360.499L85.9989 256.999L125.999 191.999L163.957 127.499L341 62Z" fill="black" stroke="black"/>
</svg>
