<svg width="565" height="564" viewBox="0 0 565 564" fill="none" xmlns="http://www.w3.org/2000/svg">
<path d="M234.332 515.159L233.897 514.916L233.441 515.116L220.789 520.664L209.676 512.864L209.267 512.577L208.792 512.732L195.571 517.047L185.422 508.238L185.042 507.908L184.55 508.017L170.909 511.05L161.835 501.331L161.487 500.959L160.981 501.021L147.073 502.739L139.172 492.221L138.861 491.808L138.345 491.822L124.324 492.206L117.682 481.006L117.414 480.554L116.889 480.519L102.912 479.568L97.5985 467.811L97.3781 467.323L96.85 467.236L83.071 464.963L79.1419 452.779L78.9744 452.26L78.447 452.119L65.0189 448.551L62.5135 436.075L62.404 435.53L61.8825 435.335L48.9526 430.514L47.8949 417.882L47.8476 417.317L47.3381 417.067L35.0475 411.05L35.446 398.398L35.4641 397.821L34.9736 397.516L23.4551 390.371L25.303 377.835L25.3884 377.256L24.9244 376.898L14.3017 368.704L17.5773 356.419L17.7301 355.846L17.3005 355.437L7.68656 346.287L12.3541 334.384L12.5724 333.827L12.1851 333.371L3.68176 323.365L9.69099 311.969L9.97118 311.438L9.63372 310.941L2.33067 300.187L9.61801 289.422L9.95475 288.925L9.67378 288.394L3.64792 277.007L12.1366 266.988L12.5233 266.532L12.3041 265.976L7.61925 254.079L17.2198 244.915L17.6489 244.505L17.4952 243.932L14.2016 231.652L24.8123 223.443L25.2759 223.085L25.1896 222.505L23.3234 209.972L34.8315 202.81L35.3215 202.505L35.3025 201.928L34.8856 189.276L47.1674 183.241L47.6765 182.991L47.7231 182.426L48.7623 169.792L61.6851 164.952L62.2063 164.757L62.3151 164.211L64.8022 151.731L78.2251 148.143L78.7523 148.003L78.919 147.483L82.8303 135.294L96.606 133L97.1339 132.912L97.3536 132.424L102.65 120.659L116.626 119.688L117.15 119.652L117.417 119.2L124.043 107.99L138.065 108.354L138.582 108.367L138.891 107.954L146.777 97.4239L160.688 99.121L161.194 99.1827L161.541 98.8098L170.601 89.0784L184.246 92.091L184.738 92.1996L185.118 91.8688L195.254 83.0453L208.481 87.3404L208.957 87.4949L209.366 87.207L220.467 79.391L233.127 84.921L233.583 85.1204L234.017 84.8761L245.96 78.156L257.913 84.8586L258.348 85.1023L258.804 84.9022L271.456 79.3538L282.569 87.1535L282.978 87.4408L283.453 87.2857L296.674 82.9713L306.823 91.7799L307.203 92.1102L307.695 92.0009L321.336 88.9684L330.41 98.6865L330.758 99.059L331.264 98.9965L345.172 97.2791L353.073 107.797L353.383 108.21L353.9 108.196L367.921 107.812L374.563 119.012L374.831 119.464L375.356 119.499L389.333 120.45L394.646 132.207L394.867 132.695L395.395 132.782L409.174 135.055L413.103 147.239L413.27 147.758L413.798 147.899L427.226 151.467L429.731 163.943L429.841 164.488L430.362 164.683L443.292 169.504L444.35 182.136L444.397 182.701L444.907 182.951L457.197 188.968L456.799 201.62L456.781 202.197L457.271 202.502L468.79 209.647L466.942 222.183L466.856 222.762L467.32 223.12L477.943 231.313L474.668 243.599L474.515 244.172L474.944 244.581L484.558 253.731L479.891 265.634L479.672 266.191L480.06 266.647L488.563 276.653L482.554 288.048L482.274 288.58L482.611 289.077L489.914 299.831L482.627 310.596L482.29 311.093L482.571 311.624L488.597 323.011L480.108 333.03L479.722 333.486L479.941 334.042L484.626 345.939L475.025 355.103L474.596 355.513L474.75 356.086L478.043 368.366L467.432 376.575L466.969 376.933L467.055 377.513L468.921 390.046L457.413 397.208L456.923 397.513L456.942 398.09L457.359 410.741L445.077 416.777L444.568 417.027L444.522 417.592L443.483 430.226L430.56 435.066L430.039 435.261L429.93 435.807L427.443 448.287L414.02 451.874L413.493 452.015L413.326 452.535L409.415 464.724L395.639 467.018L395.111 467.106L394.891 467.594L389.595 479.358L375.619 480.33L375.095 480.366L374.827 480.818L368.202 492.028L354.18 491.664L353.663 491.651L353.353 492.064L345.468 502.594L331.557 500.897L331.051 500.835L330.704 501.208L321.644 510.94L307.999 507.927L307.507 507.818L307.127 508.149L296.99 516.973L283.764 512.678L283.288 512.523L282.879 512.811L271.778 520.627L259.118 515.097L258.662 514.898L258.227 515.142L246.284 521.862L234.332 515.159Z" stroke="#FFE25B" stroke-width="2"/>
<path d="M460.926 393.5L418.001 432.5L325.502 491L317.042 535L468.604 465.5L497.001 375L509.001 302L486.502 216.5L437.002 151.5L414.002 120.5L378.502 101.328L317.042 80.2641L255.116 69.5062L199.449 71.4302L115.651 110.774L57.2276 145.828L89.1509 178.828L126.149 130.328L199.449 101.328L292.62 94.0512L339.307 116.114L391.151 145.828L425.151 184.382L468.604 241L473.502 317.5L460.926 393.5Z" fill="black" stroke="black"/>
</svg>
