<svg width="245" height="226" viewBox="0 0 245 226" fill="none" xmlns="http://www.w3.org/2000/svg">
<g filter="url(#filter0_d_79_6)">
<ellipse cx="122.481" cy="112.772" rx="93.2305" ry="43.7862" transform="rotate(16.931 122.481 112.772)" fill="#FFE25B"/>
<ellipse cx="122.481" cy="112.772" rx="93.2305" ry="43.7862" transform="rotate(16.931 122.481 112.772)" fill="#FFE25B"/>
<ellipse cx="122.481" cy="112.772" rx="93.2305" ry="43.7862" transform="rotate(16.931 122.481 112.772)" fill="#FFE25B"/>
<ellipse cx="122.481" cy="112.772" rx="93.2305" ry="43.7862" transform="rotate(16.931 122.481 112.772)" fill="#78FFC6"/>
</g>
<ellipse cx="123.232" cy="111.135" rx="52.8784" ry="24.8346" transform="rotate(13.3783 123.232 111.135)" fill="#FFE25B"/>
<ellipse cx="123.232" cy="111.135" rx="52.8784" ry="24.8346" transform="rotate(13.3783 123.232 111.135)" fill="#FFE25B"/>
<ellipse cx="123.232" cy="111.135" rx="52.8784" ry="24.8346" transform="rotate(13.3783 123.232 111.135)" fill="#FFE25B"/>
<ellipse cx="123.232" cy="111.135" rx="52.8784" ry="24.8346" transform="rotate(13.3783 123.232 111.135)" fill="black"/>
<defs>
<filter id="filter0_d_79_6" x="27.373" y="60.8486" width="192.217" height="111.847" filterUnits="userSpaceOnUse" color-interpolation-filters="sRGB">
<feFlood flood-opacity="0" result="BackgroundImageFix"/>
<feColorMatrix in="SourceAlpha" type="matrix" values="0 0 0 0 0 0 0 0 0 0 0 0 0 0 0 0 0 0 127 0" result="hardAlpha"/>
<feMorphology radius="2" operator="dilate" in="SourceAlpha" result="effect1_dropShadow_79_6"/>
<feOffset dx="1" dy="4"/>
<feGaussianBlur stdDeviation="2"/>
<feComposite in2="hardAlpha" operator="out"/>
<feColorMatrix type="matrix" values="0 0 0 0 0.733333 0 0 0 0 0.396078 0 0 0 0 1 0 0 0 1 0"/>
<feBlend mode="normal" in2="BackgroundImageFix" result="effect1_dropShadow_79_6"/>
<feBlend mode="normal" in="SourceGraphic" in2="effect1_dropShadow_79_6" result="shape"/>
</filter>
</defs>
</svg>
