<svg width="490" height="447" viewBox="0 0 490 447" fill="none" xmlns="http://www.w3.org/2000/svg">
<path d="M256.948 8.85688L257.382 9.10084L257.839 8.90111L270.495 3.36196L281.602 11.1698L282.011 11.4574L282.486 11.3026L295.71 6.99779L305.852 15.8139L306.233 16.1445L306.725 16.0355L320.367 13.0129L329.435 22.7377L329.782 23.1104L330.288 23.0483L344.198 21.341L352.091 31.865L352.401 32.2784L352.918 32.2646L366.939 31.8902L373.573 43.0952L373.841 43.5473L374.365 43.5834L388.342 44.5444L393.646 56.3053L393.866 56.7932L394.394 56.8807L408.172 59.1641L412.092 71.3505L412.259 71.87L412.786 72.0106L426.212 75.5885L428.708 88.0664L428.817 88.6122L429.339 88.807L442.265 93.6372L443.313 106.27L443.36 106.836L443.87 107.086L456.156 113.112L455.748 125.764L455.73 126.341L456.22 126.645L467.733 133.799L465.876 146.333L465.79 146.913L466.254 147.271L476.871 155.472L473.586 167.755L473.433 168.328L473.862 168.737L483.47 177.894L478.793 189.795L478.575 190.351L478.962 190.807L487.458 200.82L481.44 212.211L481.16 212.742L481.497 213.239L488.792 223.999L481.497 234.758L481.16 235.255L481.44 235.786L487.458 247.177L478.962 257.19L478.575 257.646L478.793 258.203L483.47 270.103L473.862 279.26L473.433 279.669L473.586 280.242L476.871 292.525L466.254 300.726L465.79 301.084L465.876 301.664L467.733 314.198L456.22 321.352L455.73 321.657L455.748 322.233L456.156 334.885L443.87 340.912L443.36 341.161L443.313 341.727L442.265 354.36L429.339 359.19L428.817 359.385L428.708 359.931L426.212 372.409L412.786 375.987L412.259 376.127L412.092 376.647L408.172 388.833L394.394 391.116L393.866 391.204L393.646 391.692L388.342 403.453L374.365 404.414L373.841 404.45L373.573 404.902L366.939 416.107L352.918 415.733L352.401 415.719L352.091 416.132L344.198 426.656L330.288 424.949L329.782 424.887L329.435 425.259L320.367 434.984L306.725 431.962L306.233 431.853L305.852 432.183L295.71 440.999L282.486 436.695L282.011 436.54L281.602 436.827L270.495 444.635L257.839 439.096L257.382 438.896L256.948 439.14L245 445.852L233.052 439.14L232.618 438.896L232.161 439.096L219.505 444.635L208.398 436.827L207.989 436.54L207.514 436.695L194.29 440.999L184.148 432.183L183.767 431.853L183.275 431.962L169.633 434.984L160.565 425.259L160.218 424.887L159.712 424.949L145.802 426.656L137.909 416.132L137.599 415.719L137.082 415.733L123.061 416.107L116.427 404.902L116.159 404.45L115.635 404.414L101.658 403.453L96.3536 391.692L96.1335 391.204L95.6055 391.116L81.8282 388.833L77.908 376.647L77.7409 376.127L77.2136 375.987L63.7881 372.409L61.2918 359.931L61.1827 359.385L60.6613 359.19L47.735 354.36L46.6865 341.727L46.6396 341.161L46.1303 340.912L33.8441 334.885L34.2518 322.233L34.2704 321.657L33.7801 321.352L22.2668 314.198L24.1238 301.664L24.2097 301.084L23.7459 300.726L13.1291 292.525L16.4138 280.242L16.567 279.669L16.1377 279.26L6.53044 270.103L11.2066 258.203L11.4253 257.646L11.0384 257.19L2.54236 247.177L8.55989 235.786L8.84047 235.255L8.50338 234.758L1.20818 223.999L8.50338 213.239L8.84047 212.742L8.55989 212.211L2.54236 200.82L11.0384 190.807L11.4253 190.351L11.2066 189.795L6.53044 177.894L16.1377 168.737L16.567 168.328L16.4138 167.755L13.1291 155.472L23.7459 147.271L24.2097 146.913L24.1238 146.333L22.2668 133.799L33.7801 126.645L34.2704 126.341L34.2518 125.764L33.8441 113.112L46.1303 107.086L46.6396 106.836L46.6865 106.27L47.735 93.6372L60.6613 88.807L61.1827 88.6122L61.2918 88.0664L63.7881 75.5885L77.2136 72.0106L77.7409 71.87L77.908 71.3505L81.8282 59.1641L95.6055 56.8807L96.1335 56.7932L96.3536 56.3053L101.658 44.5444L115.635 43.5834L116.159 43.5473L116.427 43.0952L123.061 31.8902L137.082 32.2646L137.599 32.2784L137.909 31.865L145.802 21.341L159.712 23.0483L160.218 23.1104L160.565 22.7377L169.632 13.0129L183.275 16.0355L183.767 16.1445L184.148 15.8139L194.29 6.99779L207.514 11.3026L207.989 11.4574L208.398 11.1698L219.505 3.36196L232.161 8.90111L232.618 9.10084L233.052 8.85688L245 2.14554L256.948 8.85688Z" stroke="#78FFC6" stroke-width="2"/>
</svg>
