<svg width="491" height="446" viewBox="0 0 491 446" fill="none" xmlns="http://www.w3.org/2000/svg">
<path d="M257.93 7.85832L258.365 8.10229L258.821 7.90255L271.477 2.3634L282.584 10.1712L282.993 10.4588L283.469 10.304L296.692 5.99923L306.835 14.8153L307.215 15.1459L307.707 15.0369L321.35 12.0144L330.417 21.7392L330.765 22.1118L331.27 22.0498L345.18 20.3424L353.073 30.8664L353.383 31.2798L353.9 31.266L367.921 30.8917L374.555 42.0966L374.823 42.5488L375.347 42.5848L389.324 43.5458L394.629 55.3067L394.849 55.7946L395.377 55.8821L409.154 58.1655L413.074 70.352L413.242 70.8715L413.769 71.012L427.194 74.59L429.691 87.0679L429.8 87.6136L430.321 87.8085L443.247 92.6386L444.296 105.272L444.343 105.837L444.852 106.087L457.138 112.113L456.731 124.765L456.712 125.342L457.202 125.647L468.716 132.801L466.859 145.335L466.773 145.915L467.237 146.273L477.853 154.474L474.569 166.757L474.415 167.33L474.845 167.739L484.452 176.896L479.776 188.796L479.557 189.353L479.944 189.809L488.44 199.821L482.423 211.212L482.142 211.743L482.479 212.24L489.774 223L482.479 233.76L482.142 234.257L482.423 234.788L488.44 246.179L479.944 256.191L479.557 256.647L479.776 257.204L484.452 269.104L474.845 278.261L474.415 278.671L474.569 279.243L477.853 291.526L467.237 299.727L466.773 300.085L466.859 300.665L468.716 313.199L457.202 320.353L456.712 320.658L456.731 321.235L457.138 333.887L444.852 339.913L444.343 340.163L444.296 340.728L443.247 353.361L430.321 358.192L429.8 358.386L429.691 358.932L427.194 371.41L413.769 374.988L413.242 375.129L413.074 375.648L409.154 387.835L395.377 390.118L394.849 390.205L394.629 390.693L389.324 402.454L375.347 403.415L374.823 403.451L374.555 403.903L367.921 415.108L353.9 414.734L353.383 414.72L353.073 415.134L345.18 425.658L331.27 423.95L330.765 423.888L330.417 424.261L321.35 433.986L307.707 430.963L307.215 430.854L306.835 431.185L296.692 440.001L283.469 435.696L282.993 435.541L282.584 435.829L271.477 443.637L258.821 438.097L258.365 437.898L257.93 438.142L245.982 444.853L234.035 438.142L233.6 437.898L233.144 438.097L220.488 443.637L209.381 435.829L208.972 435.541L208.496 435.696L195.273 440.001L185.13 431.185L184.75 430.854L184.258 430.963L170.615 433.986L161.548 424.261L161.2 423.888L160.694 423.95L146.785 425.658L138.892 415.134L138.581 414.72L138.065 414.734L124.043 415.108L117.409 403.903L117.142 403.451L116.618 403.415L102.641 402.454L97.336 390.693L97.1159 390.205L96.5879 390.118L82.8106 387.835L78.8904 375.648L78.7233 375.129L78.196 374.988L64.7705 371.41L62.2743 358.932L62.1651 358.386L61.6437 358.192L48.7174 353.361L47.6689 340.728L47.622 340.163L47.1127 339.913L34.8265 333.887L35.2342 321.235L35.2528 320.658L34.7625 320.353L23.2492 313.199L25.1062 300.665L25.1921 300.085L24.7283 299.727L14.1115 291.526L17.3962 279.243L17.5494 278.671L17.1201 278.261L7.51286 269.104L12.189 257.204L12.4078 256.647L12.0208 256.191L3.52479 246.179L9.54231 234.788L9.82289 234.257L9.4858 233.76L2.19061 223L9.4858 212.24L9.82289 211.743L9.54231 211.212L3.52479 199.821L12.0208 189.809L12.4078 189.353L12.189 188.796L7.51286 176.896L17.1201 167.739L17.5494 167.33L17.3962 166.757L14.1116 154.474L24.7283 146.273L25.1921 145.915L25.1062 145.335L23.2492 132.801L34.7625 125.647L35.2528 125.342L35.2342 124.765L34.8265 112.113L47.1127 106.087L47.622 105.837L47.6689 105.272L48.7174 92.6386L61.6437 87.8085L62.1651 87.6136L62.2743 87.0679L64.7705 74.59L78.196 71.012L78.7233 70.8715L78.8904 70.352L82.8106 58.1655L96.5879 55.8821L97.1159 55.7946L97.336 55.3067L102.641 43.5458L116.618 42.5848L117.142 42.5488L117.409 42.0966L124.043 30.8917L138.065 31.266L138.581 31.2798L138.892 30.8664L146.785 20.3424L160.694 22.0498L161.2 22.1118L161.548 21.7392L170.615 12.0144L184.258 15.0369L184.75 15.1459L185.13 14.8153L195.273 5.99923L208.496 10.304L208.972 10.4588L209.381 10.1712L220.488 2.3634L233.144 7.90255L233.6 8.10229L234.035 7.85832L245.982 1.14698L257.93 7.85832Z" stroke="#FFE25B" stroke-width="2"/>
</svg>
