<svg width="80" height="80" viewBox="0 0 80 80" fill="none" xmlns="http://www.w3.org/2000/svg">
<path d="M61.0107 46.9117C60.7902 48.0357 60.4436 49.0441 59.9605 49.937C59.3618 51.0504 58.511 52.0693 57.3872 53.0042C56.316 53.8865 55.2027 54.5273 54.0684 54.9159C52.9341 55.3046 51.4952 55.4937 49.7622 55.4937C47.4516 55.4937 45.3721 55.021 43.5236 54.0756C41.6751 53.1302 40.3097 51.7332 39.4274 49.8844C38.4612 51.5756 37.1168 52.9306 35.3839 53.9285C33.6509 54.9264 31.4978 55.4306 28.9141 55.4306C27.2231 55.4306 25.7003 55.168 24.3454 54.6533C23.001 54.1386 21.8457 53.3928 20.8795 52.4264C20.1128 51.6596 19.5036 50.7563 19.0624 49.7374C18.6213 48.7185 18.3902 47.5525 18.3902 46.2395C18.3902 44.9264 18.6423 43.7395 19.1465 42.6575C19.6506 41.5756 20.3333 40.6617 21.2051 39.9159C22.0663 39.1596 23.0745 38.5714 24.2088 38.1512C25.3432 37.7311 26.53 37.5105 27.7693 37.5105C29.3447 37.4685 30.9096 37.4475 32.4535 37.4265C33.9975 37.4054 35.5624 37.3949 37.1378 37.3949V34.2752C37.1378 32.3109 36.5707 30.8718 35.4259 29.9685C34.2811 29.0651 32.8001 28.6134 30.9516 28.6134C29.1031 28.6134 27.5697 29.0231 26.3514 29.8529C25.1436 30.6827 24.4819 32.0168 24.3559 33.876L19.6296 33.0252C19.7767 31.7227 20.1337 30.5882 20.6904 29.6008C21.3625 28.4033 22.2343 27.437 23.2846 26.6807C24.3454 25.9349 25.5532 25.3781 26.8976 25.0315C28.2524 24.6849 29.6178 24.5168 31.0041 24.5168C31.8549 24.5168 32.7161 24.6008 33.6089 24.7794C34.5016 24.958 35.3628 25.2101 36.2136 25.5567C37.0538 25.9033 37.8415 26.355 38.5557 26.9118C39.2699 27.4685 39.8686 28.1197 40.3727 28.8445C41.339 27.5 42.5468 26.4601 44.0067 25.7248C45.4665 24.9895 47.2941 24.6218 49.4997 24.6218C52.0099 24.6218 54.0159 25.0735 55.5388 25.9769C57.0617 26.8802 58.343 28.1407 59.3828 29.7584C60.265 31.1134 60.8637 32.584 61.1788 34.1807C61.4834 35.7773 61.6409 37.6575 61.6409 39.8214V41.3235L41.8746 41.3865V41.6176C41.8746 42.8571 42.0112 44.0546 42.2737 45.2311C42.5468 46.4075 42.9879 47.4474 43.6075 48.3508C44.2272 49.2542 45.0254 49.9895 46.0337 50.5462C47.042 51.1029 48.2708 51.3865 49.7412 51.3865C51.1591 51.3865 52.5139 50.9664 53.7848 50.1155C55.0556 49.2647 55.9064 47.9201 56.3265 46.0714L61.0107 46.9117ZM28.8931 41.1554C27.3912 41.1554 26.0889 41.5861 24.9966 42.458C23.8938 43.3298 23.3476 44.5693 23.3476 46.1869C23.3476 47.8046 23.8728 49.0441 24.9335 49.9159C25.9943 50.7878 27.2966 51.2185 28.8301 51.2185C29.9434 51.2185 31.0462 51.0504 32.1174 50.7248C33.1992 50.3991 34.1235 49.8529 34.8902 49.0756C36.0035 47.9622 36.6862 46.8172 36.9067 45.6617C37.1378 44.5063 37.2533 43.2563 37.2533 41.9012V41.0924L28.8931 41.1554ZM56.6416 37.5105C56.5996 36.1659 56.442 34.937 56.1479 33.8445C55.8643 32.7416 55.3917 31.7962 54.7301 30.9874C54.1839 30.2941 53.4907 29.7269 52.6505 29.2857C51.7998 28.8445 50.7285 28.6239 49.4156 28.6239C48.3023 28.6239 47.3361 28.813 46.5274 29.2017C45.7186 29.5903 45.0044 30.105 44.3847 30.7668C43.576 31.6176 42.9669 32.6155 42.5678 33.771C42.1687 34.9265 41.9586 36.1764 41.9586 37.5315H56.6416V37.5105Z" fill="white"/>
<path d="M39.9947 80C17.9388 80 0 62.0588 0 40C0 17.9412 17.9388 0 39.9947 0C62.0506 0 80 17.9412 80 40C80 62.0588 62.0506 80 39.9947 80ZM39.9947 4.42228C20.3859 4.42228 4.42165 20.3782 4.42165 40C4.42165 59.6219 20.3754 75.5777 39.9947 75.5777C59.614 75.5777 75.5678 59.6219 75.5678 40C75.5678 20.3782 59.614 4.42228 39.9947 4.42228Z" fill="white"/>
</svg>
