<?xml version="1.0" encoding="utf-8"?>
<!-- Generator: Adobe Illustrator 27.5.0, SVG Export Plug-In . SVG Version: 6.00 Build 0)  -->
<svg version="1.1" id="Layer_1" xmlns="http://www.w3.org/2000/svg" xmlns:xlink="http://www.w3.org/1999/xlink" x="0px" y="0px"
	 viewBox="0 0 420 314" style="enable-background:new 0 0 420 314;" xml:space="preserve">
<style type="text/css">
	
		.st0{clip-path:url(#SVGID_00000048474106590940448210000016281194087725774769_);fill:url(#SVGID_00000031923316445318550520000006120377435183713723_);}
	.st1{clip-path:url(#SVGID_00000157994851592364503090000000628750295282860456_);}
</style>
<g>
	<defs>
		<path id="SVGID_1_" d="M118.95,147.37v32.39h34.55v-32.39c0-15.3,12.45-27.76,27.76-27.76V85.07
			C146.9,85.07,118.95,113.02,118.95,147.37 M193.24,179.76h34.55V49.39h-34.55V179.76z M239.77,49.52
			c15.3,0,27.76,12.45,27.76,27.76v102.49h34.55V77.27c0-34.36-27.95-62.31-62.31-62.31V49.52z"/>
	</defs>
	<clipPath id="SVGID_00000138547251158406219110000009561950671239153044_">
		<use xlink:href="#SVGID_1_"  style="overflow:visible;"/>
	</clipPath>
	
		<linearGradient id="SVGID_00000055692140543585003350000016559670003129880730_" gradientUnits="userSpaceOnUse" x1="-747.1141" y1="714.0883" x2="-746.1141" y2="714.0883" gradientTransform="matrix(116.3247 116.3247 116.3247 -116.3247 4019.1899 170038.2812)">
		<stop  offset="0" style="stop-color:#1DC0CC"/>
		<stop  offset="0.5" style="stop-color:#8E15F8"/>
		<stop  offset="1" style="stop-color:#E20000"/>
	</linearGradient>
	
		<polygon style="clip-path:url(#SVGID_00000138547251158406219110000009561950671239153044_);fill:url(#SVGID_00000055692140543585003350000016559670003129880730_);" points="
		210.51,-76.6 384.48,97.36 210.51,271.33 36.55,97.36 	"/>
</g>
<g>
	<defs>
		<rect id="SVGID_00000170262405478852607720000010295844705159628965_" x="-295.84" y="-382.41" width="1920" height="1080"/>
	</defs>
	<clipPath id="SVGID_00000075880848682857530020000000871257110069318323_">
		<use xlink:href="#SVGID_00000170262405478852607720000010295844705159628965_"  style="overflow:visible;"/>
	</clipPath>
	<path style="clip-path:url(#SVGID_00000075880848682857530020000000871257110069318323_);" d="M34.56,300.09
		c-4.04,0-7.63-0.68-10.75-2.04c-3.12-1.36-5.58-3.43-7.39-6.19c-1.8-2.77-2.7-6.23-2.7-10.42c0-3.52,0.62-6.49,1.86-8.91
		c1.24-2.42,2.94-4.39,5.12-5.9c2.17-1.51,4.67-2.66,7.51-3.44c2.83-0.78,5.86-1.31,9.08-1.59c3.6-0.33,6.51-0.68,8.71-1.05
		c2.2-0.37,3.8-0.91,4.81-1.61c1-0.7,1.51-1.7,1.51-2.99v-0.21c0-2.12-0.73-3.75-2.19-4.91c-1.46-1.16-3.42-1.73-5.9-1.73
		c-2.67,0-4.81,0.58-6.44,1.73c-1.62,1.16-2.65,2.75-3.1,4.79l-18.61-0.66c0.55-3.85,1.97-7.3,4.27-10.34
		c2.3-3.04,5.46-5.43,9.49-7.18c4.03-1.75,8.88-2.62,14.54-2.62c4.04,0,7.77,0.47,11.18,1.42c3.41,0.95,6.38,2.33,8.91,4.13
		c2.53,1.8,4.49,4.01,5.88,6.62c1.39,2.61,2.08,5.6,2.08,8.95v43.08H53.45v-8.83h-0.49c-1.13,2.15-2.57,3.96-4.31,5.45
		c-1.75,1.49-3.8,2.6-6.15,3.34C40.15,299.72,37.5,300.09,34.56,300.09 M40.79,286.89c2.17,0,4.13-0.44,5.88-1.32
		c1.75-0.88,3.14-2.09,4.19-3.65c1.05-1.55,1.57-3.36,1.57-5.42v-6.02c-0.58,0.3-1.27,0.58-2.08,0.82c-0.81,0.25-1.7,0.48-2.66,0.7
		c-0.96,0.22-1.95,0.41-2.97,0.58c-1.02,0.17-1.99,0.32-2.93,0.46c-1.9,0.3-3.51,0.77-4.85,1.4c-1.34,0.63-2.35,1.45-3.05,2.45
		c-0.7,1.01-1.05,2.19-1.05,3.57c0,2.09,0.75,3.69,2.25,4.79C36.57,286.34,38.48,286.89,40.79,286.89"/>
	<path style="clip-path:url(#SVGID_00000075880848682857530020000000871257110069318323_);" d="M78.27,299.02v-63.38h19.6v11.55
		h0.66c1.15-4.18,3.04-7.29,5.65-9.35c2.61-2.05,5.65-3.08,9.12-3.08c0.93,0,1.9,0.06,2.89,0.19c0.99,0.12,1.91,0.31,2.76,0.56
		v17.54c-0.96-0.33-2.22-0.59-3.77-0.78c-1.55-0.19-2.94-0.29-4.15-0.29c-2.39,0-4.54,0.53-6.46,1.59c-1.91,1.06-3.41,2.53-4.5,4.41
		c-1.09,1.89-1.63,4.09-1.63,6.62v34.41H78.27z"/>
	<path style="clip-path:url(#SVGID_00000075880848682857530020000000871257110069318323_);" d="M162.11,283.55
		c-0.44,0.11-1.09,0.24-1.96,0.39c-0.87,0.15-1.69,0.23-2.45,0.23c-1.07,0-1.99-0.16-2.76-0.47c-0.77-0.32-1.36-0.85-1.75-1.61
		c-0.4-0.76-0.6-1.75-0.6-2.99V250.5H164v-14.86h-11.43v-15.18H132.4v15.18h-8.38v14.86h8.38v30.82c-0.06,4.29,0.8,7.85,2.58,10.69
		c1.77,2.83,4.34,4.92,7.71,6.25c3.37,1.33,7.42,1.89,12.15,1.67c2.42-0.11,4.5-0.37,6.25-0.79c1.75-0.41,3.1-0.76,4.07-1.03
		L162.11,283.55z"/>
	<path style="clip-path:url(#SVGID_00000075880848682857530020000000871257110069318323_);" d="M190,262.88v36.15h-20.18v-84.5
		h19.52v32.76h0.7c1.43-3.9,3.77-6.96,7.03-9.16c3.26-2.2,7.26-3.3,11.99-3.3c4.46,0,8.33,0.98,11.64,2.95
		c3.3,1.97,5.87,4.74,7.7,8.31c1.83,3.58,2.73,7.76,2.7,12.54v40.4h-20.17v-36.43c0.03-3.52-0.85-6.27-2.64-8.25
		c-1.79-1.98-4.3-2.97-7.55-2.97c-2.12,0-3.98,0.46-5.59,1.38c-1.61,0.92-2.86,2.23-3.76,3.94
		C190.49,258.39,190.03,260.46,190,262.88"/>
	<path style="clip-path:url(#SVGID_00000075880848682857530020000000871257110069318323_);" d="M297.53,272.2v-5.04
		c0-5.2-0.76-9.81-2.27-13.84c-1.51-4.03-3.63-7.42-6.35-10.17c-2.72-2.75-5.96-4.83-9.7-6.23c-3.74-1.4-7.87-2.1-12.38-2.1
		c-6.38,0-11.92,1.37-16.63,4.11c-4.7,2.74-8.35,6.56-10.93,11.47c-2.59,4.91-3.88,10.64-3.88,17.19c0,6.74,1.29,12.55,3.86,17.43
		c2.57,4.88,6.26,8.64,11.06,11.26c4.8,2.62,10.51,3.94,17.14,3.94c5.53,0,10.4-0.85,14.6-2.54c4.21-1.69,7.61-4.07,10.21-7.14
		c2.6-3.07,4.28-6.68,5.05-10.83l-18.53-0.54c-0.52,1.4-1.31,2.59-2.35,3.55c-1.05,0.96-2.3,1.69-3.76,2.19
		c-1.46,0.49-3.08,0.74-4.87,0.74c-2.58,0-4.81-0.54-6.68-1.61c-1.87-1.07-3.32-2.58-4.33-4.52c-1.02-1.94-1.53-4.2-1.53-6.79v-0.54
		H297.53z M261.18,250.89c1.79-1,3.81-1.5,6.06-1.5c2.23,0,4.2,0.47,5.92,1.42c1.72,0.95,3.07,2.27,4.07,3.94
		c0.99,1.68,1.5,3.59,1.53,5.73h-23.45c0.1-2.04,0.63-3.88,1.62-5.51C257.98,253.26,259.39,251.89,261.18,250.89"/>
	<path style="clip-path:url(#SVGID_00000075880848682857530020000000871257110069318323_);" d="M302.08,299.02v-63.38h19.6v11.55
		h0.66c1.15-4.18,3.04-7.29,5.65-9.35c2.61-2.05,5.65-3.08,9.12-3.08c0.93,0,1.9,0.06,2.89,0.19c0.99,0.12,1.91,0.31,2.76,0.56
		v17.54c-0.96-0.33-2.22-0.59-3.77-0.78s-2.94-0.29-4.15-0.29c-2.39,0-4.54,0.53-6.46,1.59c-1.91,1.06-3.41,2.53-4.5,4.41
		c-1.09,1.89-1.63,4.09-1.63,6.62v34.41H302.08z"/>
	<path style="clip-path:url(#SVGID_00000075880848682857530020000000871257110069318323_);" d="M365.52,300.09
		c-4.04,0-7.63-0.68-10.75-2.04c-3.12-1.36-5.58-3.43-7.39-6.19c-1.8-2.77-2.7-6.23-2.7-10.42c0-3.52,0.62-6.49,1.85-8.91
		c1.24-2.42,2.94-4.39,5.12-5.9c2.17-1.51,4.67-2.66,7.51-3.44c2.83-0.78,5.86-1.31,9.08-1.59c3.6-0.33,6.51-0.68,8.71-1.05
		c2.2-0.37,3.8-0.91,4.81-1.61c1-0.7,1.51-1.7,1.51-2.99v-0.21c0-2.12-0.73-3.75-2.19-4.91c-1.46-1.16-3.42-1.73-5.9-1.73
		c-2.67,0-4.81,0.58-6.44,1.73c-1.62,1.16-2.65,2.75-3.1,4.79l-18.61-0.66c0.55-3.85,1.97-7.3,4.27-10.34
		c2.3-3.04,5.46-5.43,9.49-7.18c4.03-1.75,8.88-2.62,14.54-2.62c4.04,0,7.77,0.47,11.18,1.42c3.41,0.95,6.38,2.33,8.91,4.13
		c2.53,1.8,4.49,4.01,5.88,6.62c1.39,2.61,2.08,5.6,2.08,8.95v43.08h-18.98v-8.83h-0.49c-1.13,2.15-2.57,3.96-4.31,5.45
		c-1.75,1.49-3.8,2.6-6.15,3.34C371.11,299.72,368.46,300.09,365.52,300.09 M371.75,286.89c2.17,0,4.13-0.44,5.88-1.32
		c1.75-0.88,3.14-2.09,4.19-3.65c1.05-1.55,1.57-3.36,1.57-5.42v-6.02c-0.58,0.3-1.27,0.58-2.08,0.82c-0.81,0.25-1.7,0.48-2.66,0.7
		c-0.96,0.22-1.95,0.41-2.97,0.58c-1.02,0.17-2,0.32-2.93,0.46c-1.9,0.3-3.51,0.77-4.85,1.4c-1.34,0.63-2.35,1.45-3.05,2.45
		c-0.7,1.01-1.05,2.19-1.05,3.57c0,2.09,0.75,3.69,2.25,4.79C367.54,286.34,369.44,286.89,371.75,286.89"/>
</g>
</svg>
