<?xml version="1.0" encoding="UTF-8"?>
<!DOCTYPE svg PUBLIC "-//W3C//DTD SVG 1.1//EN" "http://www.w3.org/Graphics/SVG/1.1/DTD/svg11.dtd">
<svg xmlns="http://www.w3.org/2000/svg" version="1.1" width="640px" height="640px" style="shape-rendering:geometricPrecision; text-rendering:geometricPrecision; image-rendering:optimizeQuality; fill-rule:evenodd; clip-rule:evenodd" xmlns:xlink="http://www.w3.org/1999/xlink">
<g><path style="opacity:0.999" fill="#f37125" d="M 294.5,-0.5 C 311.167,-0.5 327.833,-0.5 344.5,-0.5C 466.236,13.2546 554.736,74.5879 610,183.5C 626.268,218.914 636.102,255.914 639.5,294.5C 639.5,311.167 639.5,327.833 639.5,344.5C 625.745,466.236 564.412,554.736 455.5,610C 420.086,626.268 383.086,636.102 344.5,639.5C 327.833,639.5 311.167,639.5 294.5,639.5C 172.764,625.745 84.2645,564.412 29,455.5C 12.7315,420.086 2.89821,383.086 -0.5,344.5C -0.5,327.833 -0.5,311.167 -0.5,294.5C 13.2546,172.764 74.5879,84.2645 183.5,29C 218.914,12.7315 255.914,2.89821 294.5,-0.5 Z"/></g>
<g><path style="opacity:1" fill="#000000" d="M 112.5,209.5 C 124.098,208.751 135.098,210.918 145.5,216C 151.978,220.315 158.478,224.482 165,228.5C 185.986,223.27 206.986,223.27 228,228.5C 236.361,222.729 245.195,217.562 254.5,213C 278.848,205.002 297.681,211.835 311,233.5C 315.266,243.696 315.599,254.029 312,264.5C 309.151,275.365 304.317,285.198 297.5,294C 298.645,299.069 300.478,303.903 303,308.5C 310.901,317.296 317.567,326.963 323,337.5C 330.704,386.193 309.871,413.026 260.5,418C 249.833,418.333 239.167,418.667 228.5,419C 219.558,427.409 208.892,431.243 196.5,430.5C 184.285,431.487 173.951,427.653 165.5,419C 153.5,418.667 141.5,418.333 129.5,418C 108.456,416.396 91.2889,407.563 78,391.5C 67.9735,374.983 65.3068,357.317 70,338.5C 75.4348,327.073 82.4348,316.739 91,307.5C 93.4891,303.689 94.9891,299.522 95.5,295C 92.8211,289.814 89.9877,284.647 87,279.5C 70.625,246.651 79.125,223.317 112.5,209.5 Z"/></g>
<g><path style="opacity:1" fill="#020100" d="M 455.5,425.5 C 455.5,426.833 455.5,428.167 455.5,429.5C 449.5,429.5 443.5,429.5 437.5,429.5C 439.45,420.076 436.45,412.742 428.5,407.5C 427.848,419.328 421.848,423.495 410.5,420C 406.358,416.88 404.524,412.713 405,407.5C 400.458,409.872 397.625,413.538 396.5,418.5C 395.518,421.962 395.185,425.629 395.5,429.5C 389.5,429.5 383.5,429.5 377.5,429.5C 379.029,411.308 388.029,398.308 404.5,390.5C 405.833,381.5 405.833,372.5 404.5,363.5C 386.263,354.399 377.263,339.566 377.5,319C 377.788,299.25 386.788,285.083 404.5,276.5C 405.833,267.5 405.833,258.5 404.5,249.5C 387.61,241.591 378.61,228.258 377.5,209.5C 383.5,209.5 389.5,209.5 395.5,209.5C 394.195,217.367 396.195,224.2 401.5,230C 402.5,230.5 403.5,231 404.5,231.5C 405.534,220.986 411.201,216.819 421.5,219C 426.704,221.936 428.87,226.436 428,232.5C 436.639,227.209 439.806,219.542 437.5,209.5C 443.5,209.5 449.5,209.5 455.5,209.5C 454.474,228.22 445.474,241.553 428.5,249.5C 427.502,258.475 427.168,267.475 427.5,276.5C 440.781,281.007 449.615,290.007 454,303.5C 459.63,324.824 454.463,342.99 438.5,358C 435.327,360.087 431.994,361.921 428.5,363.5C 427.167,372.5 427.167,381.5 428.5,390.5C 443.828,397.175 452.828,408.842 455.5,425.5 Z"/></g>
<g><path style="opacity:1" fill="#020100" d="M 543.5,421.5 C 542.527,423.948 542.194,426.615 542.5,429.5C 535.167,429.5 527.833,429.5 520.5,429.5C 520.664,426.813 520.497,424.146 520,421.5C 501.474,412.605 492.307,397.772 492.5,377C 492.363,361.405 498.363,348.739 510.5,339C 513.48,336.676 516.813,335.176 520.5,334.5C 520.832,324.81 520.498,315.144 519.5,305.5C 501.504,296.689 492.504,282.189 492.5,262C 492.499,241.823 501.499,227.323 519.5,218.5C 520.484,215.572 520.817,212.572 520.5,209.5C 527.833,209.5 535.167,209.5 542.5,209.5C 542.183,212.572 542.516,215.572 543.5,218.5C 561.174,226.857 570.508,240.857 571.5,260.5C 571.522,281.479 562.189,296.479 543.5,305.5C 542.502,315.144 542.168,324.81 542.5,334.5C 545.691,335.092 548.691,336.259 551.5,338C 568.22,351.291 574.387,368.458 570,389.5C 566.365,404.621 557.532,415.288 543.5,421.5 Z"/></g>
<g><path style="opacity:1" fill="#ec6e24" d="M 519.5,235.5 C 520.076,239.232 521.243,242.898 523,246.5C 529.262,250.717 535.262,250.383 541,245.5C 542.289,242.649 542.789,239.649 542.5,236.5C 547.056,237.885 550.222,240.885 552,245.5C 552.933,256.906 552.6,268.239 551,279.5C 549.39,283.443 546.723,286.443 543,288.5C 543.125,277.297 537.625,272.797 526.5,275C 521.869,277.816 519.535,281.983 519.5,287.5C 515.24,284.999 512.406,281.333 511,276.5C 510.333,266.5 510.333,256.5 511,246.5C 512.582,241.765 515.415,238.098 519.5,235.5 Z"/></g>
<g><path style="opacity:1" fill="#ec6e24" d="M 404.5,293.5 C 405.879,306.359 412.546,310.193 424.5,305C 425.701,304.097 426.535,302.931 427,301.5C 427.182,298.774 427.682,296.107 428.5,293.5C 432.242,296.074 435.075,299.407 437,303.5C 437.667,314.167 437.667,324.833 437,335.5C 435.765,340.232 432.932,343.565 428.5,345.5C 426.707,332.77 420.04,329.27 408.5,335C 406.215,338.077 404.882,341.577 404.5,345.5C 401.323,343.489 398.823,340.822 397,337.5C 395.403,326.573 395.069,315.573 396,304.5C 397.582,299.765 400.415,296.098 404.5,293.5 Z"/></g>
<g><path style="opacity:1" fill="#ed6e25" d="M 519.5,351.5 C 522.149,362.99 528.815,366.157 539.5,361C 541.718,358.25 543.051,355.083 543.5,351.5C 547.499,353.824 550.332,357.157 552,361.5C 552.667,371.833 552.667,382.167 552,392.5C 551.077,397.694 548.244,401.361 543.5,403.5C 542.929,389.386 536.262,385.22 523.5,391C 521.123,394.745 519.79,398.911 519.5,403.5C 515.33,400.834 512.497,397.168 511,392.5C 510.333,382.5 510.333,372.5 511,362.5C 512.582,357.765 515.415,354.098 519.5,351.5 Z"/></g>
<g><path style="opacity:1" fill="#4c240d" d="M 396.5,418.5 C 396.5,422.5 396.5,426.5 396.5,430.5C 389.978,430.823 383.645,430.49 377.5,429.5C 383.5,429.5 389.5,429.5 395.5,429.5C 395.185,425.629 395.518,421.962 396.5,418.5 Z"/></g>
<g><path style="opacity:1" fill="#47210c" d="M 455.5,425.5 C 456.451,426.919 456.784,428.585 456.5,430.5C 449.978,430.823 443.645,430.49 437.5,429.5C 443.5,429.5 449.5,429.5 455.5,429.5C 455.5,428.167 455.5,426.833 455.5,425.5 Z"/></g>
<g><path style="opacity:1" fill="#4a230d" d="M 543.5,421.5 C 543.5,424.5 543.5,427.5 543.5,430.5C 535.648,430.825 527.982,430.492 520.5,429.5C 527.833,429.5 535.167,429.5 542.5,429.5C 542.194,426.615 542.527,423.948 543.5,421.5 Z"/></g>
</svg>
