<?xml version="1.0" encoding="utf-8"?>
<!-- Generator: Adobe Illustrator 26.0.2, SVG Export Plug-In . SVG Version: 6.00 Build 0)  -->
<svg version="1.1" id="Layer_1" xmlns="http://www.w3.org/2000/svg" xmlns:xlink="http://www.w3.org/1999/xlink" x="0px" y="0px"
	 viewBox="0 0 1080 1080" style="enable-background:new 0 0 1080 1080;" xml:space="preserve">
<style type="text/css">
	.st0{fill:#FFFFFF;}
</style>
<path class="st0" d="M373.7,637.5l151.3,87.7c4.6,2.7,9.8,4,14.9,4c5.2,0,10.3-1.3,14.9-4l151.3-87.7c7.1-4.1,10.5-12.5,8.5-20.4
	L650.2,373c-3.4-13-15.3-22.2-28.8-22.2H458.6c-13.5,0-25.3,9.1-28.8,22.2l-64.5,244.2C363.2,625.1,366.7,633.5,373.7,637.5z
	 M517,705.3l-129-74.7c-6.5-3.7-9.7-11.4-7.7-18.6L436,401.1c0.9-3.5,3.9-3.7,4.8-3.7c0,0,0,0,0,0c0.9,0,3.9,0.3,4.9,3.7l80.1,297.5
	c1,3.6-1.4,5.7-2.1,6.3C522.9,705.4,520.2,707.2,517,705.3z M619.1,363.9c2.8,0,5.4,1.3,7.1,3.5c1.7,2.2,2.3,5,1.5,7.7l-82.8,307.8
	c-0.9,3.5-3.9,3.7-4.9,3.7c-0.9,0-3.9-0.3-4.9-3.7c0,0,0,0,0,0l-82.8-307.8c-0.7-2.7-0.2-5.5,1.5-7.7c1.7-2.2,4.3-3.5,7.1-3.5H619.1
	z M563,705.3c-3.2,1.9-5.9,0.1-6.6-0.4c-0.7-0.6-3.1-2.7-2.1-6.3l80.1-297.5c0.9-3.4,3.9-3.7,4.9-3.7c0,0,0,0,0,0
	c0.9,0,3.9,0.3,4.8,3.7L699.8,612c1.9,7.2-1.3,14.9-7.7,18.6L563,705.3z"/>
</svg>
