<svg width="1000" height="1000" viewBox="0 0 1000 1000" fill="none" xmlns="http://www.w3.org/2000/svg">
<rect width="1000" height="1000" fill="black"/>
<path fill-rule="evenodd" clip-rule="evenodd" d="M336.551 389.122C333.916 389.928 332 392.379 332 395.278V498.349V597.014C332 600.57 334.882 603.452 338.437 603.452C341.993 603.452 344.875 600.57 344.875 597.014V498.349V469.595L489.824 569.574L490.339 693.275C490.351 696.188 492.297 698.642 494.955 699.424C496.803 700.261 499.015 700.213 500.893 699.102L664.541 602.28C667.6 600.469 668.613 596.521 666.803 593.461C664.992 590.402 661.045 589.389 657.985 591.199L503.17 682.796L502.874 611.868L663.636 514.79C666.679 512.953 667.657 508.996 665.819 505.952C663.981 502.909 660.024 501.932 656.981 503.769L502.812 596.866L502.439 507.399L660.493 411.795C662.614 410.512 663.73 408.2 663.588 405.886C663.724 403.579 662.61 401.275 660.496 399.994L497.171 301.057C495.372 299.877 493.039 299.642 490.987 300.571C490.755 300.675 490.529 300.793 490.31 300.925L336.551 389.122ZM493.544 313.912L645.38 405.89L492.66 498.267C490.544 499.547 489.428 501.853 489.565 504.162C489.556 504.303 489.552 504.445 489.553 504.589L489.758 553.888L347.031 455.443C346.357 454.978 345.626 454.659 344.875 454.479V399.19L396.06 369.83L490.979 428.719C494 430.593 497.969 429.664 499.843 426.643C501.717 423.622 500.788 419.653 497.766 417.779L408.749 362.551L493.544 313.912Z" fill="white"/>
<path d="M336.551 389.122L337.418 391.955L337.737 391.857L338.026 391.692L336.551 389.122ZM344.875 469.595L346.557 467.156L341.912 463.952V469.595H344.875ZM489.824 569.574L492.786 569.561L492.78 568.014L491.506 567.135L489.824 569.574ZM490.339 693.275L487.376 693.287L487.376 693.287L490.339 693.275ZM494.955 699.424L496.177 696.725L495.99 696.64L495.792 696.582L494.955 699.424ZM500.893 699.102L502.402 701.652L502.402 701.652L500.893 699.102ZM664.541 602.28L666.049 604.83L666.049 604.83L664.541 602.28ZM666.803 593.461L669.353 591.953L669.353 591.953L666.803 593.461ZM657.985 591.199L659.493 593.749L659.493 593.749L657.985 591.199ZM503.17 682.796L500.207 682.808L500.229 687.979L504.679 685.346L503.17 682.796ZM502.874 611.868L501.343 609.331L499.905 610.2L499.912 611.88L502.874 611.868ZM663.636 514.79L662.104 512.254L662.104 512.254L663.636 514.79ZM656.981 503.769L658.512 506.306L658.512 506.306L656.981 503.769ZM502.812 596.866L499.849 596.878L499.871 602.103L504.344 599.402L502.812 596.866ZM502.439 507.399L500.906 504.864L499.469 505.732L499.476 507.411L502.439 507.399ZM660.493 411.795L662.027 414.331L662.027 414.331L660.493 411.795ZM663.588 405.886L660.63 405.711L660.619 405.89L660.63 406.068L663.588 405.886ZM660.496 399.994L658.961 402.529L658.961 402.529L660.496 399.994ZM497.171 301.057L495.546 303.535L495.591 303.564L495.636 303.591L497.171 301.057ZM490.987 300.571L492.202 303.273L492.209 303.27L490.987 300.571ZM490.31 300.925L491.784 303.495L491.81 303.48L491.837 303.464L490.31 300.925ZM645.38 405.89L646.914 408.426L651.102 405.892L646.915 403.356L645.38 405.89ZM493.544 313.912L495.079 311.378L493.585 310.473L492.07 311.342L493.544 313.912ZM492.66 498.267L494.194 500.803L494.194 500.803L492.66 498.267ZM489.565 504.162L492.522 504.343L492.533 504.165L492.523 503.986L489.565 504.162ZM489.553 504.589L486.59 504.601L486.59 504.601L489.553 504.589ZM489.758 553.888L488.076 556.327L492.745 559.548L492.721 553.876L489.758 553.888ZM347.031 455.443L348.714 453.004L348.714 453.004L347.031 455.443ZM344.875 454.479H341.912V456.818L344.186 457.361L344.875 454.479ZM344.875 399.19L343.4 396.619L341.912 397.473V399.19H344.875ZM396.06 369.83L397.622 367.312L396.119 366.38L394.585 367.259L396.06 369.83ZM490.979 428.719L489.417 431.237L489.417 431.237L490.979 428.719ZM499.843 426.643L497.325 425.081L497.325 425.081L499.843 426.643ZM497.766 417.779L496.204 420.297L496.204 420.297L497.766 417.779ZM408.749 362.551L407.275 359.981L402.968 362.451L407.187 365.069L408.749 362.551ZM334.963 395.278C334.963 393.718 335.994 392.391 337.418 391.955L335.684 386.288C331.839 387.465 329.037 391.04 329.037 395.278H334.963ZM334.963 498.349V395.278H329.037V498.349H334.963ZM334.963 597.014V498.349H329.037V597.014H334.963ZM338.437 600.489C336.518 600.489 334.963 598.933 334.963 597.014H329.037C329.037 602.206 333.246 606.415 338.437 606.415V600.489ZM341.912 597.014C341.912 598.933 340.356 600.489 338.437 600.489V606.415C343.629 606.415 347.838 602.206 347.838 597.014H341.912ZM341.912 498.349V597.014H347.838V498.349H341.912ZM341.912 469.595V498.349H347.838V469.595H341.912ZM491.506 567.135L346.557 467.156L343.192 472.034L488.141 572.013L491.506 567.135ZM493.302 693.263L492.786 569.561L486.861 569.586L487.376 693.287L493.302 693.263ZM495.792 696.582C494.355 696.159 493.308 694.831 493.302 693.263L487.376 693.287C487.394 697.546 490.239 701.125 494.119 702.267L495.792 696.582ZM499.384 696.552C498.373 697.15 497.182 697.18 496.177 696.725L493.734 702.124C496.423 703.341 499.658 703.276 502.402 701.652L499.384 696.552ZM663.032 599.73L499.384 696.552L502.402 701.652L666.049 604.83L663.032 599.73ZM664.253 594.97C665.23 596.622 664.683 598.752 663.032 599.73L666.049 604.83C670.517 602.186 671.996 596.421 669.353 591.953L664.253 594.97ZM659.493 593.749C661.145 592.772 663.276 593.319 664.253 594.97L669.353 591.953C666.709 587.485 660.944 586.005 656.476 588.649L659.493 593.749ZM504.679 685.346L659.493 593.749L656.476 588.649L501.661 680.246L504.679 685.346ZM499.912 611.88L500.207 682.808L506.133 682.783L505.837 611.855L499.912 611.88ZM662.104 512.254L501.343 609.331L504.406 614.404L665.167 517.327L662.104 512.254ZM663.282 507.484C664.274 509.127 663.747 511.262 662.104 512.254L665.167 517.327C669.612 514.643 671.039 508.865 668.355 504.421L663.282 507.484ZM658.512 506.306C660.155 505.314 662.29 505.841 663.282 507.484L668.355 504.421C665.671 499.977 659.893 498.549 655.449 501.233L658.512 506.306ZM504.344 599.402L658.512 506.306L655.449 501.233L501.28 594.329L504.344 599.402ZM499.476 507.411L499.849 596.878L505.775 596.853L505.402 507.387L499.476 507.411ZM658.96 409.26L500.906 504.864L503.973 509.934L662.027 414.331L658.96 409.26ZM660.63 406.068C660.708 407.325 660.101 408.57 658.96 409.26L662.027 414.331C665.128 412.455 666.752 409.074 666.545 405.704L660.63 406.068ZM658.961 402.529C660.098 403.218 660.704 404.457 660.63 405.711L666.545 406.061C666.744 402.7 665.122 399.333 662.031 397.46L658.961 402.529ZM495.636 303.591L658.961 402.529L662.031 397.46L498.706 298.523L495.636 303.591ZM492.209 303.27C493.309 302.772 494.569 302.894 495.546 303.535L498.796 298.579C496.175 296.86 492.769 296.511 489.764 297.872L492.209 303.27ZM491.837 303.464C491.955 303.393 492.077 303.33 492.202 303.273L489.771 297.869C489.433 298.021 489.103 298.194 488.783 298.386L491.837 303.464ZM338.026 391.692L491.784 303.495L488.835 298.355L335.077 386.551L338.026 391.692ZM646.915 403.356L495.079 311.378L492.009 316.447L643.845 408.425L646.915 403.356ZM494.194 500.803L646.914 408.426L643.847 403.355L491.127 495.732L494.194 500.803ZM492.523 503.986C492.448 502.732 493.055 501.491 494.194 500.803L491.127 495.732C488.033 497.604 486.408 500.974 486.607 504.337L492.523 503.986ZM492.516 504.576C492.515 504.497 492.518 504.42 492.522 504.343L486.608 503.98C486.595 504.186 486.589 504.393 486.59 504.601L492.516 504.576ZM492.721 553.876L492.516 504.576L486.59 504.601L486.795 553.901L492.721 553.876ZM345.349 457.882L488.076 556.327L491.44 551.449L348.714 453.004L345.349 457.882ZM344.186 457.361C344.587 457.457 344.981 457.628 345.349 457.882L348.714 453.004C347.734 452.328 346.665 451.861 345.563 451.598L344.186 457.361ZM341.912 399.19V454.479H347.838V399.19H341.912ZM394.585 367.259L343.4 396.619L346.349 401.76L397.534 372.4L394.585 367.259ZM492.541 426.201L397.622 367.312L394.498 372.347L489.417 431.237L492.541 426.201ZM497.325 425.081C496.314 426.711 494.172 427.213 492.541 426.201L489.417 431.237C493.829 433.974 499.624 432.616 502.361 428.205L497.325 425.081ZM496.204 420.297C497.835 421.308 498.337 423.45 497.325 425.081L502.361 428.205C505.098 423.793 503.74 417.998 499.329 415.261L496.204 420.297ZM407.187 365.069L496.204 420.297L499.329 415.261L410.311 360.033L407.187 365.069ZM492.07 311.342L407.275 359.981L410.223 365.121L495.018 316.482L492.07 311.342Z" fill="white"/>
</svg>
