<svg width="800" height="800" viewBox="0 0 800 800" fill="none" xmlns="http://www.w3.org/2000/svg">
<rect width="800" height="800" rx="400" fill="white"/>
<g clip-path="url(#clip0_1_103)">
<path d="M362.925 362.925H552.71C552.71 362.925 552.71 381.351 552.71 392.406C552.71 408.436 538.89 420.966 523.228 420.966C507.566 420.966 420.044 420.966 420.044 420.966V595.089C420.044 595.089 401.619 595.089 390.563 595.089C379.508 595.089 362.925 580.348 362.925 565.608C362.925 550.867 362.925 362.925 362.925 362.925Z" fill="#FF6B6B"/>
<path d="M245 245H595C595 245 595 266.368 595 292.727C595 319.086 573.632 340.455 547.273 340.455H245L245 245Z" fill="black"/>
<path d="M340.455 245L340.455 595C340.455 595 319.086 595 292.727 595C266.368 595 245 573.632 245 547.273L245 245H340.455Z" fill="black"/>
</g>
<defs>
<clipPath id="clip0_1_103">
<rect width="350" height="350" fill="white" transform="translate(245 245)"/>
</clipPath>
</defs>
</svg>
