<?xml version="1.0" standalone="no"?>
<!DOCTYPE svg PUBLIC "-//W3C//DTD SVG 20010904//EN"
 "http://www.w3.org/TR/2001/REC-SVG-20010904/DTD/svg10.dtd">
<svg version="1.0" xmlns="http://www.w3.org/2000/svg"
 width="1000.000000pt" height="1000.000000pt" viewBox="0 0 1000.000000 1000.000000"
 preserveAspectRatio="xMidYMid meet">

<g transform="translate(0.000000,1000.000000) scale(0.100000,-0.100000)"
fill="#000000" stroke="none">
<path d="M4790 9729 c-946 -41 -1851 -363 -2615 -929 -344 -254 -721 -631
-975 -975 -465 -627 -773 -1369 -884 -2130 -73 -497 -61 -1103 30 -1570 160
-820 494 -1525 1024 -2165 133 -160 430 -457 590 -590 640 -530 1351 -866
2166 -1024 548 -106 1219 -104 1774 5 702 138 1354 425 1925 849 344 254 721
631 975 975 465 627 773 1369 884 2130 73 497 61 1103 -30 1570 -141 725 -424
1370 -854 1950 -254 344 -631 721 -975 975 -878 651 -1944 977 -3035 929z
m1747 -1854 l2 -450 88 -35 c332 -134 593 -396 723 -727 l33 -83 453 0 454 0
-2 -322 -3 -323 -439 -5 -438 -5 -23 -81 c-32 -107 -82 -216 -150 -322 -48
-74 -142 -172 -613 -643 -413 -412 -575 -568 -627 -601 -200 -129 -398 -193
-635 -204 -338 -16 -677 110 -920 343 -100 95 -124 146 -124 258 0 102 26 166
95 230 70 65 127 88 219 89 95 0 157 -27 255 -113 77 -68 199 -133 283 -150
75 -15 227 -13 292 4 30 8 84 29 120 46 58 29 117 84 573 538 279 278 524 530
544 560 83 124 114 312 79 465 -47 201 -214 388 -409 456 -141 50 -302 47
-432 -7 -93 -39 -160 -95 -405 -338 -144 -143 -273 -262 -295 -274 -154 -79
-347 -22 -428 126 -50 92 -52 214 -5 307 22 45 470 502 580 592 126 104 311
199 461 235 l47 11 0 439 0 439 323 -2 322 -3 2 -450z m-1676 -1931 c104 -18
260 -69 353 -116 169 -84 357 -243 396 -332 94 -221 -60 -457 -299 -456 -77 1
-155 35 -230 101 -215 190 -473 230 -714 112 -67 -33 -107 -70 -588 -552 -466
-466 -519 -523 -552 -586 -47 -93 -67 -175 -67 -278 0 -113 14 -175 60 -272
85 -176 232 -298 416 -345 146 -38 291 -22 427 46 63 32 104 68 342 304 300
297 319 310 439 318 180 11 323 -117 334 -299 9 -145 9 -144 -311 -466 -290
-292 -371 -360 -512 -432 -82 -42 -245 -101 -277 -101 -17 0 -18 -24 -20 -442
l-3 -443 -320 0 -320 0 -3 458 c-2 414 -4 457 -18 457 -35 0 -214 88 -310 151
-225 151 -405 379 -494 627 l-23 62 -453 0 -454 0 0 320 0 320 439 0 440 0 15
58 c43 157 128 324 227 446 31 39 288 301 570 582 530 526 578 568 737 648 97
49 230 93 333 110 117 20 325 20 440 0z"/>
</g>
</svg>
