<svg xmlns="http://www.w3.org/2000/svg" width="484" height="483" viewBox="0 0 484 483" version="1.1"><path d="M 212 84.527 C 181.581 102.111, 179.387 103.915, 183.549 107.921 C 184.622 108.953, 216.550 127.675, 254.500 149.524 C 292.450 171.373, 324.269 189.981, 325.210 190.875 C 326.710 192.300, 327.003 195.938, 327.594 220.500 C 327.975 236.329, 328.698 249.043, 329.256 249.750 C 329.800 250.438, 331.219 251, 332.409 251 C 334.851 251, 389.815 219.719, 391.750 217.227 C 392.686 216.022, 393 208.153, 393 185.920 C 393 159.089, 392.831 156.022, 391.250 154.157 C 389.062 151.577, 244.341 67.990, 242.122 68.026 C 241.230 68.040, 227.675 75.465, 212 84.527 M 119.331 138.374 C 106.038 146.167, 94.226 153.391, 93.081 154.427 C 91.004 156.306, 91 156.474, 91 241.464 C 91 308.079, 91.272 326.961, 92.250 328.195 C 93.911 330.292, 147.716 361.223, 150.690 361.792 C 156.240 362.853, 155.992 366.696, 156.100 278.128 C 156.155 233.232, 156.499 195.432, 156.865 194.126 C 157.370 192.326, 163 188.574, 180.127 178.626 C 192.555 171.407, 203.461 164.882, 204.362 164.128 C 206.507 162.331, 206.451 158.703, 204.250 156.786 C 200.044 153.124, 148.035 124.009, 145.867 124.102 C 144.565 124.158, 132.624 130.581, 119.331 138.374 M 315.500 297.693 C 277 320.012, 244.498 338.487, 243.272 338.749 C 241.695 339.086, 234.147 335.250, 217.421 325.612 C 204.429 318.126, 192.969 312, 191.956 312 C 190.942 312, 189.413 313, 188.557 314.223 C 187.225 316.124, 187 321.175, 187 349.223 C 187 379.156, 187.152 382.152, 188.757 383.750 C 189.723 384.712, 201.871 391.965, 215.753 399.867 C 233.719 410.094, 241.661 414.107, 243.311 413.791 C 246.300 413.220, 390.094 330.314, 391.750 328.208 C 392.693 327.008, 393 318.472, 393 293.464 C 393 262.615, 392.873 260.195, 391.171 258.655 C 390.165 257.745, 388.478 257.025, 387.421 257.056 C 386.365 257.087, 354 275.374, 315.500 297.693" stroke="none" fill="#b3fbbb" fill-rule="evenodd"/><path d="M 214.500 1.105 C 169.401 6.598, 126.297 24.632, 90.500 52.988 C 70.854 68.549, 47.354 95.616, 34.447 117.546 C 11.963 155.750, 0.908 196.348, 0.832 241 C 0.718 307.292, 26.917 368.978, 74.788 415.132 C 156.503 493.915, 280.438 505.027, 375.998 442.139 C 396.472 428.666, 420.460 405.986, 435.376 386 C 461.371 351.169, 477.868 309.235, 481.994 267.500 C 482.592 261.450, 483.558 252.225, 484.142 247 C 484.906 240.152, 484.895 236.714, 484.101 234.685 C 483.496 233.137, 482.991 229.312, 482.980 226.185 C 482.970 223.058, 482.330 215.762, 481.559 209.970 C 469.344 118.231, 405.409 40.653, 318.500 12.116 C 291.556 3.269, 269.916 -0.066, 240.699 0.126 C 230.139 0.196, 218.350 0.637, 214.500 1.105 M 212 84.527 C 181.581 102.111, 179.387 103.915, 183.549 107.921 C 184.622 108.953, 216.550 127.675, 254.500 149.524 C 292.450 171.373, 324.269 189.981, 325.210 190.875 C 326.710 192.300, 327.003 195.938, 327.594 220.500 C 327.975 236.329, 328.698 249.043, 329.256 249.750 C 329.800 250.438, 331.219 251, 332.409 251 C 334.851 251, 389.815 219.719, 391.750 217.227 C 392.686 216.022, 393 208.153, 393 185.920 C 393 159.089, 392.831 156.022, 391.250 154.157 C 389.062 151.577, 244.341 67.990, 242.122 68.026 C 241.230 68.040, 227.675 75.465, 212 84.527 M 119.331 138.374 C 106.038 146.167, 94.226 153.391, 93.081 154.427 C 91.004 156.306, 91 156.474, 91 241.464 C 91 308.079, 91.272 326.961, 92.250 328.195 C 93.911 330.292, 147.716 361.223, 150.690 361.792 C 156.240 362.853, 155.992 366.696, 156.100 278.128 C 156.155 233.232, 156.499 195.432, 156.865 194.126 C 157.370 192.326, 163 188.574, 180.127 178.626 C 192.555 171.407, 203.461 164.882, 204.362 164.128 C 206.507 162.331, 206.451 158.703, 204.250 156.786 C 200.044 153.124, 148.035 124.009, 145.867 124.102 C 144.565 124.158, 132.624 130.581, 119.331 138.374 M 0.272 241 C 0.272 243.475, 0.467 244.488, 0.706 243.250 C 0.944 242.012, 0.944 239.988, 0.706 238.750 C 0.467 237.512, 0.272 238.525, 0.272 241 M 315.500 297.693 C 277 320.012, 244.498 338.487, 243.272 338.749 C 241.695 339.086, 234.147 335.250, 217.421 325.612 C 204.429 318.126, 192.969 312, 191.956 312 C 190.942 312, 189.413 313, 188.557 314.223 C 187.225 316.124, 187 321.175, 187 349.223 C 187 379.156, 187.152 382.152, 188.757 383.750 C 189.723 384.712, 201.871 391.965, 215.753 399.867 C 233.719 410.094, 241.661 414.107, 243.311 413.791 C 246.300 413.220, 390.094 330.314, 391.750 328.208 C 392.693 327.008, 393 318.472, 393 293.464 C 393 262.615, 392.873 260.195, 391.171 258.655 C 390.165 257.745, 388.478 257.025, 387.421 257.056 C 386.365 257.087, 354 275.374, 315.500 297.693" stroke="none" fill="#040404" fill-rule="evenodd"/></svg>