<svg width="37" height="36" viewBox="0 0 37 36" fill="none" xmlns="http://www.w3.org/2000/svg">
<g clip-path="url(#clip0_722_3305)">
<path d="M36.5027 0V6.25976C28.1118 7.38002 21.6125 14.6015 21.6125 23.3059V23.5526H15.3915V23.3059C15.3915 14.6015 8.89218 7.38002 0.501221 6.25976V0C8.20526 0.753896 14.8279 5.25938 18.502 11.6636C22.1761 5.25938 28.7987 0.753896 36.5027 0Z" fill="#0DAB0C"/>
<path d="M15.3936 22.1167H15.4291C15.4024 22.5078 15.3936 22.9077 15.3936 23.3077V22.1167Z" fill="#0DAB0C"/>
<path d="M21.5774 22.1167H21.6129V23.3077C21.6129 22.9077 21.6041 22.5078 21.5774 22.1167Z" fill="#0DAB0C"/>
<path d="M36.503 29.7764H0.501465V35.9999H36.503V29.7764Z" fill="#FF7600"/>
</g>
<defs>
<clipPath id="clip0_722_3305">
<rect width="36.0022" height="36" fill="white" transform="translate(0.5)"/>
</clipPath>
</defs>
</svg>
