<?xml version="1.0" encoding="UTF-8"?>
<svg version="1.1" xmlns="http://www.w3.org/2000/svg" width="64" height="64">
<path d="M0 0 C21.12 0 42.24 0 64 0 C64 21.12 64 42.24 64 64 C42.88 64 21.76 64 0 64 C0 42.88 0 21.76 0 0 Z " fill="#F9FEFC" transform="translate(0,0)"/>
<path d="M0 0 C2.13907638 1.04174197 3.34111835 2.10437307 4.93041992 3.87011719 C5.47698242 4.45341797 6.02354492 5.03671875 6.58666992 5.63769531 C7.71527921 6.87162413 8.83772096 8.11122298 9.95385742 9.35644531 C13.42846849 13.11658038 13.42846849 13.11658038 18.32104492 14.33105469 C19.1744043 14.19828125 20.02776367 14.06550781 20.90698242 13.92871094 C20.40166992 13.37441406 19.89635742 12.82011719 19.37573242 12.24902344 C18.40120117 11.16234375 18.40120117 11.16234375 17.40698242 10.05371094 C16.43245117 8.97476562 16.43245117 8.97476562 15.43823242 7.87402344 C13.90698242 5.92871094 13.90698242 5.92871094 13.90698242 3.92871094 C14.56698242 3.92871094 15.22698242 3.92871094 15.90698242 3.92871094 C15.90698242 3.26871094 15.90698242 2.60871094 15.90698242 1.92871094 C17.55698242 1.26871094 19.20698242 0.60871094 20.90698242 -0.07128906 C23.79273268 2.66608379 26.65834232 5.422839 29.50683594 8.19897461 C30.47839895 9.14037392 31.45528004 10.07631695 32.4375 11.0065918 C33.84876625 12.34504613 35.23953558 13.70500851 36.62963867 15.06542969 C37.47276611 15.87713623 38.31589355 16.68884277 39.18457031 17.52514648 C40.90698242 19.92871094 40.90698242 19.92871094 40.90185547 22.47192383 C39.74798096 25.32135675 38.43088884 26.92158987 36.26635742 29.10058594 C35.52514648 29.84695312 34.78393555 30.59332031 34.02026367 31.36230469 C33.24038086 32.12671875 32.46049805 32.89113281 31.65698242 33.67871094 C30.89256836 34.45859375 30.1281543 35.23847656 29.34057617 36.04199219 C28.59420898 36.78320312 27.8478418 37.52441406 27.07885742 38.28808594 C26.05937012 39.30080566 26.05937012 39.30080566 25.01928711 40.33398438 C22.54952448 42.19858094 20.99958954 42.81879946 17.90698242 42.92871094 C16.11767578 41.75708008 16.11767578 41.75708008 14.49682617 39.96386719 C13.8993457 39.32900391 13.30186523 38.69414063 12.6862793 38.04003906 C12.07848633 37.36392578 11.47069336 36.6878125 10.84448242 35.99121094 C9.6339988 34.66082694 8.41428529 33.33876681 7.18432617 32.02636719 C6.65057373 31.433479 6.11682129 30.84059082 5.56689453 30.22973633 C3.73378423 28.51745391 3.73378423 28.51745391 -0.09301758 28.92871094 C0.30501803 31.81446913 0.69707311 32.75060607 2.96948242 34.67871094 C3.92854492 35.29746094 3.92854492 35.29746094 4.90698242 35.92871094 C4.50014747 38.28835367 4.00883903 39.78805181 2.59448242 41.74121094 C0.90698242 42.92871094 0.90698242 42.92871094 -0.91210938 42.76000977 C-5.77873321 40.90499419 -9.29265152 36.23969526 -12.90551758 32.61621094 C-13.80206055 31.74802734 -14.69860352 30.87984375 -15.62231445 29.98535156 C-16.4647168 29.14552734 -17.30711914 28.30570313 -18.17504883 27.44042969 C-18.95082275 26.67174561 -19.72659668 25.90306152 -20.52587891 25.11108398 C-22.09301758 22.92871094 -22.09301758 22.92871094 -22.0949707 20.93310547 C-19.75484905 16.25172175 -15.44571731 12.77067015 -11.78051758 9.11621094 C-10.91233398 8.21966797 -10.04415039 7.323125 -9.1496582 6.39941406 C-8.30983398 5.55701172 -7.47000977 4.71460938 -6.60473633 3.84667969 C-5.83605225 3.07090576 -5.06736816 2.29513184 -4.27539062 1.49584961 C-2.09301758 -0.07128906 -2.09301758 -0.07128906 0 0 Z " fill="#16B05B" transform="translate(22.093017578125,10.0712890625)"/>
<path d="M0 0 C1.15224028 0.92961422 2.29659176 1.8690125 3.4375 2.8125 C4.07558594 3.33457031 4.71367188 3.85664063 5.37109375 4.39453125 C7 6 7 6 8 9 C5.3125 9.875 5.3125 9.875 2 10 C-0.13500912 8.20703368 -1.38906909 6.32163572 -3 4 C-2.01 4 -1.02 4 0 4 C0 2.68 0 1.36 0 0 Z " fill="#DAFBEC" transform="translate(35,15)"/>
<path d="M0 0 C0 4.10292897 -1.62801099 5.1527059 -4.375 8.125 C-5.18710938 9.01445312 -5.99921875 9.90390625 -6.8359375 10.8203125 C-9 13 -9 13 -11 14 C-10.52590352 9.68269587 -7.96603297 7.66352539 -4.9375 4.75 C-4.01839844 3.85796875 -3.09929688 2.9659375 -2.15234375 2.046875 C-1.44207031 1.37140625 -0.73179688 0.6959375 0 0 Z " fill="#2BAE66" transform="translate(11,19)"/>
</svg>
