<svg width="80" height="80" viewBox="0 0 80 80" fill="none" xmlns="http://www.w3.org/2000/svg">
<circle cx="40" cy="40" r="40" fill="#A5FFBE"/>
<path d="M10.9783 29.062V27.5H20.4896V29.062L17.7453 29.3944C17.7245 30.7681 17.7037 32.164 17.6829 33.582C17.6829 34.9778 17.6829 36.3848 17.6829 37.8028V39.8301C17.6829 41.0044 17.6829 42.2674 17.6829 43.6189C17.7037 44.9705 17.7245 46.3442 17.7453 47.74H24.0446L24.9178 43.1536H27.1007L26.7888 49.5347H10.9783V47.9727L13.5978 47.6736C13.6393 46.2777 13.6601 44.904 13.6601 43.5524C13.6601 42.1787 13.6601 40.8604 13.6601 39.5975V37.8028C13.6601 36.3626 13.6601 34.9446 13.6601 33.5487C13.6601 32.1307 13.6393 30.7349 13.5978 29.3612L10.9783 29.062Z" fill="#303B33"/>
<path d="M36.795 50C35.3813 50 34.1027 49.6676 32.9593 49.003C31.8366 48.3383 30.9426 47.3744 30.2774 46.1115C29.6121 44.8486 29.2795 43.3419 29.2795 41.5916C29.2795 39.8191 29.6225 38.3013 30.3086 37.0384C31.0154 35.7755 31.9406 34.8117 33.084 34.147C34.2274 33.4823 35.4644 33.1499 36.795 33.1499C38.1255 33.1499 39.3625 33.4823 40.5059 34.147C41.6494 34.8117 42.5745 35.7755 43.2814 37.0384C43.9882 38.2792 44.3416 39.7969 44.3416 41.5916C44.3416 43.3641 43.9986 44.8818 43.3125 46.1448C42.6473 47.3855 41.7429 48.3383 40.5995 49.003C39.4768 49.6676 38.2087 50 36.795 50ZM36.795 48.3715C37.9176 48.3715 38.77 47.8176 39.3521 46.7097C39.955 45.6019 40.2564 43.9069 40.2564 41.6248C40.2564 37.0606 39.1026 34.7784 36.795 34.7784C34.5081 34.7784 33.3647 37.0606 33.3647 41.6248C33.3647 43.9069 33.6557 45.6019 34.2378 46.7097C34.8199 47.8176 35.6723 48.3715 36.795 48.3715Z" fill="#303B33"/>
<path d="M54.2754 50C52.8617 50 51.5831 49.6676 50.4397 49.003C49.317 48.3383 48.4231 47.3744 47.7578 46.1115C47.0925 44.8486 46.7599 43.3419 46.7599 41.5916C46.7599 39.8191 47.1029 38.3013 47.789 37.0384C48.4958 35.7755 49.421 34.8117 50.5644 34.147C51.7078 33.4823 52.9448 33.1499 54.2754 33.1499C55.6059 33.1499 56.8429 33.4823 57.9863 34.147C59.1298 34.8117 60.0549 35.7755 60.7618 37.0384C61.4686 38.2792 61.822 39.7969 61.822 41.5916C61.822 43.3641 61.479 44.8818 60.793 46.1448C60.1277 47.3855 59.2233 48.3383 58.0799 49.003C56.9573 49.6676 55.6891 50 54.2754 50ZM54.2754 48.3715C55.398 48.3715 56.2504 47.8176 56.8325 46.7097C57.4354 45.6019 57.7369 43.9069 57.7369 41.6248C57.7369 37.0606 56.583 34.7784 54.2754 34.7784C51.9885 34.7784 50.8451 37.0606 50.8451 41.6248C50.8451 43.9069 51.1361 45.6019 51.7182 46.7097C52.3004 47.8176 53.1527 48.3715 54.2754 48.3715Z" fill="#303B33"/>
<path d="M69.3619 50C68.1145 50 67.1374 49.6676 66.4305 49.003C65.7237 48.3383 65.3703 47.2747 65.3703 45.8124C65.3703 45.3028 65.3703 44.8264 65.3703 44.3833C65.3911 43.918 65.4015 43.3641 65.4015 42.7216V35.6425H63.0938V33.9143L65.6197 33.582L66.8048 29.0288H69.3307L69.206 33.6152H72.9481V35.6425H69.1748V45.4468C69.1748 46.2666 69.3203 46.8648 69.6114 47.2415C69.9232 47.6182 70.3286 47.8065 70.8276 47.8065C71.3889 47.8065 72.023 47.5295 72.7298 46.9756L73.4783 47.8065C73.0833 48.4934 72.5427 49.0362 71.8567 49.435C71.1706 49.8117 70.339 50 69.3619 50Z" fill="#303B33"/>
</svg>
