<svg width="110" height="23" viewBox="0 0 110 23" fill="none" xmlns="http://www.w3.org/2000/svg"><circle cx="98.5" cy="11.5" r="11.5" fill="#A5FFBE"></circle><path d="M89.1562 8.35534V7.90625H91.8907V8.35534L91.1018 8.45089C91.0958 8.84583 91.0898 9.24714 91.0838 9.65482C91.0838 10.0561 91.0838 10.4606 91.0838 10.8683V11.4512C91.0838 11.7888 91.0838 12.1519 91.0838 12.5404C91.0898 12.929 91.0958 13.3239 91.1018 13.7253H92.9128L93.1639 12.4067H93.7914L93.7018 14.2412H89.1562V13.7921L89.9094 13.7061C89.9213 13.3048 89.9273 12.9099 89.9273 12.5213C89.9273 12.1264 89.9273 11.7474 89.9273 11.3843V10.8683C89.9273 10.4543 89.9273 10.0466 89.9273 9.64526C89.9273 9.23758 89.9213 8.83627 89.9094 8.44133L89.1562 8.35534Z" fill="#1E252B"></path><path d="M96.5786 14.375C96.1721 14.375 95.8045 14.2794 95.4758 14.0883C95.153 13.8972 94.896 13.6202 94.7047 13.2571C94.5135 12.894 94.4178 12.4608 94.4178 11.9576C94.4178 11.448 94.5165 11.0116 94.7137 10.6485C94.9169 10.2854 95.1829 10.0084 95.5116 9.81725C95.8404 9.62615 96.196 9.5306 96.5786 9.5306C96.9611 9.5306 97.3167 9.62615 97.6455 9.81725C97.9742 10.0084 98.2402 10.2854 98.4434 10.6485C98.6466 11.0053 98.7482 11.4416 98.7482 11.9576C98.7482 12.4672 98.6496 12.9035 98.4524 13.2666C98.2611 13.6233 98.0011 13.8972 97.6723 14.0883C97.3496 14.2794 96.985 14.375 96.5786 14.375ZM96.5786 13.9068C96.9013 13.9068 97.1464 13.7476 97.3137 13.4291C97.4871 13.1106 97.5737 12.6232 97.5737 11.9671C97.5737 10.6549 97.242 9.9988 96.5786 9.9988C95.9211 9.9988 95.5923 10.6549 95.5923 11.9671C95.5923 12.6232 95.676 13.1106 95.8434 13.4291C96.0107 13.7476 96.2558 13.9068 96.5786 13.9068Z" fill="#1E252B"></path><path d="M101.604 14.375C101.198 14.375 100.83 14.2794 100.501 14.0883C100.179 13.8972 99.9216 13.6202 99.7304 13.2571C99.5391 12.894 99.4435 12.4608 99.4435 11.9576C99.4435 11.448 99.5421 11.0116 99.7393 10.6485C99.9426 10.2854 100.209 10.0084 100.537 9.81725C100.866 9.62615 101.222 9.5306 101.604 9.5306C101.987 9.5306 102.342 9.62615 102.671 9.81725C103 10.0084 103.266 10.2854 103.469 10.6485C103.672 11.0053 103.774 11.4416 103.774 11.9576C103.774 12.4672 103.675 12.9035 103.478 13.2666C103.287 13.6233 103.027 13.8972 102.698 14.0883C102.375 14.2794 102.011 14.375 101.604 14.375ZM101.604 13.9068C101.927 13.9068 102.172 13.7476 102.339 13.4291C102.513 13.1106 102.599 12.6232 102.599 11.9671C102.599 10.6549 102.268 9.9988 101.604 9.9988C100.947 9.9988 100.618 10.6549 100.618 11.9671C100.618 12.6232 100.702 13.1106 100.869 13.4291C101.036 13.7476 101.281 13.9068 101.604 13.9068Z" fill="#1E252B"></path><path d="M105.942 14.375C105.583 14.375 105.302 14.2794 105.099 14.0883C104.896 13.8972 104.794 13.5915 104.794 13.1711C104.794 13.0246 104.794 12.8876 104.794 12.7602C104.8 12.6264 104.803 12.4672 104.803 12.2824V10.2472H104.139V9.75037L104.866 9.65482L105.206 8.34578H105.933L105.897 9.66437H106.973V10.2472H105.888V13.066C105.888 13.3017 105.93 13.4736 106.013 13.5819C106.103 13.6902 106.219 13.7444 106.363 13.7444C106.524 13.7444 106.707 13.6647 106.91 13.5055L107.125 13.7444C107.011 13.9418 106.856 14.0979 106.659 14.2126C106.462 14.3209 106.222 14.375 105.942 14.375Z" fill="#1E252B"></path><path d="M9.60012 4.91223L6.65612 13.7762H12.5121L9.60012 4.91223ZM0.224121 22.0002V20.4962L2.84812 20.1122L9.53612 0.656233H12.1601L18.8481 20.2722L21.0241 20.5282V22.0002H11.7761V20.5282L14.5921 20.1762L13.0561 15.4402H6.08012L4.54412 20.0802L7.32812 20.4962V22.0002H0.224121Z" fill="white"></path><path d="M32.5679 22.5442C30.4132 22.5442 28.5145 22.0856 26.8719 21.1682C25.2292 20.2296 23.9492 18.9282 23.0319 17.2642C22.1145 15.5789 21.6559 13.6162 21.6559 11.3762C21.6559 9.1789 22.1039 7.24823 22.9999 5.58423C23.9172 3.8989 25.2079 2.5869 26.8719 1.64823C28.5572 0.709567 30.5412 0.240234 32.8239 0.240234C34.0185 0.240234 35.1385 0.368234 36.1839 0.624233C37.2292 0.858901 38.2105 1.23223 39.1279 1.74423L39.2559 6.54423H37.0479L36.2799 2.64023C35.3199 2.1709 34.3172 1.93623 33.2719 1.93623C31.9492 1.93623 30.7439 2.28823 29.6559 2.99223C28.5892 3.69623 27.7359 4.75223 27.0959 6.16023C26.4772 7.5469 26.1679 9.28557 26.1679 11.3762C26.1679 14.4696 26.8292 16.8162 28.1519 18.4162C29.4745 20.0162 31.2025 20.8162 33.3359 20.8162C33.7839 20.8162 34.1999 20.7842 34.5839 20.7202C34.9679 20.6562 35.3412 20.5709 35.7039 20.4642V19.2162C35.7039 18.2776 35.6932 17.3389 35.6719 16.4002C35.6719 15.4402 35.6612 14.4909 35.6399 13.5522L32.5359 13.2322V11.7282H41.5599V13.2322L39.7679 13.4242C39.7465 14.4056 39.7252 15.3762 39.7039 16.3362C39.7039 17.2962 39.7039 18.2776 39.7039 19.2802V20.6562C38.5945 21.2536 37.4745 21.7122 36.3439 22.0322C35.2132 22.3736 33.9545 22.5442 32.5679 22.5442Z" fill="white"></path><path d="M42.9669 2.28823V0.784233H52.7269V2.28823L49.9109 2.60823C49.8895 3.9309 49.8682 5.2749 49.8469 6.64023C49.8469 7.98423 49.8469 9.3389 49.8469 10.7042V12.6562C49.8469 13.7869 49.8469 15.0029 49.8469 16.3042C49.8682 17.6056 49.8895 18.9282 49.9109 20.2722H56.3749L57.2709 15.8562H59.5109L59.1909 22.0002H42.9669V20.4962L45.6549 20.2082C45.6975 18.8642 45.7189 17.5416 45.7189 16.2402C45.7189 14.9176 45.7189 13.6482 45.7189 12.4322V10.7042C45.7189 9.31757 45.7189 7.95223 45.7189 6.60823C45.7189 5.2429 45.6975 3.8989 45.6549 2.57623L42.9669 2.28823Z" fill="white"></path><path d="M68.2844 11.8242C68.2844 13.2962 68.2844 14.7362 68.2844 16.1442C68.3057 17.5522 68.327 18.9496 68.3484 20.3362H70.1724C72.3484 20.3362 74.0337 19.5576 75.2284 18.0002C76.423 16.4429 77.0204 14.2456 77.0204 11.4082C77.0204 8.48557 76.4337 6.25623 75.2604 4.72023C74.087 3.18423 72.455 2.41623 70.3644 2.41623H68.3484C68.327 3.78157 68.3057 5.15757 68.2844 6.54423C68.2844 7.9309 68.2844 9.31757 68.2844 10.7042V11.8242ZM61.4044 2.28823V0.784233H70.8764C73.031 0.784233 74.8977 1.20023 76.4764 2.03223C78.0764 2.86423 79.3137 4.06957 80.1884 5.64823C81.063 7.2269 81.5004 9.13623 81.5004 11.3762C81.5004 13.6376 81.0204 15.5576 80.0604 17.1362C79.1004 18.7149 77.7777 19.9202 76.0924 20.7522C74.407 21.5842 72.4657 22.0002 70.2684 22.0002H61.4044V20.4962L64.0924 20.2082C64.135 18.8642 64.1564 17.4989 64.1564 16.1122C64.1564 14.7256 64.1564 13.2962 64.1564 11.8242V10.7042C64.1564 9.36023 64.1564 8.01623 64.1564 6.67223C64.1564 5.3069 64.135 3.94157 64.0924 2.57623L61.4044 2.28823Z" fill="white"></path></svg>