<svg width="540" height="540" viewBox="0 0 540 540" fill="none" xmlns="http://www.w3.org/2000/svg">
<path fill-rule="evenodd" clip-rule="evenodd" d="M91 286.384C95.981 294.289 105.43 302.082 131.178 302.044H381.658C391.363 302.044 402.314 309.315 406.16 318.339L447.692 416.668C451.502 425.691 446.703 433 436.997 433H180.292C165.019 432.031 150.846 428.003 144.29 412.492L91 286.384ZM306.392 82.9768L348.402 182.536C352.211 191.597 349.83 204.648 343.054 211.732L282.147 276.652H143.667C121.729 276.912 108.727 268.448 127.369 247.827L287.275 79.4344C294.014 72.3497 302.584 73.9158 306.392 82.9768Z" fill="url(#paint0_linear_4_106)"/>
<defs>
<linearGradient id="paint0_linear_4_106" x1="427.987" y1="149.451" x2="161.69" y2="485.841" gradientUnits="userSpaceOnUse">
<stop stop-color="#63E1D6"/>
<stop offset="1" stop-color="#17B89B"/>
</linearGradient>
</defs>
</svg>
