<svg width="159" height="48" fill="none" xmlns="http://www.w3.org/2000/svg"><path fill-rule="evenodd" clip-rule="evenodd" d="M11.12 41.21A21.472 21.472 0 0 1 2.515 24c0-11.857 9.586-21.476 21.402-21.476 9.755 0 20.407 5.85 22.98 14.81C44.018 7.325 34.822 0 23.917 0 10.71 0 0 10.748 0 24s10.71 24 23.917 24c13.206 0 23.916-10.748 23.916-24v-1.265h-1.488c-.156 0-.377-.007-.663-.02a41.47 41.47 0 0 1-2.223-.137c-1.793-.156-3.84-.463-5.231-1.024-2.243-.9-3.51-2.087-4.953-3.482l-.084-.078c-1.45-1.396-3.074-2.968-5.901-4.298-2.782-1.311-5.856-1.102-8.111-.633a20.179 20.179 0 0 0-2.827.802c-.351.124-.63.242-.826.32-1.137.482-2.242 1.05-3.353 1.578 0 0 2.19.6 3.269.94.039.012.097.032.182.058.162.052.396.137.676.254.572.235 1.319.58 2.06 1.063 1.17.75 2.138 1.702 2.535 2.863-2.477.326-4.803 1.422-6.545 2.446a27.523 27.523 0 0 0-2.548 1.709c-.305.234-.552.43-.721.567a531.64 531.64 0 0 0-2.379 2.093s2.886.307 4.31.594c.948.19 2.222.502 3.56.965 1.34.47 2.691 1.083 3.816 1.872 1.124.79 1.95 1.696 2.352 2.74 1.183 3.038.02 5.993-2.313 7.656-2.308 1.643-5.81 2.034-9.314-.379l.007.007Zm8.163 3.757a9.748 9.748 0 0 0 2.612-1.317c3.172-2.263 4.842-6.41 3.198-10.637-.65-1.663-1.885-2.928-3.256-3.893-1.378-.966-2.957-1.67-4.426-2.185-.962-.34-1.898-.6-2.71-.796.292-.189.598-.385.93-.58 1.936-1.142 4.38-2.192 6.72-2.192 3.528 0 6.154 1.09 8.663 2.25.227.105.455.216.689.32 2.242 1.056 4.594 2.165 7.33 2.165 2.737 0 4.719-.75 6.142-1.532-1.267 10.643-10.294 18.9-21.245 18.9a21.65 21.65 0 0 1-4.634-.503h-.013Zm23.163-19.943c-.943.32-2.087.554-3.419.554-2.145 0-3.99-.86-6.33-1.956-.208-.098-.416-.196-.63-.294-2.347-1.089-5.057-2.243-8.586-2.452-.474-2.341-2.242-3.946-3.763-4.924a10.7 10.7 0 0 0-.507-.313c.15-.032.306-.072.468-.104 2.04-.424 4.472-.528 6.532.45 2.444 1.154 3.828 2.485 5.264 3.867l.052.046c1.475 1.422 3.042 2.915 5.765 4.01 1.514.607 3.477.933 5.154 1.116Z" fill="url(#a)"/><path d="M63.314 18.829V4.65h2.704l2.34 5.693 2.339-5.693H73.4v14.178h-2.118V7.93l-2.944 7.024-2.944-7.024V18.83h-2.08ZM76.611 18.829 81.05 4.65h2.866l4.439 14.178h-2.463l-1.027-3.424h-4.861l-1.008 3.424H76.611Zm3.932-5.309h3.795l-1.897-6.3-1.898 6.3ZM91.825 18.829V4.65h2.444l5.108 9.92-.039-9.92h2.061v14.178h-2.243l-5.31-10.246.04 10.246h-2.06ZM109.522 18.829V6.718h-4.38V4.651h11.179v2.067h-4.381v12.11h-2.424.006ZM118.992 18.829l4.439-14.178h2.866l4.439 14.178h-2.464l-1.026-3.424h-4.862l-1.007 3.424h-2.385Zm3.932-5.309h3.795l-1.898-6.3-1.897 6.3ZM63.574 43.129V28.95h2.444l5.108 9.92-.04-9.92h2.061v14.178h-2.242l-5.31-10.246.04 10.246h-2.061ZM78.184 43.129V28.95h9.241v2.067h-6.824v3.952h4.42v2.022H80.6v4.07h6.902v2.067h-9.326.007ZM95.4 43.129v-12.11h-4.38V28.95h11.178v2.067h-4.38v12.11h-2.425.007ZM106.682 43.129l-1.657-14.178h2.138l.891 9.358 1.813-9.358h1.813l1.813 9.274.891-9.274h2.06l-1.638 14.178h-2.177l-1.878-10.004-1.898 10.004h-2.177.006ZM124.86 43.35a4.811 4.811 0 0 1-2.742-.847c-.832-.568-1.502-1.396-1.996-2.478-.5-1.09-.747-2.413-.747-3.979 0-1.565.247-2.895.747-3.978.501-1.09 1.164-1.91 1.996-2.478a4.763 4.763 0 0 1 2.742-.848c.995 0 1.904.287 2.736.848.826.567 1.495 1.395 1.996 2.478.506 1.09.753 2.413.753 3.978 0 1.566-.253 2.896-.753 3.979-.507 1.089-1.17 1.91-1.996 2.478a4.728 4.728 0 0 1-2.736.848Zm0-2.184c.566 0 1.079-.19 1.547-.58.461-.385.832-.96 1.098-1.722.267-.763.403-1.703.403-2.824 0-1.122-.136-2.061-.403-2.818-.266-.756-.637-1.33-1.098-1.721-.461-.392-.981-.587-1.547-.587-.565 0-1.079.195-1.547.587-.461.39-.831.965-1.098 1.721-.266.757-.403 1.696-.403 2.818 0 1.121.137 2.06.403 2.824.267.763.637 1.337 1.098 1.721.462.385.982.58 1.547.58ZM134.59 43.129V28.95h4.802c.943 0 1.768.176 2.47.534a4.067 4.067 0 0 1 1.657 1.5c.397.64.598 1.39.598 2.237 0 .933-.24 1.735-.728 2.407-.487.678-1.144 1.167-1.975 1.48l3.087 6.013h-2.607l-2.807-5.667h-2.08v5.667h-2.424l.007.007Zm2.424-7.61h2.177c.754 0 1.352-.21 1.807-.62.448-.411.676-.953.676-1.63 0-.68-.228-1.24-.676-1.65-.449-.412-1.053-.62-1.807-.62h-2.177v4.519ZM148.491 43.129V28.95h2.424v6.339l5.063-6.34h2.762l-5.693 6.868 5.953 7.31h-3.048l-5.043-6.482v6.483h-2.425.007Z" fill="#fff"/><defs><linearGradient id="a" x1="-.429" y1="24.444" x2="48.262" y2="23.556" gradientUnits="userSpaceOnUse"><stop stop-color="#29CCB9"/><stop offset=".49" stop-color="#0091FF"/><stop offset="1" stop-color="#FF66B7"/></linearGradient></defs></svg>