<svg width="1839" height="1839" viewBox="0 0 1839 1839" fill="none" xmlns="http://www.w3.org/2000/svg">
<g clip-path="url(#clip0_2_90)">
<path d="M1839.2 919.308C1839.2 737.486 1785.29 559.747 1684.27 408.568C1583.26 257.388 1439.68 139.558 1271.7 69.9781C1103.72 0.397862 918.874 -17.8075 740.546 17.6642C562.218 53.1358 398.413 140.691 269.845 269.259C141.278 397.826 53.7225 561.631 18.2508 739.96C-17.2209 918.288 0.98447 1103.13 70.5647 1271.11C140.145 1439.09 257.975 1582.67 409.154 1683.68C560.334 1784.7 738.072 1838.62 919.894 1838.62C1040.62 1838.63 1160.17 1814.86 1271.71 1768.66C1383.26 1722.47 1484.6 1654.75 1569.97 1569.39C1655.34 1484.02 1723.06 1382.67 1769.25 1271.13C1815.45 1159.59 1839.22 1040.04 1839.2 919.308Z" fill="#00CFFF"/>
<path d="M1523.59 873.358C1504.11 858.627 1483.86 844.962 1462.9 832.422C1453.87 826.706 1445.47 820.051 1437.83 812.568C1422.17 797.115 1396.08 769.996 1387.58 753.314C1382.06 743.08 1384.31 723.534 1388.61 705.215C1395.95 673.105 1390.36 639.394 1373.05 611.371L1345.83 566.956C1333.27 546.75 1323.21 525.102 1315.84 502.483C1306.41 473.438 1290.04 447.129 1268.15 425.831C1223.84 382.542 1101.14 361.358 999.309 357.878C993.014 356.042 986.626 354.539 980.172 353.375C934.733 345.597 886.43 332.907 842.936 341.299C778.565 353.273 713.375 373.434 664.764 423.17C654.53 433.404 639.589 438.009 629.048 447.527C608.069 466.459 579.925 466.459 561.3 487.439C550.349 499.719 545.335 539.631 516.783 554.88C469.502 580.26 434.911 608.096 423.143 622.321C414.444 633.066 407.792 645.552 399.4 656.502C391.008 667.452 350.073 687.204 337.997 698.563C328.967 708.581 322.412 720.576 318.858 733.586C315.303 746.596 314.848 760.258 317.529 773.475C318.246 776.648 318.757 779.206 319.167 781.253C323.874 798.65 336.564 830.068 333.596 844.498C330.219 861.589 286.214 988.898 384.766 1022.87C393.757 1025.58 401.647 1031.09 407.282 1038.61C412.916 1046.12 416 1055.24 416.081 1064.63C418.093 1081.63 422.972 1098.17 430.511 1113.55C437.06 1126.02 446.719 1136.6 458.552 1144.25C471.176 1156.28 483.101 1169.02 494.268 1182.42C529.063 1246.79 519.341 1278.93 586.373 1300.83C603.483 1306.48 619.921 1314 635.393 1323.24C654.22 1334.59 674.404 1343.53 695.466 1349.85L698.127 1350.77C712.966 1315.05 727.907 1281.07 742.951 1249.14C704.14 1211.27 676.448 1163.49 662.88 1110.99C649.313 1058.49 650.389 1003.27 665.992 951.34C666.319 950.229 666.921 949.218 667.744 948.403C668.566 947.588 669.581 946.994 670.695 946.678C671.809 946.361 672.984 946.331 674.113 946.592C675.241 946.852 676.285 947.394 677.147 948.167C702.322 970.272 778.872 1049.89 769.866 1193.78C796.371 1140.87 822.058 1094.31 845.596 1054.6C817.172 1008.12 801.936 954.775 801.521 900.292C801.107 845.809 815.529 792.241 843.243 745.332C843.875 744.361 844.739 743.562 845.758 743.01C846.776 742.457 847.917 742.168 849.076 742.168C850.235 742.168 851.375 742.457 852.394 743.01C853.413 743.562 854.277 744.361 854.909 745.332C872.614 771.531 920.508 857.904 890.83 981.222C912.424 948.269 929.923 923.913 941.283 908.664C971.985 703.987 1126.72 636.955 1167.35 622.73C1168.44 622.327 1169.61 622.207 1170.75 622.379C1171.9 622.552 1172.98 623.013 1173.9 623.718C1174.82 624.423 1175.55 625.351 1176.01 626.413C1176.48 627.475 1176.67 628.637 1176.56 629.792C1170.2 692.082 1147.52 751.592 1110.81 802.316C1074.1 853.04 1024.66 893.183 967.482 918.694C945.888 947.041 925.216 976.924 905.362 1007.63C973.827 954 1069.92 928.825 1149.75 948.167C1150.87 948.43 1151.92 948.969 1152.78 949.736C1153.65 950.503 1154.31 951.475 1154.71 952.562C1155.1 953.649 1155.22 954.817 1155.05 955.962C1154.88 957.107 1154.43 958.191 1153.74 959.117C1130.81 989.819 1039.53 1092.16 867.19 1068.41C838.228 1117.44 811.518 1167.07 787.98 1214.45C862.175 1158.37 970.654 1136.78 1054.78 1165.12C1055.9 1165.47 1056.92 1166.1 1057.73 1166.94C1058.55 1167.79 1059.14 1168.82 1059.44 1169.96C1059.75 1171.09 1059.76 1172.29 1059.48 1173.43C1059.2 1174.57 1058.64 1175.62 1057.85 1176.48C1031.75 1204.63 931.151 1296.94 765.67 1260.3C750.114 1293.15 726.986 1346.98 715.729 1373.59C711.84 1382.8 708.258 1392.01 705.495 1401.42C698.229 1423.12 688.302 1450.24 676.533 1477.36C674.898 1481.22 674.073 1485.38 674.107 1489.57C674.141 1493.77 675.035 1497.91 676.732 1501.75C678.429 1505.58 680.895 1509.03 683.976 1511.88C687.057 1514.72 690.689 1516.91 694.647 1518.3C825.17 1564.94 966.904 1570.2 1100.52 1533.34C1104.94 1532.08 1109.01 1529.84 1112.45 1526.79C1115.88 1523.75 1118.59 1519.97 1120.38 1515.74C1123.14 1509.19 1125.9 1502.94 1125.9 1502.94C1125.9 1502.94 1183.62 1368.88 1192.11 1310.45C1194.56 1292.04 1200.28 1274.23 1209 1257.84C1213.52 1249.64 1220.06 1242.73 1227.99 1237.75C1235.92 1232.77 1244.99 1229.9 1254.34 1229.39C1298.24 1227.04 1391.88 1220.9 1425.96 1210.15C1471.29 1195.72 1451.65 1113.24 1449.19 1104.44C1446.73 1095.64 1470.99 1074.86 1476 1062.79C1481.02 1050.71 1463.72 1046.62 1456.66 1033.31C1449.6 1020.01 1474.16 1010.59 1477.64 998.518C1481.12 986.442 1469.66 973.342 1465.05 964.439C1461.9 957.972 1459.73 951.075 1458.6 943.971C1458.6 943.971 1491.76 919.717 1509.77 904.366C1527.79 889.015 1524.1 876.428 1524 873.665" fill="black"/>
</g>
<defs>
<clipPath id="clip0_2_90">
<rect width="1839" height="1839" fill="white"/>
</clipPath>
</defs>
</svg>
