<?xml version="1.0" encoding="UTF-8"?>
<!DOCTYPE svg PUBLIC "-//W3C//DTD SVG 1.1//EN" "http://www.w3.org/Graphics/SVG/1.1/DTD/svg11.dtd">
<svg xmlns="http://www.w3.org/2000/svg" version="1.1" width="92px" height="62px" style="shape-rendering:geometricPrecision; text-rendering:geometricPrecision; image-rendering:optimizeQuality; fill-rule:evenodd; clip-rule:evenodd" xmlns:xlink="http://www.w3.org/1999/xlink">
<g><path style="opacity:1" fill="#0a090e" d="M -0.5,-0.5 C 30.1667,-0.5 60.8333,-0.5 91.5,-0.5C 91.5,20.1667 91.5,40.8333 91.5,61.5C 60.8333,61.5 30.1667,61.5 -0.5,61.5C -0.5,40.8333 -0.5,20.1667 -0.5,-0.5 Z"/></g>
<g><path style="opacity:1" fill="#abea79" d="M 80.5,43.5 C 75.6776,39.589 70.6776,35.9224 65.5,32.5C 63.516,28.6711 60.516,27.3378 56.5,28.5C 54.5887,27.925 52.922,26.925 51.5,25.5C 50.974,20.8907 51.6407,16.5573 53.5,12.5C 58.5842,9.36433 63.0842,10.031 67,14.5C 67.1593,19.9162 67.826,25.2496 69,30.5C 72.3675,34.2026 76.0342,37.536 80,40.5C 80.4828,41.448 80.6495,42.448 80.5,43.5 Z"/></g>
<g><path style="opacity:1" fill="#97eb97" d="M 51.5,25.5 C 52.922,26.925 54.5887,27.925 56.5,28.5C 55.8783,29.6266 55.045,30.6266 54,31.5C 53.6667,36.5 53.3333,41.5 53,46.5C 50.5168,51.0698 46.6834,52.5698 41.5,51C 40.3333,49.8333 39.1667,48.6667 38,47.5C 37.8407,42.0838 37.174,36.7504 36,31.5C 32.6843,27.8542 29.0176,24.5209 25,21.5C 23.7703,10.7446 28.1036,7.7446 38,12.5C 39.2507,18.7248 39.9173,25.0582 40,31.5C 46.9274,36.1315 50.7607,34.1315 51.5,25.5 Z"/></g>
<g><path style="opacity:1" fill="#93e99b" d="M 14.5,37.5 C 24.5251,36.7314 27.5251,40.8981 23.5,50C 14.5984,53.6514 10.4317,50.8181 11,41.5C 11.6897,39.6498 12.8564,38.3164 14.5,37.5 Z"/></g>
<g><path style="opacity:1" fill="#a6f28c" d="M 65.5,32.5 C 70.6776,35.9224 75.6776,39.589 80.5,43.5C 81.0414,46.6516 80.0414,49.1516 77.5,51C 74.0357,51.8166 70.7024,51.4833 67.5,50C 66.8742,49.2496 66.3742,48.4162 66,47.5C 65.5007,42.5111 65.3341,37.5111 65.5,32.5 Z"/></g>
</svg>
