<?xml version="1.0" encoding="utf-8"?>
<!-- Generator: Adobe Illustrator 28.2.0, SVG Export Plug-In . SVG Version: 6.00 Build 0)  -->
<svg version="1.1" id="Layer_1" xmlns="http://www.w3.org/2000/svg" xmlns:xlink="http://www.w3.org/1999/xlink" x="0px" y="0px"
	 viewBox="0 0 119.2 94.5" style="enable-background:new 0 0 119.2 94.5;" xml:space="preserve">
<style type="text/css">
	.st0{fill:#FFDA34;}
</style>
<a xlink:href="100" >
	<path id="logoMark_00000095339908509459064580000001002162838798737087_" class="st0" d="M105.7,46c-1.1,0-2.1-0.2-3.1-0.5l-0.1,0
		c-0.1,0-0.2-0.1-0.4-0.1c-0.3-0.1-0.6-0.3-1-0.5l-0.1-0.1c-1.3-0.7-2.5-1.7-3.4-2.9c-2.8-3.7-2.8-8.8,0-12.4
		c1.1-1.5,2.7-2.6,4.4-3.3l0.2-0.1c0.5-0.2,0.9-0.3,1.2-0.4l0.3-0.1c0.7-0.1,1.4-0.2,2.1-0.2c4.2,0,7.7-1.3,10.1-3.7
		c2.2-2.3,3.4-5.4,3.4-9V0H93.7v8.5c0,1.6,0,3.3,0,4.9c0,3.3-1.9,7.9-5.4,9c-2.2,0.7-5-0.4-7.3-0.1c-1.9,0.2-3.8,0.9-5.4,1.9
		c-3.3,2.1-5.5,5.6-6,9.5c-0.2,1.5-0.1,2.6,0,3.4c0.1,0.9,0.1,1.2-0.2,2.1c-0.6,1.8-2,3.4-3.8,4.6c-1.8,1.2-3.9,1.9-5.8,1.9l-0.2,0
		l-0.2,0c-2,0-4-0.7-5.8-1.9c-1.8-1.2-3.1-2.9-3.8-4.6c-0.3-0.9-0.3-1.2-0.2-2.1c0.1-0.8,0.2-1.9,0-3.4c-0.4-3.9-2.7-7.4-6-9.5
		c-1.6-1-3.5-1.7-5.4-1.9c-2.3-0.3-5.1,0.8-7.3,0.1c-3.5-1.2-5.4-5.7-5.4-9c0-1.6,0-3.3,0-4.9V0H0.1v12.9c0,3.6,1.1,6.7,3.4,9
		c2.4,2.4,5.9,3.7,10.1,3.7c0.7,0,1.4,0.1,2.1,0.2l0.3,0.1c0.3,0,0.7,0.2,1.2,0.4l0.2,0.1c1.7,0.7,3.2,1.8,4.4,3.3
		c2.8,3.6,2.8,8.7,0,12.4c-0.9,1.2-2.1,2.2-3.4,2.9L18.1,45c-0.4,0.2-0.7,0.3-1,0.5c-0.1,0-0.3,0.1-0.4,0.1l-0.1,0
		c-1,0.3-2.1,0.5-3.1,0.5C5.4,46,0,51,0,58.4c0,5.8,2.6,8.8,4.8,10.3c2.7,1.8,6,2.3,9.1,2.6l0.2,0c0.8,0.1,1.5,0.3,2.3,0.6l0.4,0.1
		l0.1,0c2.1,0.7,3.9,2.2,4.9,4.1c0.6,1.1,1,2.5,1.2,4c0.1,0.6,0.1,1.2,0.1,1.7c0,0.4,0.1,0.9,0.1,1.4v11.1h25.3V81.4
		c0-3.4-1.3-6.6-3.7-9c-0.1-0.1-0.2-0.2-0.3-0.3c-0.2-0.2-0.4-0.3-0.5-0.4l-0.1-0.1c-2.7-2.4-6.3-2.4-8.9-2.5h0c-0.4,0-0.8,0-1.2,0
		L33.6,69l-0.8-0.2l-0.8-0.2l-0.9-0.3c-0.9-0.4-1.7-0.9-2.5-1.6l-0.2-0.1c-2.4-2.1-3.5-4.7-3.6-7.9c0-2.3,0.7-4.5,2.1-6.3
		c1.4-1.8,3.3-3.1,5.4-3.7c2.2-0.6,6.2-0.7,8.1,0c3.5,1.1,6.1,4.4,6.3,8.1c0,0.3,0,0.6,0,1c0,1.1-0.1,2.6,0.5,4.5
		c1.8,5.2,6.7,8.8,12.2,8.8c5.6,0,10.5-3.6,12.2-8.8c0.6-1.9,0.6-3.4,0.5-4.5c0-0.4,0-0.7,0-1c0.2-3.7,2.7-7,6.3-8.1
		c1.9-0.6,6-0.6,8.1,0c2.1,0.6,4.1,2,5.4,3.7c1.4,1.8,2.1,4,2.1,6.3c0,3.2-1.2,5.8-3.6,7.9l-0.2,0.1c-0.7,0.6-1.6,1.2-2.5,1.6
		l-0.9,0.3l-0.8,0.2L85.7,69l-0.4,0.1c-0.4,0-0.8,0-1.2,0h0c-2.6,0-6.2,0.1-8.9,2.5L75,71.7c-0.1,0.1-0.3,0.3-0.5,0.4
		c-0.1,0.1-0.2,0.2-0.3,0.3c-2.4,2.4-3.7,5.7-3.7,9v13.1h25.3V83.4c0-0.5,0.1-1,0.1-1.4c0-0.6,0.1-1.1,0.1-1.7
		c0.2-1.5,0.6-2.9,1.2-4c1.1-1.9,2.9-3.4,4.9-4.1l0.1,0l0.4-0.1c0.8-0.3,1.5-0.5,2.3-0.6l0.2,0c3.1-0.3,6.4-0.8,9.1-2.6
		c2.2-1.5,4.8-4.5,4.8-10.3C119.2,51,113.8,46,105.7,46L105.7,46z"/>
</a>
</svg>
