<svg width="450" height="450" viewBox="0 0 450 450" fill="none" xmlns="http://www.w3.org/2000/svg">
<path fill-rule="evenodd" clip-rule="evenodd" d="M311.062 304.82C312.394 303.175 313.668 301.496 314.907 299.805L338.279 313.85H371L323.812 285.517C326.903 279.733 329.494 273.703 331.56 267.491C335.908 254.694 338.168 241.299 338.256 227.804C338.188 214.247 335.871 200.791 331.396 187.968C326.763 174.478 319.753 161.897 310.688 150.8C301.184 139.193 289.172 129.817 275.525 123.353C261.307 116.451 244.42 113 224.866 113C206.168 113 189.862 116.451 175.948 123.353C162.506 129.875 150.658 139.183 141.217 150.639C132.115 161.688 125.155 174.291 120.684 187.818C116.322 200.715 114.065 214.212 114 227.804C114.021 241.634 116.156 255.381 120.334 268.584C124.517 282.099 131.258 294.713 140.2 305.763C149.659 317.28 161.72 326.462 175.422 332.578C189.897 339.304 207.228 342.666 227.413 342.666C246.321 342.666 262.682 339.215 276.495 332.313C278.528 331.301 280.491 330.22 282.431 329.104L305.57 343H338.291L297.565 318.509C302.499 314.382 307.019 309.798 311.062 304.82ZM242.512 285.437H209.791L262.378 316.979C261.782 317.382 261.209 317.784 260.602 318.13C251.175 324.111 239.999 327.098 227.074 327.091C213.285 327.091 201.455 324.196 191.584 318.406C181.758 312.71 173.473 304.767 167.429 295.249C161.152 285.309 156.558 274.431 153.826 263.039C150.948 251.497 149.489 239.655 149.479 227.77C149.514 216.093 151.045 204.467 154.036 193.168C156.947 181.767 161.68 170.895 168.06 160.958C174.101 151.463 182.202 143.402 191.782 137.353C201.295 131.386 212.436 128.399 225.205 128.392C238.558 128.392 250.096 131.379 259.819 137.353C269.611 143.37 277.864 151.526 283.939 161.188C290.298 171.151 295.071 182.013 298.091 193.398C301.174 204.651 302.745 216.253 302.765 227.908C302.71 239.462 301.178 250.964 298.207 262.142C297.6 264.443 296.922 266.686 296.197 268.918L275.256 256.391H242.535L289.723 284.724C288.05 288.067 286.201 291.323 284.184 294.478C281.699 298.364 278.884 302.035 275.77 305.453L242.512 285.437Z" fill="white"/>
</svg>
