<svg width="125" height="125" viewBox="0 0 125 125" fill="none" xmlns="http://www.w3.org/2000/svg">
<path fill-rule="evenodd" clip-rule="evenodd" d="M66.8762 93.9846C66.6558 93.7441 66.3827 93.5579 66.0783 93.4406C65.774 93.3232 65.4466 93.2779 65.1218 93.3082C64.2975 93.3082 63.4521 93.4139 62.6066 93.4139C56.0557 93.4315 49.6678 91.3725 44.3603 87.5326C39.0528 83.6927 35.0989 78.2695 33.0664 72.0418C31.0339 65.8142 31.0274 59.1026 33.048 52.8711C35.0685 46.6395 39.012 41.2087 44.3121 37.3586C49.6122 33.5085 55.9961 31.4372 62.547 31.4422C69.098 31.4473 75.4787 33.5284 80.7729 37.3867C86.067 41.245 90.0021 46.682 92.013 52.9166C94.0239 59.1513 94.0071 65.8628 91.965 72.0873C91.776 72.577 91.776 73.1195 91.965 73.6091L98.9822 88.7005C99.0601 88.8679 99.1805 89.012 99.3315 89.1185C99.4824 89.2249 99.6586 89.2899 99.8425 89.307C100.026 89.3241 100.212 89.2927 100.38 89.216C100.548 89.1392 100.692 89.0198 100.8 88.8696C107.038 79.8099 109.862 68.8323 108.77 57.8872C107.679 46.9421 102.744 36.7381 94.8402 29.0881C86.9367 21.4382 76.5774 16.8376 65.6025 16.1037C54.6277 15.3698 43.748 18.5501 34.8964 25.0796C26.0447 31.6091 19.7943 41.0651 17.2556 51.7674C14.7169 62.4698 16.0542 73.7257 21.03 83.5352C26.0057 93.3448 34.2978 101.073 44.433 105.347C54.5681 109.62 65.8901 110.163 76.3875 106.878C76.5555 106.824 76.7073 106.729 76.8292 106.602C76.9512 106.474 77.0392 106.318 77.0855 106.148C77.1317 105.978 77.1346 105.799 77.0939 105.627C77.0532 105.456 76.9702 105.297 76.8525 105.166L66.8762 93.9846Z" fill="#FF4D6A"/>
<path fill-rule="evenodd" clip-rule="evenodd" d="M81.3751 67.8391L74.844 76.1456C74.5959 76.4553 74.2552 76.6775 73.8717 76.7797L63.6629 79.4006H63.515H63.4093C63.4032 79.3586 63.4032 79.3159 63.4093 79.2738C63.3994 79.2321 63.3994 79.1887 63.4093 79.147L66.6854 66.7188C66.7282 66.5312 66.8082 66.354 66.9208 66.1979C67.0334 66.0418 67.1761 65.9099 67.3406 65.81C67.6574 65.5985 68.0428 65.5154 68.4186 65.5775L81.206 67.4375H81.3329C81.3418 67.4721 81.3418 67.5085 81.3329 67.5431C81.3428 67.5848 81.3428 67.6283 81.3329 67.67C81.3529 67.6927 81.3672 67.72 81.3745 67.7494C81.3819 67.7788 81.3821 67.8095 81.3751 67.8391V67.8391ZM64.4661 82.7613L75.8797 79.76C76.2663 79.665 76.6092 79.4414 76.852 79.1259L84.1229 69.9104H84.2497H84.3765L97.9037 98.994C98.0525 99.3401 98.1106 99.7183 98.0728 100.093C98.0275 100.47 97.8815 100.828 97.6501 101.129L94.3528 105.758C94.14 106.02 93.8526 106.212 93.5285 106.307L87.9063 107.808C87.5396 107.909 87.1526 107.909 86.786 107.808C86.4192 107.694 86.0903 107.482 85.8349 107.195L64.297 83.1629V83.0572C64.2859 83.0379 64.28 83.0161 64.28 82.9938C64.28 82.9716 64.2859 82.9497 64.297 82.9304C64.2877 82.9143 64.2828 82.8961 64.2828 82.8776C64.2828 82.859 64.2877 82.8408 64.297 82.8247L64.4661 82.7613Z" fill="#FF4D6A"/>
</svg>
