<?xml version="1.0" encoding="UTF-8"?>
<svg id="_图层_1" data-name="图层 1" xmlns="http://www.w3.org/2000/svg" viewBox="0 0 300 300">
  <defs>
    <style>
      .cls-1 {
        fill: #ffeeda;
      }

      .cls-2 {
        fill: #ebc28e;
      }

      .cls-3 {
        fill: #190602;
      }
    </style>
  </defs>
  <path class="cls-1" d="M239.19,186.59l.02-120.61c-.19-10.1-8.18-18.22-18.31-18.22H95.03c-27.15,.45-49.03,22.63-49.03,49.92,0,9.22,2.46,17.07,6.25,23.95,3.16,5.74,8.18,11.15,13.16,15.22,1.36,1.11,.72,.7,4.99,3.32,5.89,3.62,12.65,5.41,12.65,5.41l-.05,72.13c.14,3.41,.52,6.69,1.37,9.74,2.81,10.15,9.84,17.97,19.44,21.76,4.01,1.58,8.55,2.65,13.36,2.68l100.54,.37c20.05,0,36.31-16.28,36.31-36.36,0-12.02-5.83-22.68-14.81-29.3Z"/>
  <path class="cls-2" d="M241.62,216.67c-.41,12.88-10.97,23.19-23.93,23.19l-69.21-.27c5.53-6.38,8.86-14.68,8.86-23.71,0-14.21-8.47-23.98-8.47-23.98h68.82c13.22,0,23.94,10.73,23.94,23.98v.79Z"/>
  <path class="cls-3" d="M71.93,126.59c-7.94-7.52-13.57-17.28-13.57-28.91l.02-1.23c.64-19.76,16.91-35.66,36.64-36.29h125.88c3.3,.11,5.95,2.48,5.95,5.82v106.48c2.91,.53,4.3,.88,7.09,1.9,2.18,.79,5.28,2.55,5.28,2.55V65.98c-.19-10.1-8.18-18.22-18.31-18.22H95.03c-27.15,.45-49.03,22.63-49.03,49.92,0,15.85,7.21,29.35,19.05,38.87,.79,.63,1.57,1.46,3.69,1.45,3.71-.01,6.31-2.92,6.16-6.15-.13-2.66-1.25-3.64-2.97-5.27Z"/>
  <path class="cls-3" d="M217.69,179.53H118.95c-6.63,.06-11.99,5.45-11.99,12.09v14.16c.19,6.56,5.78,12.18,12.38,12.18h7.34v-12.18h-7.34v-13.86h4c12.46,0,21.63,11.6,21.63,23.98,0,10.96-9.98,25.02-26.75,23.89-14.89-1-22.88-14.22-22.87-23.89V95.55c0-5.44-4.41-9.85-9.85-9.85h-9.84v12.28h7.32s0,117.9,0,117.9c-.37,23.98,17.08,36.06,35.25,36.06l99.45,.29c20.05,0,36.31-16.28,36.31-36.36s-16.25-36.36-36.31-36.36Zm23.93,37.15c-.41,12.88-10.97,23.19-23.93,23.19l-69.21-.27c5.53-6.38,8.86-14.68,8.86-23.71,0-14.21-8.47-23.98-8.47-23.98h68.82c13.22,0,23.94,10.73,23.94,23.98v.79Z"/>
  <path class="cls-3" d="M191.12,87.92H116.7v12.28h74.43c3.39,0,6.14-2.75,6.14-6.14s-2.75-6.14-6.14-6.14Z"/>
  <path class="cls-3" d="M191.12,145.87H116.7v12.28h74.43c3.39,0,6.14-2.75,6.14-6.14s-2.75-6.14-6.14-6.14Z"/>
  <path class="cls-3" d="M204.22,116.9H116.7v12.28h87.52c3.39,0,6.14-2.75,6.14-6.14s-2.75-6.14-6.14-6.14Z"/>
</svg>