<?xml version="1.0" standalone="no"?>
<!DOCTYPE svg PUBLIC "-//W3C//DTD SVG 20010904//EN"
 "http://www.w3.org/TR/2001/REC-SVG-20010904/DTD/svg10.dtd">
<svg version="1.0" xmlns="http://www.w3.org/2000/svg"
 width="80.000000pt" height="80.000000pt" viewBox="0 0 80.000000 80.000000"
 preserveAspectRatio="xMidYMid meet">
<metadata>
Created by potrace 1.16, written by Peter Selinger 2001-2019
</metadata>
<g transform="translate(0.000000,80.000000) scale(0.100000,-0.100000)"
fill="#000000" stroke="none">
<path d="M114 736 c-39 -17 -71 -58 -85 -108 -6 -24 -9 -125 -7 -257 l3 -218
28 -36 c53 -70 63 -72 332 -72 231 0 242 1 283 23 79 42 82 53 82 325 0 274
-4 291 -75 332 -41 25 -44 25 -286 25 -182 -1 -252 -4 -275 -14z m222 -98 c10
-15 -41 -58 -69 -58 -40 0 -67 -27 -67 -69 0 -48 19 -74 56 -73 40 0 84 -25
84 -47 0 -30 35 -54 69 -46 38 8 94 -19 89 -43 -5 -25 -158 -30 -210 -6 -63
28 -106 -3 -78 -57 10 -17 22 -19 116 -19 68 0 103 -4 99 -10 -3 -5 -19 -10
-35 -10 -19 0 -35 -9 -49 -26 -18 -23 -24 -25 -68 -18 -55 8 -78 18 -110 47
-30 27 -32 98 -3 134 26 33 25 44 -5 89 -54 79 -18 188 70 213 44 13 103 13
111 -1z m244 -13 c16 -8 36 -25 44 -37 21 -29 21 -102 0 -118 -33 -28 -35 -47
-9 -86 19 -27 25 -50 25 -88 0 -58 -14 -91 -50 -118 -27 -20 -118 -35 -146
-24 -15 6 -14 10 11 36 19 19 39 30 57 30 64 0 90 78 43 126 -14 14 -32 23
-40 20 -19 -7 -75 13 -75 27 0 21 -34 47 -60 47 -36 0 -96 25 -103 43 -10 28
16 37 104 37 65 0 95 -5 118 -17 36 -21 64 -10 69 26 7 43 -10 49 -125 43 -88
-4 -105 -3 -101 9 2 8 19 15 36 17 21 2 38 12 49 29 16 24 21 25 71 19 29 -4
67 -13 82 -21z"/>
</g>
</svg>
