<svg width="238" height="238" viewBox="0 0 238 238" fill="none" xmlns="http://www.w3.org/2000/svg">
<path d="M138.126 141.811L138.149 141.796C138.149 141.796 138.126 141.811 138.11 141.819C138.118 141.819 138.126 141.819 138.133 141.819L138.126 141.811Z" fill="#F5F5F5"/>
<path d="M138.11 141.819C102.242 152.592 72.5798 168.308 53.9981 186.714L53.1782 187.534C58.1206 192.208 63.538 196.392 69.3922 199.947L70.6489 198.407C75.7215 192.208 81.1619 186.223 86.8246 180.584C102.019 165.443 119.398 152.34 138.11 141.819Z" fill="#F5F5F5"/>
<path d="M142.256 125.85H23.8459C25.2788 145.06 32.4127 162.676 43.6077 177.005L44.1211 176.492C55.6226 165.144 70.5953 154.83 88.656 145.842C104.487 137.957 122.662 131.191 142.256 125.85Z" fill="#F5F5F5"/>
<path d="M96.8626 46.8949C128.961 78.8785 169.358 100.027 213.671 108.05C208.33 60.6339 167.971 23.754 118.931 23.754C105.981 23.754 93.6366 26.3362 82.365 30.9951C86.9395 36.5045 91.8283 41.8683 96.8626 46.9026V46.8949Z" fill="#F5F5F5"/>
<path d="M53.998 50.8105C72.5798 69.2466 102.257 84.9396 138.133 95.7361C119.406 85.1924 102.012 72.0971 86.8091 56.9482C81.1618 51.3239 75.7291 45.3394 70.6335 39.1251L69.3768 37.5849C63.5226 41.1403 58.1052 45.3164 53.1858 49.9906L54.0057 50.8105H53.998Z" fill="#F5F5F5"/>
<path d="M96.8626 190.629C91.8053 195.664 86.9242 201.028 82.365 206.537C93.6213 211.196 105.981 213.778 118.931 213.778C167.971 213.778 208.33 176.89 213.686 129.459C169.381 137.482 128.984 158.631 96.8779 190.614L96.8626 190.629Z" fill="#F5F5F5"/>
<path d="M88.633 91.6597V91.675C70.5876 82.6868 55.6226 72.3653 44.1211 61.0324L43.6077 60.519C32.4127 74.848 25.2788 92.4642 23.8459 111.674H142.233C122.647 106.333 104.487 99.5674 88.633 91.6597Z" fill="#F5F5F5"/>
</svg>
