<?xml version="1.0" encoding="UTF-8"?>
<svg id="Layer_1" xmlns="http://www.w3.org/2000/svg" version="1.1" viewBox="0 0 70 92">
  <!-- Generator: Adobe Illustrator 29.0.1, SVG Export Plug-In . SVG Version: 2.1.0 Build 192)  -->
  <defs>
    <style>
      .st0 {
        fill: #fff;
      }
    </style>
  </defs>
  <path class="st0" d="M69.5,61.1c0,19.3-15.5,30.9-34.6,30.9S2.5,80.6,0,66h17.6c1.9,5.5,8.2,9.5,17.3,9.5s17.3-5.1,17.3-14.1-7.1-13.7-17.4-13.7v12.7C15.4,60.5.6,49.5.6,31S14.9,0,35,0s32.2,11.4,33.5,25.3h-17c-1.4-5-6.9-8.8-16.1-8.8s-17.4,5.2-17.4,14,7.1,13.1,16.9,13.1v-13.4c21.1,0,34.7,12.7,34.7,30.9Z"/>
</svg>