<svg width="125" height="125" viewBox="0 0 125 125" fill="none" xmlns="http://www.w3.org/2000/svg">
<path fill-rule="evenodd" clip-rule="evenodd" d="M71.9384 106.286C71.9384 107.554 73.1057 108.504 74.3318 108.18C94.2825 102.906 109 84.6125 109 62.855C109 36.9777 88.1812 16 62.5 16C36.8188 16 16 36.9777 16 62.855C16 85.1127 31.402 103.746 52.0524 108.523C53.2646 108.803 54.3905 107.859 54.3905 106.614V95.514C54.3905 94.6173 53.7915 93.8357 52.9387 93.5588C46.3987 91.4355 41.1091 87.6757 37.0699 82.2794C32.7663 76.4893 30.6145 69.7801 30.6145 62.1519C30.6145 52.0728 34.3726 43.8165 41.8888 37.383C48.1321 32.0524 55.2391 29.3871 63.2099 29.3871C73.4841 29.3871 81.7731 33.14 88.077 40.6457C93.1687 46.7116 95.7145 53.7118 95.7145 61.6464C95.7145 69.4278 93.4566 76.3974 88.9408 82.5552C85.1534 87.755 79.9689 91.4228 73.3874 93.5585C72.5357 93.8348 71.9384 94.6159 71.9384 95.5113V106.286ZM71.3474 69.2067C71.3474 68.1022 70.452 67.2067 69.3474 67.2067H57.027C55.9224 67.2067 55.027 68.1022 55.027 69.2067V69.9655C55.027 71.6616 53.1041 72.501 52.1442 71.1028C50.4292 68.6049 49.5717 65.6519 49.5717 62.2438C49.5717 58.3531 50.9203 54.9832 53.6177 52.134C56.315 49.2849 59.5125 47.8604 63.2099 47.8604C66.8771 47.8604 70.0594 49.2849 72.7567 52.134C75.4541 54.9832 76.8027 58.3531 76.8027 62.2438C76.8027 65.5482 75.9553 68.46 74.2603 70.9792C73.3033 72.4016 71.3474 71.5689 71.3474 69.8545V69.2067Z" fill="#00BFFF"/>
</svg>
