<?xml version="1.0" encoding="utf-8"?>
<!-- Generator: Adobe Illustrator 27.8.1, SVG Export Plug-In . SVG Version: 6.00 Build 0)  -->
<svg version="1.1" id="Layer_1" xmlns="http://www.w3.org/2000/svg" xmlns:xlink="http://www.w3.org/1999/xlink" x="0px" y="0px"
	 viewBox="0 0 424.9 424.2" style="enable-background:new 0 0 424.9 424.2;" xml:space="preserve">
<style type="text/css">
	.st0{fill:url(#SVGID_1_);}
	.st1{fill:url(#SVGID_00000130638806490201060020000006002498633379544762_);}
	.st2{fill:url(#SVGID_00000049912890478617549770000011752119115430641817_);}
	.st3{fill:url(#SVGID_00000115513059182431974690000007398284419530423185_);}
	.st4{fill:url(#SVGID_00000105417933198654051720000000541894296569757360_);}
	.st5{fill:url(#SVGID_00000127728591610598499120000002032711226883880108_);}
</style>
<g>
	<radialGradient id="SVGID_1_" cx="-51.1447" cy="483.5591" r="806.358" gradientUnits="userSpaceOnUse">
		<stop  offset="0" style="stop-color:#FF00FF"/>
		<stop  offset="1" style="stop-color:#00FFFF"/>
	</radialGradient>
	<path class="st0" d="M319.9,180.8c1.9-3.3-2.1-6.9-5.2-4.5L169.5,286.8c-1.4,1.1-1.8,3-0.9,4.5l40.6,70.5c1.3,2.3,4.7,2.3,6.1,0
		l65.8-113.9L319.9,180.8z"/>
	
		<radialGradient id="SVGID_00000093855649073731313700000009167665318040697003_" cx="-51.1447" cy="483.5591" r="806.358" gradientUnits="userSpaceOnUse">
		<stop  offset="0" style="stop-color:#FF00FF"/>
		<stop  offset="1" style="stop-color:#00FFFF"/>
	</radialGradient>
	<path style="fill:url(#SVGID_00000093855649073731313700000009167665318040697003_);" d="M188.6,129.1H80.8c-2.7,0-4.4,2.9-3,5.3
		l65.6,113.6h0.2c1.5,2.6,5.3,2.3,6.3-0.5l41.9-113.6C192.7,131.5,191,129.1,188.6,129.1z"/>
	
		<radialGradient id="SVGID_00000150818795474173653420000009461820951894879924_" cx="-51.1447" cy="483.5591" r="806.358" gradientUnits="userSpaceOnUse">
		<stop  offset="0" style="stop-color:#FF00FF"/>
		<stop  offset="1" style="stop-color:#00FFFF"/>
	</radialGradient>
	<path style="fill:url(#SVGID_00000150818795474173653420000009461820951894879924_);" d="M212.3,102.7h151.5
		c-33.8-47.2-89-78-151.5-78s-117.7,30.8-151.5,78H212.3z"/>
	
		<radialGradient id="SVGID_00000125573189726385857850000017313314157140651189_" cx="-51.1447" cy="483.5591" r="806.358" gradientUnits="userSpaceOnUse">
		<stop  offset="0" style="stop-color:#FF00FF"/>
		<stop  offset="1" style="stop-color:#00FFFF"/>
	</radialGradient>
	<path style="fill:url(#SVGID_00000125573189726385857850000017313314157140651189_);" d="M379.6,129.3l-75.8,131.8l-78.1,135.4
		c96.6-6.9,172.8-87.3,172.8-185.6C398.4,181.6,391.7,153.9,379.6,129.3z"/>
	
		<radialGradient id="SVGID_00000101789743566306120950000007252143982713970828_" cx="-51.1447" cy="483.5591" r="806.358" gradientUnits="userSpaceOnUse">
		<stop  offset="0" style="stop-color:#FF00FF"/>
		<stop  offset="1" style="stop-color:#00FFFF"/>
	</radialGradient>
	<path style="fill:url(#SVGID_00000101789743566306120950000007252143982713970828_);" d="M121,261.1L44.9,129.3
		c-12,24.6-18.8,52.3-18.8,81.6c0,98.4,76.4,178.9,173,185.7L121,261.1z"/>
	
		<radialGradient id="SVGID_00000135650874393538196520000005261458795724613779_" cx="-51.1447" cy="483.5591" r="806.358" gradientUnits="userSpaceOnUse">
		<stop  offset="0" style="stop-color:#FF00FF"/>
		<stop  offset="1" style="stop-color:#00FFFF"/>
	</radialGradient>
	<path style="fill:url(#SVGID_00000135650874393538196520000005261458795724613779_);" d="M323,129.1h-99.3c-1.5,0-2.8,0.9-3.3,2.3
		l-38.6,105c-1.2,3.3,2.6,6.1,5.4,4l137.9-105C327.8,133.3,326.4,129.1,323,129.1z"/>
</g>
</svg>
