<svg width="226" height="33" viewBox="0 0 226 33" fill="none" xmlns="http://www.w3.org/2000/svg">
<path d="M6 -4.76837e-07H15V30H12V33H1.19209e-07V24H6V-4.76837e-07ZM42.0156 3H45.0156V24H42.0156V27H24.0156V24H21.0156V3H24.0156V-4.76837e-07H42.0156V3ZM36.0156 18V9H30.0156V18H36.0156ZM66.0156 -4.76837e-07H75.0156V6H72.0156V9H69.0156V12H66.0156V15H69.0156V18H72.0156V21H75.0156V27H66.0156V24H63.0156V21H60.0156V27H51.0156V-4.76837e-07H60.0156V6H63.0156V3H66.0156V-4.76837e-07ZM81.0156 -4.76837e-07H105.016V9H90.0156V12H102.016V15H90.0156V18H105.016V27H81.0156V-4.76837e-07ZM132.016 3H135.016V18H132.016V21H135.016V27H126.016V24H123.016V21H120.016V27H111.016V-4.76837e-07H132.016V3ZM126.016 12V9H120.016V12H126.016ZM159.016 3H165.016V27H156.016V18H150.016V27H141.016V3H147.016V-4.76837e-07H159.016V3ZM150.016 15H156.016V9H150.016V15ZM177.016 -4.76837e-07H195.016V9H180.016V18H195.016V27H177.016V24H171.016V3H177.016V-4.76837e-07ZM201.016 -4.76837e-07H225.016V9H210.016V12H222.016V15H210.016V18H225.016V27H201.016V-4.76837e-07Z" fill="#E5E5E5"/>
</svg>
